RobotoFlex-Black.ufo
<glyph name="exclam" format="2">
  <advance width="717"/>
  <unicode hex="0021"/>
  <outline>
    <contour>
      <point x="149.96615384617002" y="160.72153846156" type="qcurve" smooth="yes"/>
      <point x="149.96615384617002" y="235.38461538461002"/>
      <point x="257.02452385586" y="342.74307692305"/>
      <point x="357.84484868548" y="342.74307692305" type="qcurve" smooth="yes"/>
      <point x="458.39594274588" y="342.74307692305"/>
      <point x="566.41277429408" y="235.38461538461002"/>
      <point x="566.41277429408" y="160.72153846156" type="qcurve" smooth="yes"/>
      <point x="566.41277429408" y="85.35846153844"/>
      <point x="458.65440428432" y="-22.0"/>
      <point x="358.18946407009" y="-22.0" type="qcurve" smooth="yes"/>
      <point x="257.02452385586" y="-22.0"/>
      <point x="149.96615384617002" y="85.35846153844"/>
    </contour>
    <contour>
      <point x="207.79531178188" y="484.69538461538997" type="line"/>
      <point x="182.06816280430002" y="1456.0" type="line"/>
      <point x="534.31076533595" y="1456.0" type="line"/>
      <point x="507.7974625122" y="484.69538461538997" type="line"/>
    </contour>
  </outline>
</glyph>
<glyph name="quotedbl" format="2">
  <advance width="909"/>
  <unicode hex="0022"/>
  <outline>
    <contour>
      <point x="95.81413554042" y="779.77846153844" type="line"/>
      <point x="73.45384615383" y="1264.94769230766" type="line"/>
      <point x="73.45384615383" y="1456.0" type="line"/>
      <point x="367.38654956184996" y="1456.0" type="line"/>
      <point x="367.38654956184996" y="1264.94769230766" type="line"/>
      <point x="345.64010632909003" y="779.77846153844" type="line"/>
    </contour>
    <contour>
      <point x="564.22376202532" y="779.77846153844" type="line"/>
      <point x="541.86347263873" y="1264.94769230766" type="line"/>
      <point x="541.86347263873" y="1456.0" type="line"/>
      <point x="835.7100222005799" y="1456.0" type="line"/>
      <point x="835.7100222005799" y="1264.94769230766" type="line"/>
      <point x="813.96357896789" y="779.77846153844" type="line"/>
    </contour>
  </outline>
</glyph>
<glyph name="numbersign" format="2">
  <advance width="1614"/>
  <unicode hex="0023"/>
  <outline>
    <contour>
      <point x="202.37692307695" y="-20.0" type="line"/>
      <point x="616.12063291138" y="1482.64936708862" type="line"/>
      <point x="891.9870555014501" y="1482.64936708862" type="line"/>
      <point x="478.32949951312" y="-19.3" type="line"/>
    </contour>
    <contour>
      <point x="713.9871470302" y="-20.0" type="line"/>
      <point x="1127.33777994158" y="1482.64936708862" type="line"/>
      <point x="1403.29035637782" y="1482.64936708862" type="line"/>
      <point x="989.93972346644" y="-20.0" type="line"/>
    </contour>
    <contour>
      <point x="88.98461538461001" y="333.3" type="line"/>
      <point x="88.98461538461001" y="606.56153846156" type="line"/>
      <point x="1456.33895423566" y="606.56153846156" type="line"/>
      <point x="1456.33895423566" y="333.3" type="line"/>
    </contour>
    <contour>
      <point x="150.24217137294" y="858.18782862706" type="line"/>
      <point x="150.24217137294" y="1129.34936708862" type="line"/>
      <point x="1516.68266407009" y="1129.34936708862" type="line"/>
      <point x="1516.68266407009" y="858.18782862706" type="line"/>
    </contour>
  </outline>
</glyph>
<glyph name="ampersand" format="2">
  <advance width="1402"/>
  <unicode hex="0026"/>
  <outline>
    <contour>
      <point x="73.7" y="380.0" type="qcurve" smooth="yes"/>
      <point x="73.7" y="547.7"/>
      <point x="285.3" y="761.8"/>
      <point x="436.0" y="846.0" type="qcurve" smooth="yes"/>
      <point x="652.7" y="964.9" type="line" smooth="yes"/>
      <point x="718.7" y="1006.5"/>
      <point x="757.7" y="1075.7"/>
      <point x="757.7" y="1126.6" type="qcurve" smooth="yes"/>
      <point x="757.7" y="1190.3"/>
      <point x="704.8" y="1249.3"/>
      <point x="648.5" y="1249.3" type="qcurve" smooth="yes"/>
      <point x="592.9" y="1249.3"/>
      <point x="536.9" y="1180.3"/>
      <point x="536.9" y="1117.3" type="qcurve" smooth="yes"/>
      <point x="536.9" y="1059.9"/>
      <point x="598.0" y="957.9"/>
      <point x="671.5" y="860.3" type="qcurve" smooth="yes"/>
      <point x="1381.3" y="0.0" type="line"/>
      <point x="998.3" y="0.0" type="line"/>
      <point x="423.7" y="693.8" type="line" smooth="yes"/>
      <point x="298.1" y="837.8"/>
      <point x="191.1" y="1015.2"/>
      <point x="191.1" y="1115.9" type="qcurve" smooth="yes"/>
      <point x="191.1" y="1286.0"/>
      <point x="445.9" y="1486.0"/>
      <point x="649.2" y="1486.0" type="qcurve" smooth="yes"/>
      <point x="853.2" y="1486.0"/>
      <point x="1091.4" y="1296.7"/>
      <point x="1091.4" y="1134.5" type="qcurve" smooth="yes"/>
      <point x="1091.4" y="1008.2"/>
      <point x="969.8" y="843.3"/>
      <point x="845.8" y="772.8" type="qcurve" smooth="yes"/>
      <point x="631.2" y="656.0" type="line" smooth="yes"/>
      <point x="520.6" y="593.9"/>
      <point x="426.4" y="477.4"/>
      <point x="426.4" y="398.9" type="qcurve" smooth="yes"/>
      <point x="426.4" y="318.3"/>
      <point x="517.3" y="225.8"/>
      <point x="602.5" y="225.8" type="qcurve" smooth="yes"/>
      <point x="739.1" y="225.8"/>
      <point x="965.5" y="464.8"/>
      <point x="969.0" y="681.7" type="qcurve"/>
      <point x="1302.7" y="681.7" type="line"/>
      <point x="1302.7" y="387.7"/>
      <point x="889.8" y="-20.0"/>
      <point x="592.0" y="-20.0" type="qcurve" smooth="yes"/>
      <point x="341.2" y="-20.0"/>
      <point x="73.7" y="206.4"/>
    </contour>
  </outline>
</glyph>
<glyph name="quotesingle" format="2">
  <advance width="482"/>
  <unicode hex="0027"/>
  <outline>
    <contour>
      <point x="116.45022590069999" y="779.77846153844" type="line"/>
      <point x="80.45384615383" y="1264.94769230766" type="line"/>
      <point x="80.45384615383" y="1456.0" type="line"/>
      <point x="401.65873028241003" y="1456.0" type="line"/>
      <point x="401.65873028241003" y="1264.94769230766" type="line"/>
      <point x="365.57619668936997" y="779.77846153844" type="line"/>
    </contour>
  </outline>
</glyph>
<glyph name="parenleft" format="2">
  <advance width="781"/>
  <unicode hex="0028"/>
  <outline>
    <contour>
      <point x="704.23090165528" y="-437.4" type="line"/>
      <point x="452.70017916259997" y="-341.75538461538997"/>
      <point x="101.54615384617" y="121.15180136318"/>
      <point x="101.54615384617" y="514.91384615383" type="qcurve" smooth="yes"/>
      <point x="101.54615384617" y="525.0" type="line" smooth="yes"/>
      <point x="101.54615384617" y="898.30761441092"/>
      <point x="428.9001791626" y="1369.15538461539"/>
      <point x="703.53090165528" y="1476.0" type="qcurve"/>
      <point x="703.53090165528" y="1225.73281402143" type="line"/>
      <point x="611.41002347024" y="1154.27479053253"/>
      <point x="445.15320934761996" y="832.8969425511"/>
      <point x="445.15320934761996" y="532.0" type="qcurve" smooth="yes"/>
      <point x="445.15320934761996" y="508.0" type="line" smooth="yes"/>
      <point x="445.15320934761996" y="200.63470301853002"/>
      <point x="599.51002347024" y="-112.17479053253"/>
      <point x="704.23090165528" y="-185.73281402143" type="qcurve"/>
    </contour>
  </outline>
</glyph>
<glyph name="parenright" format="2">
  <advance width="781"/>
  <unicode hex="0029"/>
  <outline>
    <contour>
      <point x="76.40076923077999" y="-436.0" type="qcurve"/>
      <point x="76.40076923077999" y="-185.73281402143" type="line"/>
      <point x="172.68941187926998" y="-123.50666017526001"/>
      <point x="335.47846153844" y="200.63470301853002"/>
      <point x="335.47846153844" y="508.0" type="qcurve" smooth="yes"/>
      <point x="335.47846153844" y="532.0" type="line" smooth="yes"/>
      <point x="335.47846153844" y="832.8969425511"/>
      <point x="168.48941187927" y="1153.70666017526"/>
      <point x="76.40076923077999" y="1225.03281402143" type="qcurve"/>
      <point x="76.40076923077999" y="1476.0" type="line"/>
      <point x="320.93149172346" y="1376.15538461539"/>
      <point x="679.08551703989" y="910.9937682570901"/>
      <point x="679.08551703989" y="525.08615384617" type="qcurve" smooth="yes"/>
      <point x="679.08551703989" y="515.0" type="line" smooth="yes"/>
      <point x="679.08551703989" y="121.23795520934999"/>
      <point x="331.43149172346" y="-338.25538461538997"/>
    </contour>
  </outline>
</glyph>
<glyph name="asterisk" format="2">
  <advance width="1142"/>
  <unicode hex="002A"/>
  <outline>
    <contour>
      <point x="37.969230769220005" y="981.43230769234" type="line"/>
      <point x="139.43464148002" y="1282.29" type="line"/>
      <point x="439.02535657253" y="1149.18846153844" type="line"/>
      <point x="406.62813476144" y="1476.0" type="line"/>
      <point x="734.39808607596" y="1476.0" type="line"/>
      <point x="702.1731719571401" y="1149.18846153844" type="line"/>
      <point x="1001.76388704965" y="1282.37615384617" type="line"/>
      <point x="1103.14314391428" y="981.51846153844" type="line"/>
      <point x="783.36662784808" y="912.47230769234" type="line"/>
      <point x="1001.1024923076601" y="667.31692307695" type="line"/>
      <point x="735.70902901655" y="482.46307692305004" type="line"/>
      <point x="570.64234118792" y="766.58076923078" type="line"/>
      <point x="405.57565335928996" y="482.46307692305004" type="line"/>
      <point x="140.26834391428" y="667.31692307695" type="line"/>
      <point x="357.74574683542005" y="912.47230769234" type="line"/>
    </contour>
  </outline>
</glyph>
<glyph name="plus" format="2">
  <advance width="1133"/>
  <unicode hex="002B"/>
  <outline>
    <contour>
      <point x="106.95063680621001" y="537.51740993182" type="line"/>
      <point x="106.95063680621001" y="811.40664070104" type="line"/>
      <point x="1025.28967478089" y="811.40664070104" type="line"/>
      <point x="1025.28967478089" y="537.51740993182" type="line"/>
    </contour>
    <contour>
      <point x="398.59074586173" y="167.49129503409" type="line"/>
      <point x="398.59074586173" y="1180.50870496591" type="line"/>
      <point x="732.33571957154" y="1180.50870496591" type="line"/>
      <point x="732.33571957154" y="167.49129503409" type="line"/>
    </contour>
  </outline>
</glyph>
<glyph name="comma" format="2">
  <advance width="654"/>
  <unicode hex="002C"/>
  <outline>
    <contour>
      <point x="69.20090555018001" y="-234.13230769234002" type="line"/>
      <point x="128.19728529698" y="-160.83846153844"/>
      <point x="186.43692307695" y="-1.0784615384399991"/>
      <point x="186.43692307695" y="102.27538461539001" type="qcurve" smooth="yes"/>
      <point x="186.43692307695" y="342.23076923077997" type="line"/>
      <point x="493.81211295035" y="342.23076923077997" type="line"/>
      <point x="493.95943602722997" y="102.62" type="line" smooth="yes"/>
      <point x="493.95943602722997" y="-32.74153846156"/>
      <point x="368.69449581307" y="-261.43384615383"/>
      <point x="264.58191742938" y="-344.01153846156" type="qcurve"/>
    </contour>
  </outline>
</glyph>
<glyph name="hyphen" format="2">
  <advance width="675"/>
  <unicode hex="002D"/>
  <outline>
    <contour>
      <point x="47.206153846170004" y="486.50307692305" type="line"/>
      <point x="47.206153846170004" y="772.63538461539" type="line"/>
      <point x="627.58248685494" y="772.63538461539" type="line"/>
      <point x="627.58248685494" y="486.50307692305" type="line"/>
    </contour>
  </outline>
</glyph>
<glyph name="period" format="2">
  <advance width="683"/>
  <unicode hex="002E"/>
  <outline>
    <contour>
      <point x="123.42769230766001" y="175.30461538460997" type="qcurve" smooth="yes"/>
      <point x="123.42769230766001" y="257.16769230766"/>
      <point x="232.81211295035" y="372.26461538461"/>
      <point x="334.165842259" y="372.26461538461" type="qcurve" smooth="yes"/>
      <point x="436.83341772155" y="372.26461538461"/>
      <point x="545.51783836417" y="257.16769230766"/>
      <point x="545.51783836417" y="175.30461538460997" type="qcurve" smooth="yes"/>
      <point x="545.51783836417" y="93.24993865029"/>
      <point x="436.83341772155" y="-21.741538461559998"/>
      <point x="334.165842259" y="-21.741538461559998" type="qcurve" smooth="yes"/>
      <point x="232.81211295035" y="-21.741538461559998"/>
      <point x="123.42769230766001" y="93.5084001888"/>
    </contour>
  </outline>
</glyph>
<glyph name="slash" format="2">
  <advance width="606"/>
  <unicode hex="002F"/>
  <outline>
    <contour>
      <point x="-100.0" y="-125.0" type="line"/>
      <point x="420.89307692305" y="1456.0" type="line"/>
      <point x="700.93407010708" y="1456.0" type="line"/>
      <point x="180.26176241481" y="-125.0" type="line"/>
    </contour>
  </outline>
</glyph>
<glyph name="one" format="2">
  <advance width="1156"/>
  <unicode hex="0031"/>
  <outline>
    <contour>
      <point x="481.9" y="0.0" type="line"/>
      <point x="481.9" y="1128.1" type="line"/>
      <point x="148.2" y="1003.9" type="line"/>
      <point x="148.2" y="1284.4" type="line"/>
      <point x="634.1" y="1471.1" type="line"/>
      <point x="836.3" y="1471.1" type="line"/>
      <point x="836.3" y="0.0" type="line"/>
    </contour>
  </outline>
</glyph>
<glyph name="two" format="2">
  <advance width="1156"/>
  <unicode hex="0032"/>
  <outline>
    <contour>
      <point x="60.300000000000004" y="0.0" type="line"/>
      <point x="60.300000000000004" y="204.39999999999998" type="line"/>
      <point x="546.7" y="767.2" type="line" smooth="yes"/>
      <point x="624.1" y="855.5"/>
      <point x="714.7" y="998.2"/>
      <point x="714.7" y="1073.0" type="qcurve" smooth="yes"/>
      <point x="714.7" y="1139.4"/>
      <point x="644.8" y="1221.6"/>
      <point x="568.9" y="1221.6" type="qcurve" smooth="yes"/>
      <point x="493.0" y="1221.6"/>
      <point x="410.6" y="1117.5"/>
      <point x="410.6" y="1006.9" type="qcurve" smooth="yes"/>
      <point x="410.6" y="971.0" type="line"/>
      <point x="51.2" y="971.0" type="line"/>
      <point x="51.2" y="1014.6" type="line" smooth="yes"/>
      <point x="51.2" y="1225.1"/>
      <point x="325.6" y="1485.3"/>
      <point x="566.8" y="1485.3" type="qcurve" smooth="yes"/>
      <point x="829.8" y="1485.3"/>
      <point x="1079.0" y="1264.0"/>
      <point x="1079.7" y="1085.1" type="qcurve" smooth="yes"/>
      <point x="1079.7" y="936.8"/>
      <point x="929.5" y="718.8"/>
      <point x="824.3" y="599.2" type="qcurve" smooth="yes"/>
      <point x="525.1" y="270.3" type="line"/>
      <point x="1105.7" y="270.3" type="line"/>
      <point x="1105.7" y="0.0" type="line"/>
    </contour>
  </outline>
</glyph>
<glyph name="three" format="2">
  <advance width="1156"/>
  <unicode hex="0033"/>
  <outline>
    <contour>
      <point x="34.5" y="410.1" type="qcurve" smooth="yes"/>
      <point x="34.5" y="437.6" type="line"/>
      <point x="389.2" y="437.6" type="line"/>
      <point x="389.2" y="412.9" type="line" smooth="yes"/>
      <point x="389.2" y="327.2"/>
      <point x="471.5" y="229.5"/>
      <point x="560.8" y="229.5" type="qcurve" smooth="yes"/>
      <point x="650.1" y="229.5"/>
      <point x="735.3" y="330.0"/>
      <point x="735.3" y="435.0" type="qcurve" smooth="yes"/>
      <point x="735.3" y="533.0"/>
      <point x="635.7" y="630.9"/>
      <point x="527.7" y="630.9" type="qcurve" smooth="yes"/>
      <point x="391.0" y="630.9" type="line"/>
      <point x="391.0" y="878.7" type="line"/>
      <point x="519.1" y="878.7" type="line" smooth="yes"/>
      <point x="607.4" y="878.7"/>
      <point x="694.4" y="974.2"/>
      <point x="694.4" y="1061.3" type="qcurve" smooth="yes"/>
      <point x="694.4" y="1141.4"/>
      <point x="626.0" y="1226.5"/>
      <point x="551.7" y="1226.5" type="qcurve" smooth="yes"/>
      <point x="477.0" y="1226.5"/>
      <point x="408.9" y="1142.1"/>
      <point x="408.9" y="1060.8" type="qcurve" smooth="yes"/>
      <point x="408.9" y="1043.1" type="line"/>
      <point x="55.60000000000001" y="1043.1" type="line"/>
      <point x="55.60000000000001" y="1059.4" type="line" smooth="yes"/>
      <point x="55.60000000000001" y="1237.6"/>
      <point x="315.1" y="1486.0"/>
      <point x="561.5" y="1486.0" type="qcurve" smooth="yes"/>
      <point x="819.4" y="1486.0"/>
      <point x="1055.1" y="1260.9"/>
      <point x="1055.1" y="1113.3" type="qcurve" smooth="yes"/>
      <point x="1055.1" y="987.4"/>
      <point x="944.4" y="807.6"/>
      <point x="826.3" y="766.0" type="qcurve"/>
      <point x="826.3" y="762.0" type="line"/>
      <point x="953.7" y="733.5"/>
      <point x="1100.1" y="551.2"/>
      <point x="1100.1" y="417.1" type="qcurve" smooth="yes"/>
      <point x="1100.1" y="211.2"/>
      <point x="822.6" y="-29.3"/>
      <point x="554.5" y="-29.3" type="qcurve" smooth="yes"/>
      <point x="291.2" y="-29.3"/>
      <point x="34.5" y="213.3"/>
    </contour>
  </outline>
</glyph>
<glyph name="four" format="2">
  <advance width="1156"/>
  <unicode hex="0034"/>
  <outline>
    <contour>
      <point x="656.8" y="0.0" type="line"/>
      <point x="656.8" y="393.1" type="line"/>
      <point x="658.9" y="441.6" type="line"/>
      <point x="658.9" y="1003.4" type="line"/>
      <point x="647.6" y="1003.4" type="line"/>
      <point x="355.1" y="568.6" type="line"/>
      <point x="741.4" y="568.6" type="line"/>
      <point x="809.3" y="570.0" type="line"/>
      <point x="1141.6" y="570.0" type="line"/>
      <point x="1141.6" y="308.4" type="line"/>
      <point x="17.1" y="308.4" type="line"/>
      <point x="17.1" y="534.5" type="line"/>
      <point x="662.7" y="1456.0" type="line"/>
      <point x="1006.2" y="1456.0" type="line"/>
      <point x="1006.2" y="0.0" type="line"/>
    </contour>
  </outline>
</glyph>
<glyph name="five" format="2">
  <advance width="1156"/>
  <unicode hex="0035"/>
  <outline>
    <contour>
      <point x="39.800000000000004" y="401.4" type="qcurve" smooth="yes"/>
      <point x="39.800000000000004" y="426.8" type="line"/>
      <point x="397.4" y="426.8" type="line"/>
      <point x="397.4" y="403.5" type="line" smooth="yes"/>
      <point x="397.4" y="320.1"/>
      <point x="489.0" y="229.5"/>
      <point x="574.9" y="229.5" type="qcurve" smooth="yes"/>
      <point x="666.4" y="229.5"/>
      <point x="746.3" y="351.2"/>
      <point x="746.3" y="468.5" type="qcurve" smooth="yes"/>
      <point x="746.3" y="585.1"/>
      <point x="662.2" y="702.0"/>
      <point x="574.9" y="702.0" type="qcurve" smooth="yes"/>
      <point x="505.9" y="702.0"/>
      <point x="419.0" y="641.9"/>
      <point x="385.6" y="595.2" type="qcurve"/>
      <point x="96.1" y="730.0" type="line"/>
      <point x="170.8" y="1456.0" type="line"/>
      <point x="1025.5" y="1456.0" type="line"/>
      <point x="1025.5" y="1183.1" type="line"/>
      <point x="452.8" y="1184.5" type="line"/>
      <point x="424.9" y="904.7" type="line"/>
      <point x="460.9" y="931.9"/>
      <point x="569.0" y="969.5"/>
      <point x="648.3" y="969.5" type="qcurve" smooth="yes"/>
      <point x="853.0" y="969.5"/>
      <point x="1105.0" y="716.0"/>
      <point x="1105.0" y="488.8" type="qcurve" smooth="yes"/>
      <point x="1105.0" y="254.6"/>
      <point x="837.4" y="-29.3"/>
      <point x="575.6" y="-29.3" type="qcurve" smooth="yes"/>
      <point x="308.2" y="-29.3"/>
      <point x="39.800000000000004" y="213.9"/>
    </contour>
  </outline>
</glyph>
<glyph name="six" format="2">
  <advance width="1156"/>
  <unicode hex="0036"/>
  <outline>
    <contour>
      <point x="43.900000000000006" y="604.9" type="qcurve" smooth="yes"/>
      <point x="43.900000000000006" y="643.3" type="line" smooth="yes"/>
      <point x="43.900000000000006" y="1021.2"/>
      <point x="493.7" y="1465.0"/>
      <point x="943.0" y="1465.0" type="qcurve" smooth="yes"/>
      <point x="972.8" y="1465.0" type="line"/>
      <point x="972.8" y="1194.3" type="line"/>
      <point x="945.1" y="1194.3" type="line" smooth="yes"/>
      <point x="674.2" y="1194.3"/>
      <point x="396.4" y="946.6"/>
      <point x="396.4" y="644.9" type="qcurve" smooth="yes"/>
      <point x="396.4" y="597.7" type="line" smooth="yes"/>
      <point x="396.4" y="390.9"/>
      <point x="492.2" y="226.0"/>
      <point x="598.6" y="226.0" type="qcurve" smooth="yes"/>
      <point x="697.3" y="226.0"/>
      <point x="768.7" y="352.3"/>
      <point x="768.7" y="476.6" type="qcurve" smooth="yes"/>
      <point x="768.7" y="594.6"/>
      <point x="692.4" y="727.3"/>
      <point x="595.1" y="727.3" type="qcurve" smooth="yes"/>
      <point x="499.4" y="727.3"/>
      <point x="393.2" y="602.3"/>
      <point x="393.2" y="487.8" type="qcurve"/>
      <point x="277.0" y="487.8" type="line"/>
      <point x="277.0" y="707.8"/>
      <point x="472.2" y="974.9"/>
      <point x="676.4" y="974.9" type="qcurve" smooth="yes"/>
      <point x="891.1" y="974.9"/>
      <point x="1127.4" y="705.0"/>
      <point x="1127.4" y="482.9" type="qcurve" smooth="yes"/>
      <point x="1127.4" y="255.9"/>
      <point x="856.9" y="-29.3"/>
      <point x="597.9" y="-29.3" type="qcurve" smooth="yes"/>
      <point x="357.8" y="-29.3"/>
      <point x="43.900000000000006" y="265.6"/>
    </contour>
  </outline>
</glyph>
<glyph name="seven" format="2">
  <advance width="1156"/>
  <unicode hex="0037"/>
  <outline>
    <contour>
      <point x="197.4" y="0.0" type="line"/>
      <point x="723.9" y="1166.2" type="line"/>
      <point x="36.7" y="1166.2" type="line"/>
      <point x="36.7" y="1456.0" type="line"/>
      <point x="1089.1" y="1456.0" type="line"/>
      <point x="1089.1" y="1214.8" type="line"/>
      <point x="572.6" y="0.0" type="line"/>
    </contour>
  </outline>
</glyph>
<glyph name="eight" format="2">
  <advance width="1156"/>
  <unicode hex="0038"/>
  <outline>
    <contour>
      <point x="36.10000000000001" y="388.8" type="qcurve" smooth="yes"/>
      <point x="36.10000000000001" y="539.1"/>
      <point x="216.9" y="721.3"/>
      <point x="325.4" y="752.3" type="qcurve"/>
      <point x="325.4" y="756.3" type="line"/>
      <point x="221.9" y="797.2"/>
      <point x="83.5" y="967.7"/>
      <point x="83.5" y="1096.1" type="qcurve" smooth="yes"/>
      <point x="83.5" y="1265.6"/>
      <point x="343.0" y="1485.3"/>
      <point x="577.6" y="1485.3" type="qcurve" smooth="yes"/>
      <point x="812.2" y="1485.3"/>
      <point x="1073.2" y="1264.8"/>
      <point x="1073.2" y="1095.4" type="qcurve" smooth="yes"/>
      <point x="1073.2" y="967.7"/>
      <point x="951.2" y="799.3"/>
      <point x="845.6" y="756.3" type="qcurve"/>
      <point x="845.6" y="752.3" type="line"/>
      <point x="955.5" y="725.5"/>
      <point x="1119.9" y="539.1"/>
      <point x="1119.9" y="388.8" type="qcurve" smooth="yes"/>
      <point x="1119.9" y="191.5"/>
      <point x="832.2" y="-29.3"/>
      <point x="577.6" y="-29.3" type="qcurve" smooth="yes"/>
      <point x="323.7" y="-29.3"/>
      <point x="36.10000000000001" y="191.5"/>
    </contour>
    <contour>
      <point x="396.3" y="417.0" type="qcurve" smooth="yes"/>
      <point x="396.3" y="325.7"/>
      <point x="486.8" y="218.3"/>
      <point x="577.6" y="218.3" type="qcurve" smooth="yes"/>
      <point x="668.4" y="218.3"/>
      <point x="759.7" y="325.7"/>
      <point x="759.7" y="417.0" type="qcurve" smooth="yes"/>
      <point x="759.7" y="512.5"/>
      <point x="676.1" y="625.4"/>
      <point x="577.6" y="625.4" type="qcurve" smooth="yes"/>
      <point x="479.1" y="625.4"/>
      <point x="396.3" y="512.5"/>
    </contour>
    <contour>
      <point x="430.6" y="1055.3" type="qcurve" smooth="yes"/>
      <point x="430.6" y="969.8"/>
      <point x="494.2" y="863.9"/>
      <point x="577.6" y="863.9" type="qcurve" smooth="yes"/>
      <point x="661.0" y="863.9"/>
      <point x="725.4" y="969.8"/>
      <point x="725.4" y="1055.3" type="qcurve" smooth="yes"/>
      <point x="725.4" y="1135.9"/>
      <point x="656.1" y="1237.0"/>
      <point x="577.6" y="1237.0" type="qcurve" smooth="yes"/>
      <point x="499.1" y="1237.0"/>
      <point x="430.6" y="1135.9"/>
    </contour>
  </outline>
</glyph>
<glyph name="nine" format="2">
  <advance width="1156"/>
  <unicode hex="0039"/>
  <outline>
    <contour>
      <point x="28.6" y="955.8" type="qcurve" smooth="yes"/>
      <point x="28.6" y="1181.6"/>
      <point x="299.1" y="1465.0"/>
      <point x="558.1" y="1465.0" type="qcurve" smooth="yes"/>
      <point x="798.2" y="1465.0"/>
      <point x="1112.1" y="1170.1"/>
      <point x="1112.1" y="830.8" type="qcurve" smooth="yes"/>
      <point x="1112.1" y="792.4" type="line" smooth="yes"/>
      <point x="1112.1" y="414.5"/>
      <point x="662.3" y="-29.3"/>
      <point x="213.0" y="-29.3" type="qcurve" smooth="yes"/>
      <point x="183.2" y="-29.3" type="line"/>
      <point x="183.2" y="241.39999999999998" type="line"/>
      <point x="210.9" y="241.39999999999998" type="line" smooth="yes"/>
      <point x="481.8" y="241.39999999999998"/>
      <point x="759.6" y="489.1"/>
      <point x="759.6" y="790.8" type="qcurve" smooth="yes"/>
      <point x="759.6" y="838.0" type="line" smooth="yes"/>
      <point x="759.6" y="1044.8"/>
      <point x="663.8" y="1209.7"/>
      <point x="557.4" y="1209.7" type="qcurve" smooth="yes"/>
      <point x="458.7" y="1209.7"/>
      <point x="387.3" y="1084.9"/>
      <point x="387.3" y="962.1" type="qcurve" smooth="yes"/>
      <point x="387.3" y="845.6"/>
      <point x="463.6" y="714.4"/>
      <point x="560.9" y="714.4" type="qcurve" smooth="yes"/>
      <point x="656.6" y="714.4"/>
      <point x="762.8" y="837.9"/>
      <point x="762.8" y="950.9" type="qcurve"/>
      <point x="879.0" y="950.9" type="line"/>
      <point x="879.0" y="732.1"/>
      <point x="683.8" y="466.8"/>
      <point x="479.6" y="466.8" type="qcurve" smooth="yes"/>
      <point x="265.2" y="466.8"/>
      <point x="28.6" y="734.9"/>
    </contour>
  </outline>
</glyph>
<glyph name="colon" format="2">
  <advance width="692"/>
  <unicode hex="003A"/>
  <outline>
    <contour>
      <point x="140.31076923078" y="165.73999999999998" type="qcurve" smooth="yes"/>
      <point x="140.31076923078" y="242.44369230769001"/>
      <point x="246.06498539436998" y="352.26307692305"/>
      <point x="345.80235637782" y="352.26307692305" type="qcurve" smooth="yes"/>
      <point x="444.92588120736997" y="352.26307692305"/>
      <point x="551.99394352486" y="242.44369230769001"/>
      <point x="551.99394352486" y="165.73999999999998" type="qcurve" smooth="yes"/>
      <point x="551.99394352486" y="87.92848635237"/>
      <point x="445.20825043815" y="-21.741538461559998"/>
      <point x="346.03561791626" y="-21.741538461559998" type="qcurve" smooth="yes"/>
      <point x="246.24913924054002" y="-21.741538461559998"/>
      <point x="140.31076923078" y="88.18694789080999"/>
    </contour>
    <contour>
      <point x="140.31076923078" y="907.2476923076599" type="qcurve" smooth="yes"/>
      <point x="140.31076923078" y="984.80598794535"/>
      <point x="246.24913924054002" y="1094.27433846156"/>
      <point x="346.03561791626" y="1094.27433846156" type="qcurve" smooth="yes"/>
      <point x="445.20825043815" y="1094.27433846156"/>
      <point x="551.99394352486" y="984.80598794535"/>
      <point x="551.99394352486" y="907.2476923076599" type="qcurve" smooth="yes"/>
      <point x="551.99394352486" y="829.70676923077"/>
      <point x="444.92588120736997" y="720.4661538461701"/>
      <point x="345.80235637782" y="720.4661538461701" type="qcurve" smooth="yes"/>
      <point x="246.06498539436998" y="720.4661538461701"/>
      <point x="140.31076923078" y="829.9652307692099"/>
    </contour>
  </outline>
</glyph>
<glyph name="semicolon" format="2">
  <advance width="692"/>
  <unicode hex="003B"/>
  <outline>
    <contour>
      <point x="93.27632560859999" y="-234.30461538461" type="line"/>
      <point x="152.10039766313" y="-161.18307692305"/>
      <point x="210.60991236608" y="-1.853846153830002"/>
      <point x="210.25388159686" y="101.24153846156" type="qcurve" smooth="yes"/>
      <point x="209.99606621225" y="324.58" type="line"/>
      <point x="501.56556962026997" y="324.58" type="line"/>
      <point x="501.77427731254" y="101.58615384616999" type="line" smooth="yes"/>
      <point x="501.77427731254" y="-33.51692307695"/>
      <point x="386.89317390458996" y="-264.23384615383"/>
      <point x="286.93426056475" y="-344.01153846156" type="qcurve"/>
    </contour>
    <contour>
      <point x="145.04923076922" y="907.2476923076599" type="qcurve" smooth="yes"/>
      <point x="145.04923076922" y="984.80598794535"/>
      <point x="247.81702902141" y="1094.27433846156"/>
      <point x="344.63561791626" y="1094.27433846156" type="qcurve" smooth="yes"/>
      <point x="440.84413699887" y="1094.27433846156"/>
      <point x="544.4554819863499" y="984.80598794535"/>
      <point x="544.4554819863499" y="907.2476923076599" type="qcurve" smooth="yes"/>
      <point x="544.4554819863499" y="830.1361786600299"/>
      <point x="441.07049659204995" y="720.4661538461701"/>
      <point x="344.40235637782" y="720.4661538461701" type="qcurve" smooth="yes"/>
      <point x="247.73421616359" y="720.4661538461701"/>
      <point x="145.04923076922" y="830.3946401985401"/>
    </contour>
  </outline>
</glyph>
<glyph name="less" format="2">
  <advance width="1051"/>
  <unicode hex="003C"/>
  <outline>
    <contour>
      <point x="942.5" y="171.3" type="line"/>
      <point x="68.5" y="554.5" type="line"/>
      <point x="68.5" y="792.3" type="line"/>
      <point x="942.5" y="1175.5" type="line"/>
      <point x="942.5" y="873.3" type="line"/>
      <point x="452.79999999999995" y="679.1" type="line"/>
      <point x="942.5" y="483.5" type="line"/>
    </contour>
  </outline>
</glyph>
<glyph name="equal" format="2">
  <advance width="1066"/>
  <unicode hex="003D"/>
  <outline>
    <contour>
      <point x="111.47207789680999" y="326.89361246347" type="line"/>
      <point x="111.47207789680999" y="583.9342551119599" type="line"/>
      <point x="954.47284907497" y="583.9342551119599" type="line"/>
      <point x="954.47284907497" y="326.89361246347" type="line"/>
    </contour>
    <contour>
      <point x="111.47207789680999" y="760.9195326192801" type="line"/>
      <point x="111.47207789680999" y="1017.96017526777" type="line"/>
      <point x="954.47284907497" y="1017.96017526777" type="line"/>
      <point x="954.47284907497" y="760.9195326192801" type="line"/>
    </contour>
  </outline>
</glyph>
<glyph name="greater" format="2">
  <advance width="1051"/>
  <unicode hex="003E"/>
  <outline>
    <contour>
      <point x="81.5" y="171.3" type="line"/>
      <point x="81.5" y="473.5" type="line"/>
      <point x="571.2" y="667.7" type="line"/>
      <point x="81.5" y="863.3" type="line"/>
      <point x="81.5" y="1175.5" type="line"/>
      <point x="955.5" y="792.3" type="line"/>
      <point x="955.5" y="554.5" type="line"/>
    </contour>
  </outline>
</glyph>
<glyph name="question" format="2">
  <advance width="1175"/>
  <unicode hex="003F"/>
  <outline>
    <contour>
      <point x="333.39112950343" y="160.72153846156" type="qcurve" smooth="yes"/>
      <point x="333.39112950343" y="235.38461538461002"/>
      <point x="441.49411489772996" y="342.74307692305"/>
      <point x="542.30367049657" y="342.74307692305" type="qcurve" smooth="yes"/>
      <point x="643.81322609541" y="342.74307692305"/>
      <point x="751.21621148978" y="235.38461538461002"/>
      <point x="751.21621148978" y="160.72153846156" type="qcurve" smooth="yes"/>
      <point x="751.21621148978" y="85.35846153844"/>
      <point x="643.81322609541" y="-22.0"/>
      <point x="542.30367049657" y="-22.0" type="qcurve" smooth="yes"/>
      <point x="441.83873028241" y="-22.0"/>
      <point x="333.39112950343" y="85.35846153844"/>
    </contour>
    <contour>
      <point x="86.44923076922001" y="1031.46692307695" type="line"/>
      <point x="86.44923076922001" y="1073.23153846156" type="line" smooth="yes"/>
      <point x="86.44923076922001" y="1270.31846153844"/>
      <point x="356.80413359297" y="1476.0"/>
      <point x="571.52596884129" y="1476.0" type="qcurve" smooth="yes"/>
      <point x="789.21407555987" y="1476.0"/>
      <point x="1066.33247166504" y="1265.14307692305"/>
      <point x="1066.33247166504" y="1068.32769230766" type="qcurve" smooth="yes"/>
      <point x="1066.33247166504" y="929.44923076922"/>
      <point x="927.89932190848" y="747.27384615383"/>
      <point x="835.95237273612" y="684.86769230766" type="qcurve" smooth="yes"/>
      <point x="757.61310652387" y="633.8269230769499"/>
      <point x="716.31691723467" y="504.26923076922003"/>
      <point x="716.31691723467" y="447.54769230766" type="qcurve" smooth="yes"/>
      <point x="716.31691723467" y="434.79076923078003" type="line"/>
      <point x="361.6226044791" y="434.79076923078003" type="line"/>
      <point x="361.6226044791" y="449.52923076922" type="line" smooth="yes"/>
      <point x="361.6226044791" y="566.65153846156"/>
      <point x="429.8" y="745.0"/>
      <point x="535.6" y="826.4" type="qcurve" smooth="yes"/>
      <point x="621.8" y="893.4"/>
      <point x="706.2" y="979.0"/>
      <point x="706.2" y="1059.4" type="qcurve" smooth="yes"/>
      <point x="706.2" y="1148.2"/>
      <point x="643.0" y="1225.8"/>
      <point x="568.7" y="1225.8" type="qcurve" smooth="yes"/>
      <point x="500.7" y="1225.8"/>
      <point x="435.4" y="1147.0"/>
      <point x="435.4" y="1065.3" type="qcurve" smooth="yes"/>
      <point x="435.50135345668" y="1031.46692307695" type="line"/>
    </contour>
  </outline>
</glyph>
<glyph name="at" format="2">
  <advance width="2244"/>
  <unicode hex="0040"/>
  <outline>
    <contour>
      <point x="643.50811411882" y="400.0" type="qcurve" smooth="yes"/>
      <point x="643.7" y="696.1"/>
      <point x="950.6" y="1052.0"/>
      <point x="1145.5" y="1052.0" type="qcurve" smooth="yes"/>
      <point x="1235.5" y="1052.0"/>
      <point x="1362.66951431353" y="986.55076923078"/>
      <point x="1403.79028354431" y="946.0" type="qcurve"/>
      <point x="1614.6624529698" y="946.0" type="line"/>
      <point x="1514.2624529698" y="350.0" type="line" smooth="yes"/>
      <point x="1501.37371956042" y="262.65657613736"/>
      <point x="1550.57385880539" y="192.90461538461"/>
      <point x="1600.90091450831" y="192.81846153844" type="qcurve" smooth="yes"/>
      <point x="1696.8798327775298" y="192.73230769234002"/>
      <point x="1818.20091450831" y="441.39307692305"/>
      <point x="1818.20091450831" y="645.6061538461701" type="qcurve" smooth="yes"/>
      <point x="1818.20091450831" y="889.58695670447"/>
      <point x="1472.95784821658" y="1253.9153846153902"/>
      <point x="1161.4387450827498" y="1253.9153846153902" type="qcurve" smooth="yes"/>
      <point x="853.24587059396" y="1253.9153846153902"/>
      <point x="437.61657565726" y="787.92890288334"/>
      <point x="437.61657565726" y="455.60615384617" type="qcurve" smooth="yes"/>
      <point x="437.61657565726" y="134.6552329361"/>
      <point x="797.37244751703" y="-212.36461538461003"/>
      <point x="1071.0395143135302" y="-212.36461538461003" type="qcurve" smooth="yes"/>
      <point x="1188.24643739048" y="-212.36461538461003"/>
      <point x="1350.61182200587" y="-159.14"/>
      <point x="1405.93951431353" y="-123.22615384617" type="qcurve"/>
      <point x="1405.93951431353" y="-356.86153846156" type="line"/>
      <point x="1346.93760737585" y="-400.72586943961"/>
      <point x="1188.24643739048" y="-446.0"/>
      <point x="1071.0395143135302" y="-446.0" type="qcurve" smooth="yes"/>
      <point x="677.78988782863" y="-446.0"/>
      <point x="104.35076923078" y="40.0"/>
      <point x="104.35076923078" y="460.0" type="qcurve" smooth="yes"/>
      <point x="104.35076923078" y="880.0"/>
      <point x="731.6460416748" y="1486.0"/>
      <point x="1161.4387450827498" y="1486.0" type="qcurve" smooth="yes"/>
      <point x="1599.8060545277601" y="1486.0"/>
      <point x="2143.4166574489" y="1000.0"/>
      <point x="2143.4166574489" y="650.0" type="qcurve" smooth="yes"/>
      <point x="2143.4166574489" y="360.0"/>
      <point x="1814.832261706" y="0.0"/>
      <point x="1573.35390185006" y="0.0" type="qcurve" smooth="yes"/>
      <point x="1462.3849156767099" y="0.0"/>
      <point x="1300.00049074977" y="98.34153846155999"/>
      <point x="1265.61191158717" y="180.0" type="qcurve"/>
      <point x="1222.50013787729" y="97.50692307694999"/>
      <point x="1083.23323349565" y="0.0"/>
      <point x="1006.0625912365799" y="0.0" type="qcurve" smooth="yes"/>
      <point x="839.80905467145" y="0.0"/>
      <point x="643.7" y="220.0"/>
    </contour>
    <contour>
      <point x="946.84720662126" y="402.32615384617003" type="qcurve" smooth="yes"/>
      <point x="946.84720662126" y="309.52384615383"/>
      <point x="1004.7801346609399" y="215.74769230765997"/>
      <point x="1058.64182200587" y="215.74769230765997" type="qcurve" smooth="yes"/>
      <point x="1116.72371333984" y="215.74769230765997"/>
      <point x="1211.93246426487" y="309.02692307694997"/>
      <point x="1231.62145978577" y="427.1" type="qcurve" smooth="yes"/>
      <point x="1288.8387002921" y="802.9184615384399" type="line"/>
      <point x="1264.63793106132" y="822.0569230769499"/>
      <point x="1202.15946952288" y="842.85076923078"/>
      <point x="1170.44100798444" y="842.85076923078" type="qcurve" smooth="yes"/>
      <point x="1074.1508433987399" y="842.85076923078"/>
      <point x="946.84720662126" y="590.66461538461"/>
    </contour>
  </outline>
</glyph>
<glyph name="A" format="2">
  <advance width="1295"/>
  <unicode hex="0041"/>
  <outline>
    <contour>
      <point x="-24.823076923049996" y="0.0" type="line"/>
      <point x="458.05814995134" y="1462.06923076922" type="line"/>
      <point x="840.792788705" y="1462.06923076922" type="line"/>
      <point x="1330.44765725412" y="0.0" type="line"/>
      <point x="948.2485628043" y="0.0" type="line"/>
      <point x="660.68728490749" y="987.4615384615599" type="line" smooth="yes"/>
      <point x="650.30805413827" y="1021.21279454721"/>
      <point x="634.9734387536599" y="1083.06461538461"/>
      <point x="629.8042079844399" y="1113.65230769234" type="qcurve"/>
      <point x="621.7211310613201" y="1113.65230769234" type="line"/>
      <point x="616.5519002921001" y="1083.06461538461"/>
      <point x="601.13113106132" y="1021.23692307695"/>
      <point x="590.92420798444" y="987.54769230766" type="qcurve" smooth="yes"/>
      <point x="298.16153106132" y="0.0" type="line"/>
    </contour>
    <contour>
      <point x="249.80648490749" y="297.55076923078" type="line"/>
      <point x="325.9265628043" y="552.4630769230499" type="line"/>
      <point x="952.1123236611501" y="552.4630769230499" type="line"/>
      <point x="1029.0978586173" y="297.55076923078" type="line"/>
    </contour>
  </outline>
</glyph>
<glyph name="B" format="2">
  <advance width="1362"/>
  <unicode hex="0042"/>
  <outline>
    <contour>
      <point x="149.0" y="0.0" type="line"/>
      <point x="149.0" y="1456.0" type="line"/>
      <point x="709.46982434274" y="1456.0" type="line" smooth="yes"/>
      <point x="960.05521720993" y="1456.0"/>
      <point x="1238.5717211295" y="1267.93230769234"/>
      <point x="1238.5717211295" y="1071.37846153844" type="qcurve" smooth="yes"/>
      <point x="1238.5717211295" y="951.12"/>
      <point x="1139.42308471952" y="795.4363822679"/>
      <point x="1061.7655672833298" y="767.91384615383" type="qcurve"/>
      <point x="1061.7655672833298" y="763.91384615383" type="line"/>
      <point x="1158.15806157979" y="736.32450515574"/>
      <point x="1279.32864420645" y="561.4646153846099"/>
      <point x="1279.32864420645" y="419.48307692304996" type="qcurve" smooth="yes"/>
      <point x="1279.32864420645" y="220.17230769234"/>
      <point x="983.7828125121999" y="0.0"/>
      <point x="737.91905511196" y="0.0" type="qcurve" smooth="yes"/>
    </contour>
    <contour>
      <point x="498.50828588118" y="240.81538461538997" type="line"/>
      <point x="721.80828588118" y="240.81538461538997" type="line" smooth="yes"/>
      <point x="827.72833893161" y="240.81538461538997"/>
      <point x="927.22674741969" y="348.86"/>
      <point x="927.22674741969" y="442.16307692305" type="qcurve" smooth="yes"/>
      <point x="927.22674741969" y="533.98"/>
      <point x="827.72833893161" y="642.12461538461"/>
      <point x="721.80828588118" y="642.12461538461" type="qcurve" smooth="yes"/>
      <point x="498.50828588118" y="642.12461538461" type="line"/>
    </contour>
    <contour>
      <point x="498.50828588118" y="867.06923076922" type="line"/>
      <point x="694.04828588118" y="867.06923076922" type="line" smooth="yes"/>
      <point x="798.9148979925" y="867.06923076922"/>
      <point x="890.5190551119599" y="958.23384615383"/>
      <point x="890.5190551119599" y="1040.64307692305" type="qcurve" smooth="yes"/>
      <point x="890.5190551119599" y="1123.05230769234"/>
      <point x="798.9148979925" y="1213.28923076922"/>
      <point x="694.04828588118" y="1213.28923076922" type="qcurve" smooth="yes"/>
      <point x="498.50828588118" y="1213.28923076922" type="line"/>
    </contour>
  </outline>
</glyph>
<glyph name="C" format="2">
  <advance width="1418"/>
  <unicode hex="0043"/>
  <outline>
    <contour>
      <point x="93.3" y="682.7" type="qcurve" smooth="yes"/>
      <point x="93.3" y="773.3" type="line" smooth="yes"/>
      <point x="93.3" y="1127.5"/>
      <point x="460.0" y="1485.3"/>
      <point x="761.3" y="1485.3" type="qcurve" smooth="yes"/>
      <point x="1043.0" y="1485.3"/>
      <point x="1375.8" y="1196.1"/>
      <point x="1375.8" y="961.5" type="qcurve" smooth="yes"/>
      <point x="1375.8" y="931.9" type="line"/>
      <point x="1019.3" y="931.9" type="line"/>
      <point x="1019.3" y="967.1" type="line" smooth="yes"/>
      <point x="1019.3" y="1094.9"/>
      <point x="889.7" y="1220.5"/>
      <point x="757.1" y="1220.5" type="qcurve" smooth="yes"/>
      <point x="620.1" y="1220.5"/>
      <point x="457.4" y="1040.8"/>
      <point x="457.4" y="819.5" type="qcurve" smooth="yes"/>
      <point x="457.4" y="636.5" type="line" smooth="yes"/>
      <point x="457.4" y="430.9"/>
      <point x="614.9" y="234.8"/>
      <point x="762.7" y="234.8" type="qcurve" smooth="yes"/>
      <point x="889.9" y="234.8"/>
      <point x="1014.8" y="371.1"/>
      <point x="1019.0" y="491.0" type="qcurve" smooth="yes"/>
      <point x="1019.3" y="523.4" type="line"/>
      <point x="1375.8" y="523.4" type="line"/>
      <point x="1375.5" y="491.0" type="line" smooth="yes"/>
      <point x="1369.5" y="260.2"/>
      <point x="1043.0" y="-29.3"/>
      <point x="761.3" y="-29.3" type="qcurve" smooth="yes"/>
      <point x="457.9" y="-29.3"/>
      <point x="93.3" y="332.7"/>
    </contour>
  </outline>
</glyph>
<glyph name="D" format="2">
  <advance width="1458"/>
  <unicode hex="0044"/>
  <outline>
    <contour>
      <point x="149.0" y="0.0" type="line"/>
      <point x="149.0" y="1456.0" type="line"/>
      <point x="660.38473846156" y="1456.0" type="line" smooth="yes"/>
      <point x="959.3466495960199" y="1456.0"/>
      <point x="1364.9" y="1100.7"/>
      <point x="1365.00118714704" y="773.8276923076601" type="qcurve" smooth="yes"/>
      <point x="1365.00118714704" y="683.03384615383" type="line" smooth="yes"/>
      <point x="1364.9" y="356.0"/>
      <point x="958.82972651914" y="0.0"/>
      <point x="660.38473846156" y="0.0" type="qcurve" smooth="yes"/>
    </contour>
    <contour>
      <point x="499.39858461538995" y="256.63538461539" type="line"/>
      <point x="654.0093538461699" y="256.63538461539" type="line" smooth="yes"/>
      <point x="808.41503689219" y="256.63538461539"/>
      <point x="1004.3" y="462.6"/>
      <point x="1004.5631999999999" y="674.16" type="qcurve" smooth="yes"/>
      <point x="1004.5631999999999" y="781.49538461539" type="line" smooth="yes"/>
      <point x="1004.3" y="993.4"/>
      <point x="808.6734984307" y="1197.64153846156"/>
      <point x="654.0093538461699" y="1197.64153846156" type="qcurve" smooth="yes"/>
      <point x="499.39858461538995" y="1197.64153846156" type="line"/>
    </contour>
  </outline>
</glyph>
<glyph name="E" format="2">
  <advance width="1230"/>
  <unicode hex="0045"/>
  <outline>
    <contour>
      <point x="149.0" y="0.0" type="line"/>
      <point x="149.0" y="1456.0" type="line"/>
      <point x="1156.0934239532498" y="1456.0" type="line"/>
      <point x="1156.0934239532498" y="1192.9892307692198" type="line"/>
      <point x="498.53704615383003" y="1192.9892307692198" type="line"/>
      <point x="498.53704615383003" y="877.51384615383" type="line"/>
      <point x="1065.29957779942" y="877.51384615383" type="line"/>
      <point x="1065.29957779942" y="619.83384615383" type="line"/>
      <point x="498.53704615383003" y="619.83384615383" type="line"/>
      <point x="498.53704615383003" y="261.28769230766" type="line"/>
      <point x="1166.9549624148099" y="261.28769230766" type="line"/>
      <point x="1166.9549624148099" y="0.0" type="line"/>
    </contour>
  </outline>
</glyph>
<glyph name="F" format="2">
  <advance width="1191"/>
  <unicode hex="0046"/>
  <outline>
    <contour>
      <point x="149.0" y="0.0" type="line"/>
      <point x="149.0" y="1456.0" type="line"/>
      <point x="1139.37650087637" y="1456.0" type="line"/>
      <point x="1139.37650087637" y="1193.07538461539" type="line"/>
      <point x="501.12166153844" y="1193.07538461539" type="line"/>
      <point x="501.12166153844" y="823.4430769230501" type="line"/>
      <point x="1061.61342395325" y="823.4430769230501" type="line"/>
      <point x="1061.61342395325" y="564.74" type="line"/>
      <point x="501.12166153844" y="564.74" type="line"/>
      <point x="501.12166153844" y="0.0" type="line"/>
    </contour>
  </outline>
</glyph>
<glyph name="G" format="2">
  <advance width="1447"/>
  <unicode hex="0047"/>
  <outline>
    <contour>
      <point x="93.3" y="682.7" type="qcurve" smooth="yes"/>
      <point x="93.3" y="773.3" type="line" smooth="yes"/>
      <point x="93.3" y="1127.5"/>
      <point x="460.7" y="1485.3"/>
      <point x="765.9" y="1485.3" type="qcurve" smooth="yes"/>
      <point x="1044.4" y="1485.3"/>
      <point x="1369.5" y="1221.0"/>
      <point x="1365.2" y="1015.1" type="qcurve" smooth="yes"/>
      <point x="1364.8" y="999.9" type="line"/>
      <point x="1009.7" y="999.9" type="line"/>
      <point x="1009.7" y="1011.3" type="line" smooth="yes"/>
      <point x="1009.7" y="1102.9"/>
      <point x="882.5" y="1221.2"/>
      <point x="750.6" y="1221.2" type="qcurve" smooth="yes"/>
      <point x="617.0" y="1221.2"/>
      <point x="455.29999999999995" y="1027.9"/>
      <point x="455.29999999999995" y="818.1" type="qcurve" smooth="yes"/>
      <point x="455.29999999999995" y="637.9" type="line" smooth="yes"/>
      <point x="455.29999999999995" y="421.1"/>
      <point x="636.6" y="232.7"/>
      <point x="788.5" y="232.7" type="qcurve" smooth="yes"/>
      <point x="862.8" y="232.7"/>
      <point x="967.5" y="264.0"/>
      <point x="1018.5" y="300.0" type="qcurve"/>
      <point x="1018.5" y="527.3" type="line"/>
      <point x="768.5" y="527.3" type="line"/>
      <point x="768.5" y="782.6" type="line"/>
      <point x="1365.5" y="782.6" type="line"/>
      <point x="1365.5" y="183.8" type="line"/>
      <point x="1286.3" y="104.0"/>
      <point x="998.8" y="-29.3"/>
      <point x="787.8" y="-29.3" type="qcurve" smooth="yes"/>
      <point x="461.4" y="-29.3"/>
      <point x="93.3" y="328.5"/>
    </contour>
  </outline>
</glyph>
<glyph name="H" format="2">
  <advance width="1528"/>
  <unicode hex="0048"/>
  <outline>
    <contour>
      <point x="149.0" y="0.0" type="line"/>
      <point x="149.0" y="1456.0" type="line"/>
      <point x="501.29999999999995" y="1456.0" type="line"/>
      <point x="501.29999999999995" y="883.2" type="line"/>
      <point x="1028.8" y="883.2" type="line"/>
      <point x="1028.8" y="1456.0" type="line"/>
      <point x="1380.4" y="1456.0" type="line"/>
      <point x="1380.4" y="0.0" type="line"/>
      <point x="1028.8" y="0.0" type="line"/>
      <point x="1028.8" y="617.4" type="line"/>
      <point x="501.29999999999995" y="617.4" type="line"/>
      <point x="501.29999999999995" y="0.0" type="line"/>
    </contour>
  </outline>
</glyph>
<glyph name="I" format="2">
  <advance width="637"/>
  <unicode hex="0049"/>
  <outline>
    <contour>
      <point x="142.01384615383" y="0.0" type="line"/>
      <point x="142.01384615383" y="1456.0" type="line"/>
      <point x="494.99704615382996" y="1456.0" type="line"/>
      <point x="494.99704615382996" y="0.0" type="line"/>
    </contour>
  </outline>
</glyph>
<glyph name="J" format="2">
  <advance width="1204"/>
  <unicode hex="004A"/>
  <outline>
    <contour>
      <point x="25.0" y="467.9" type="qcurve" smooth="yes"/>
      <point x="25.0" y="486.3" type="line"/>
      <point x="370.29999999999995" y="486.3" type="line"/>
      <point x="370.29999999999995" y="459.5" type="line" smooth="yes"/>
      <point x="370.29999999999995" y="324.6"/>
      <point x="453.8" y="232.0"/>
      <point x="539.6" y="232.0" type="qcurve" smooth="yes"/>
      <point x="626.1" y="232.0"/>
      <point x="710.3" y="331.2"/>
      <point x="710.3" y="476.1" type="qcurve" smooth="yes"/>
      <point x="710.3" y="1456.0" type="line"/>
      <point x="1062.6" y="1456.0" type="line"/>
      <point x="1062.6" y="512.5" type="line" smooth="yes"/>
      <point x="1062.6" y="247.9"/>
      <point x="785.9" y="-29.3"/>
      <point x="543.8" y="-29.3" type="qcurve" smooth="yes"/>
      <point x="303.1" y="-29.3"/>
      <point x="25.0" y="209.8"/>
    </contour>
  </outline>
</glyph>
<glyph name="K" format="2">
  <advance width="1334"/>
  <unicode hex="004B"/>
  <outline>
    <contour>
      <point x="149.0" y="0.0" type="line"/>
      <point x="149.0" y="1456.0" type="line"/>
      <point x="501.12166153844" y="1456.0" type="line"/>
      <point x="501.12166153844" y="894.18846153844" type="line"/>
      <point x="965.4718208374001" y="1456.0" type="line"/>
      <point x="1331.3221483933798" y="1456.0" type="line"/>
      <point x="501.12166153844" y="484.79384615383003" type="line"/>
      <point x="501.12166153844" y="0.0" type="line"/>
    </contour>
    <contour>
      <point x="943.6" y="0.0" type="line"/>
      <point x="497.9" y="686.7" type="line"/>
      <point x="730.45933709831" y="940.37055501464" type="line"/>
      <point x="1378.32600038949" y="0.0" type="line"/>
    </contour>
  </outline>
</glyph>
<glyph name="L" format="2">
  <advance width="1150"/>
  <unicode hex="004C"/>
  <outline>
    <contour>
      <point x="149.0" y="0.0" type="line"/>
      <point x="149.0" y="1456.0" type="line"/>
      <point x="501.12166153844" y="1456.0" type="line"/>
      <point x="501.12166153844" y="263.01076923078" type="line"/>
      <point x="1118.37550769234" y="263.01076923078" type="line"/>
      <point x="1118.37550769234" y="0.0" type="line"/>
    </contour>
  </outline>
</glyph>
<glyph name="M" format="2">
  <advance width="1812"/>
  <unicode hex="004D"/>
  <outline>
    <contour>
      <point x="149.0" y="0.0" type="line"/>
      <point x="149.0" y="1456.0" type="line"/>
      <point x="612.39650243426" y="1456.0" type="line"/>
      <point x="871.0" y="608.8" type="line" smooth="yes"/>
      <point x="880.9" y="573.2"/>
      <point x="899.8" y="480.9"/>
      <point x="905.0" y="441.1" type="qcurve"/>
      <point x="910.9" y="441.1" type="line"/>
      <point x="916.8" y="480.9"/>
      <point x="935.0" y="573.2"/>
      <point x="945.6" y="608.8" type="qcurve" smooth="yes"/>
      <point x="1206.14889230766" y="1456.0" type="line"/>
      <point x="1678.0997518987201" y="1456.0" type="line"/>
      <point x="1678.0997518987201" y="0.0" type="line"/>
      <point x="1327.9112307692199" y="0.0" type="line"/>
      <point x="1327.9112307692199" y="853.58858812073" type="line" smooth="yes"/>
      <point x="1327.9112307692199" y="888.40243427456"/>
      <point x="1331.0" y="971.6"/>
      <point x="1334.3" y="1005.8" type="qcurve"/>
      <point x="1326.3" y="1005.8" type="line"/>
      <point x="1321.7" y="971.6"/>
      <point x="1302.46969230766" y="888.48858812073"/>
      <point x="1291.82123076922" y="853.58858812073" type="qcurve" smooth="yes"/>
      <point x="1019.34981538461" y="0.0" type="line"/>
      <point x="734.8784264849" y="0.0" type="line"/>
      <point x="465.50827692304995" y="853.3404868549401" type="line" smooth="yes"/>
      <point x="454.92184070103997" y="888.30251217137"/>
      <point x="435.6" y="971.6"/>
      <point x="430.3" y="1005.8" type="qcurve"/>
      <point x="422.3" y="1005.8" type="line"/>
      <point x="425.6" y="971.6"/>
      <point x="428.63212307695" y="888.15433300877"/>
      <point x="428.63212307695" y="853.3404868549401" type="qcurve" smooth="yes"/>
      <point x="428.63212307695" y="0.0" type="line"/>
    </contour>
  </outline>
</glyph>
<glyph name="N" format="2">
  <advance width="1459"/>
  <unicode hex="004E"/>
  <outline>
    <contour>
      <point x="149.0" y="0.0" type="line"/>
      <point x="149.0" y="1456.0" type="line"/>
      <point x="540.1" y="1456.0" type="line"/>
      <point x="966.7" y="620.1" type="line" smooth="yes"/>
      <point x="981.8" y="589.4"/>
      <point x="1004.9" y="539.2"/>
      <point x="1015.5" y="505.79999999999995" type="qcurve"/>
      <point x="1023.5" y="505.79999999999995" type="line"/>
      <point x="1021.8" y="540.7"/>
      <point x="1020.8" y="594.7"/>
      <point x="1020.8" y="630.3" type="qcurve" smooth="yes"/>
      <point x="1020.8" y="1456.0" type="line"/>
      <point x="1317.3" y="1456.0" type="line"/>
      <point x="1317.3" y="0.0" type="line"/>
      <point x="915.7" y="0.0" type="line"/>
      <point x="496.8" y="838.7" type="line" smooth="yes"/>
      <point x="481.7" y="869.4"/>
      <point x="459.6" y="925.2"/>
      <point x="449.8" y="957.9" type="qcurve"/>
      <point x="442.1" y="957.9" type="line"/>
      <point x="443.8" y="923.0"/>
      <point x="445.5" y="857.1"/>
      <point x="445.5" y="822.2" type="qcurve" smooth="yes"/>
      <point x="445.5" y="0.0" type="line"/>
    </contour>
  </outline>
</glyph>
<glyph name="O" format="2">
  <advance width="1524"/>
  <unicode hex="004F"/>
  <outline>
    <contour>
      <point x="93.3" y="682.7" type="qcurve" smooth="yes"/>
      <point x="93.3" y="773.3" type="line" smooth="yes"/>
      <point x="93.3" y="1126.1"/>
      <point x="465.6" y="1485.3"/>
      <point x="760.1" y="1485.3" type="qcurve" smooth="yes"/>
      <point x="1053.9" y="1485.3"/>
      <point x="1431.1" y="1126.1"/>
      <point x="1431.1" y="773.3" type="qcurve" smooth="yes"/>
      <point x="1431.1" y="682.7" type="line" smooth="yes"/>
      <point x="1431.1" y="329.9"/>
      <point x="1053.9" y="-29.3"/>
      <point x="760.1" y="-29.3" type="qcurve" smooth="yes"/>
      <point x="465.6" y="-29.3"/>
      <point x="93.3" y="329.9"/>
    </contour>
    <contour>
      <point x="456.0" y="643.5" type="line" smooth="yes"/>
      <point x="456.0" y="428.8"/>
      <point x="619.8" y="234.8"/>
      <point x="760.1" y="234.8" type="qcurve" smooth="yes"/>
      <point x="901.1" y="234.8"/>
      <point x="1069.1" y="428.8"/>
      <point x="1069.1" y="643.5" type="qcurve" smooth="yes"/>
      <point x="1069.1" y="811.8" type="line" smooth="yes"/>
      <point x="1069.1" y="1027.2"/>
      <point x="901.1" y="1220.5"/>
      <point x="760.1" y="1220.5" type="qcurve" smooth="yes"/>
      <point x="619.8" y="1220.5"/>
      <point x="456.0" y="1027.2"/>
      <point x="456.0" y="811.8" type="qcurve" smooth="yes"/>
    </contour>
  </outline>
</glyph>
<glyph name="P" format="2">
  <advance width="1320"/>
  <unicode hex="0050"/>
  <outline>
    <contour>
      <point x="149.0" y="0.0" type="line"/>
      <point x="149.0" y="1456.0" type="line"/>
      <point x="733.2" y="1456.0" type="line" smooth="yes"/>
      <point x="992.8" y="1456.0"/>
      <point x="1272.5" y="1210.8"/>
      <point x="1272.5" y="973.7" type="qcurve" smooth="yes"/>
      <point x="1272.5" y="737.3"/>
      <point x="993.5" y="488.1"/>
      <point x="732.5" y="488.1" type="qcurve" smooth="yes"/>
      <point x="501.29999999999995" y="488.1" type="line"/>
      <point x="501.29999999999995" y="0.0" type="line"/>
    </contour>
    <contour>
      <point x="501.29999999999995" y="744.8" type="line"/>
      <point x="694.0" y="744.8" type="line" smooth="yes"/>
      <point x="823.4" y="744.8"/>
      <point x="920.9" y="860.0"/>
      <point x="920.9" y="973.0" type="qcurve" smooth="yes"/>
      <point x="920.9" y="1084.6"/>
      <point x="823.4" y="1197.2"/>
      <point x="694.0" y="1197.2" type="qcurve" smooth="yes"/>
      <point x="501.29999999999995" y="1197.2" type="line"/>
    </contour>
  </outline>
</glyph>
<glyph name="Q" format="2">
  <advance width="1524"/>
  <unicode hex="0051"/>
  <outline>
    <contour>
      <point x="93.16" y="682.60307692305" type="qcurve" smooth="yes"/>
      <point x="93.16" y="773.39692307695" type="line" smooth="yes"/>
      <point x="93.3" y="1126.1"/>
      <point x="466.61632366115" y="1485.13846153844"/>
      <point x="760.7456794546999" y="1485.13846153844" type="qcurve" smooth="yes"/>
      <point x="1054.96118909442" y="1485.13846153844"/>
      <point x="1429.7" y="1126.1"/>
      <point x="1429.7313589094701" y="773.39692307695" type="qcurve" smooth="yes"/>
      <point x="1429.7313589094701" y="682.60307692305" type="line" smooth="yes"/>
      <point x="1429.7" y="329.9"/>
      <point x="1054.96118909442" y="-29.13846153844"/>
      <point x="760.7456794546999" y="-29.13846153844" type="qcurve" smooth="yes"/>
      <point x="466.61632366115" y="-29.13846153844"/>
      <point x="93.3" y="329.9"/>
    </contour>
    <contour>
      <point x="456.0" y="650.5" type="line" smooth="yes"/>
      <point x="456.0" y="434.4"/>
      <point x="620.54260253165" y="234.83230769234"/>
      <point x="760.7456794546999" y="234.83230769234" type="qcurve" smooth="yes"/>
      <point x="901.6487563778201" y="234.83230769234"/>
      <point x="1067.7" y="434.4"/>
      <point x="1067.7" y="650.5" type="qcurve" smooth="yes"/>
      <point x="1067.7" y="804.8" type="line" smooth="yes"/>
      <point x="1067.7" y="1020.9"/>
      <point x="901.6487563778201" y="1220.30615384617"/>
      <point x="760.7456794546999" y="1220.30615384617" type="qcurve" smooth="yes"/>
      <point x="620.54260253165" y="1220.30615384617"/>
      <point x="456.0" y="1020.9"/>
      <point x="456.0" y="804.8" type="qcurve" smooth="yes"/>
    </contour>
    <contour>
      <point x="1182.05737098345" y="-294.45538461539" type="line"/>
      <point x="782.46828588118" y="25.33692307695" type="line"/>
      <point x="1011.59838286272" y="246.27999999999997" type="line"/>
      <point x="1416.01516027265" y="-68.85692307695001" type="line"/>
    </contour>
  </outline>
</glyph>
<glyph name="R" format="2">
  <advance width="1334"/>
  <unicode hex="0052"/>
  <outline>
    <contour>
      <point x="149.0" y="0.0" type="line"/>
      <point x="149.0" y="1456.0" type="line"/>
      <point x="702.1944366115" y="1456.0" type="line" smooth="yes"/>
      <point x="965.61357100258" y="1456.0"/>
      <point x="1262.9" y="1212.2"/>
      <point x="1263.00994430377" y="983.87846153844" type="qcurve" smooth="yes"/>
      <point x="1262.9" y="753.5"/>
      <point x="963.13693216273" y="502.55846153844"/>
      <point x="701.4190519961099" y="502.55846153844" type="qcurve" smooth="yes"/>
      <point x="501.12166153844" y="502.55846153844" type="line"/>
      <point x="501.12166153844" y="0.0" type="line"/>
    </contour>
    <contour>
      <point x="501.12166153844" y="756.18153846156" type="line"/>
      <point x="687.46212891916" y="756.18153846156" type="line" smooth="yes"/>
      <point x="808.50801249509" y="756.18153846156"/>
      <point x="910.6" y="872.8"/>
      <point x="910.98520584228" y="980.26" type="qcurve" smooth="yes"/>
      <point x="911.3" y="1086.6"/>
      <point x="808.50801249509" y="1198.84461538461"/>
      <point x="687.46212891916" y="1198.84461538461" type="qcurve" smooth="yes"/>
      <point x="501.12166153844" y="1198.84461538461" type="line"/>
    </contour>
    <contour>
      <point x="920.90101187927" y="0.0" type="line"/>
      <point x="596.72408880232" y="671.56923076922" type="line"/>
      <point x="978.29212074001" y="671.56923076922" type="line"/>
      <point x="1315.39058227845" y="0.0" type="line"/>
    </contour>
  </outline>
</glyph>
<glyph name="S" format="2">
  <advance width="1305"/>
  <unicode hex="0053"/>
  <outline>
    <contour>
      <point x="67.90153846156001" y="419.56" type="qcurve" smooth="yes"/>
      <point x="67.90153846156001" y="451.32153846156" type="line"/>
      <point x="428.25089230765997" y="451.32153846156" type="line"/>
      <point x="428.25089230765997" y="424.90153846156" type="line" smooth="yes"/>
      <point x="428.16473846156" y="327.86384615383"/>
      <point x="550.68704615383" y="230.77769230766"/>
      <point x="660.66396923078" y="230.77769230766" type="qcurve" smooth="yes"/>
      <point x="769.77935384617" y="230.77769230766"/>
      <point x="886.3" y="316.2"/>
      <point x="886.3" y="387.7" type="qcurve" smooth="yes"/>
      <point x="886.3" y="459.7"/>
      <point x="776.6" y="541.9"/>
      <point x="569.3" y="592.5" type="qcurve" smooth="yes"/>
      <point x="343.9" y="647.5"/>
      <point x="87.80000000000001" y="859.8"/>
      <point x="87.39745705941" y="1051.38726387538" type="qcurve" smooth="yes"/>
      <point x="87.1" y="1253.7"/>
      <point x="395.51283972734996" y="1484.96615384617"/>
      <point x="651.98858461539" y="1484.96615384617" type="qcurve" smooth="yes"/>
      <point x="907.3833250243299" y="1484.96615384617"/>
      <point x="1217.7" y="1246.6"/>
      <point x="1217.40255384617" y="1043.30153846156" type="qcurve" smooth="yes"/>
      <point x="1217.40255384617" y="1013.00461538461" type="line"/>
      <point x="864.91473846156" y="1013.00461538461" type="line"/>
      <point x="864.91473846156" y="1038.39076923078" type="line" smooth="yes"/>
      <point x="864.91473846156" y="1121.71153846156"/>
      <point x="758.4" y="1224.0"/>
      <point x="653.4" y="1224.0" type="qcurve" smooth="yes"/>
      <point x="548.4" y="1224.0"/>
      <point x="449.29999999999995" y="1147.5"/>
      <point x="449.29999999999995" y="1081.7" type="qcurve" smooth="yes"/>
      <point x="449.29999999999995" y="1014.7"/>
      <point x="558.0" y="950.9"/>
      <point x="761.9" y="897.5" type="qcurve" smooth="yes"/>
      <point x="984.0" y="839.2"/>
      <point x="1246.4" y="625.1"/>
      <point x="1246.87922531643" y="419.23994157741004" type="qcurve" smooth="yes"/>
      <point x="1247.1" y="200.7"/>
      <point x="924.20575034083" y="-29.13846153844"/>
      <point x="661.5255076923399" y="-29.13846153844" type="qcurve" smooth="yes"/>
      <point x="401.0940794547" y="-29.13846153844"/>
      <point x="67.6" y="196.5"/>
    </contour>
  </outline>
</glyph>
<glyph name="T" format="2">
  <advance width="1235"/>
  <unicode hex="0054"/>
  <outline>
    <contour>
      <point x="22.27692307695" y="1192.9892307692198" type="line"/>
      <point x="22.27692307695" y="1456.0" type="line"/>
      <point x="1213.7549624148098" y="1456.0" type="line"/>
      <point x="1213.7549624148098" y="1192.9892307692198" type="line"/>
      <point x="794.59369659205" y="1192.9892307692198" type="line"/>
      <point x="794.59369659205" y="0.0" type="line"/>
      <point x="441.61049659204997" y="0.0" type="line"/>
      <point x="441.61049659204997" y="1192.9892307692198" type="line"/>
    </contour>
  </outline>
</glyph>
<glyph name="U" format="2">
  <advance width="1438"/>
  <unicode hex="0055"/>
  <outline>
    <contour>
      <point x="130.5" y="559.6" type="qcurve" smooth="yes"/>
      <point x="130.5" y="1456.0" type="line"/>
      <point x="482.1" y="1456.0" type="line"/>
      <point x="482.1" y="536.5" type="line" smooth="yes"/>
      <point x="482.1" y="362.3"/>
      <point x="614.6" y="234.8"/>
      <point x="723.3" y="234.8" type="qcurve" smooth="yes"/>
      <point x="832.0" y="234.8"/>
      <point x="964.5" y="363.0"/>
      <point x="964.5" y="536.5" type="qcurve" smooth="yes"/>
      <point x="964.5" y="1456.0" type="line"/>
      <point x="1306.3" y="1456.0" type="line"/>
      <point x="1306.3" y="559.6" type="line" smooth="yes"/>
      <point x="1306.3" y="250.8"/>
      <point x="968.5" y="-29.3"/>
      <point x="719.8" y="-29.3" type="qcurve" smooth="yes"/>
      <point x="469.7" y="-29.3"/>
      <point x="130.5" y="250.8"/>
    </contour>
  </outline>
</glyph>
<glyph name="V" format="2">
  <advance width="1252"/>
  <unicode hex="0056"/>
  <outline>
    <contour>
      <point x="-38.76923076922" y="1456.0" type="line"/>
      <point x="346.67780603699" y="1456.0" type="line"/>
      <point x="620.1" y="501.9" type="line" smooth="yes"/>
      <point x="627.9" y="475.9"/>
      <point x="638.3" y="431.2"/>
      <point x="644.5" y="399.1" type="qcurve"/>
      <point x="652.8" y="399.1" type="line"/>
      <point x="659.0" y="431.2"/>
      <point x="670.4" y="476.6"/>
      <point x="678.2" y="501.9" type="qcurve" smooth="yes"/>
      <point x="960.56946407009" y="1456.0" type="line"/>
      <point x="1291.26108938659" y="1456.0" type="line"/>
      <point x="820.2441663096399" y="-2.6446153846100007" type="line"/>
      <point x="435.04769230766" y="-2.6446153846100007" type="line"/>
    </contour>
  </outline>
</glyph>
<glyph name="W" format="2">
  <advance width="1909"/>
  <unicode hex="0057"/>
  <outline>
    <contour>
      <point x="331.91668782863" y="-1.8692307692199996" type="line"/>
      <point x="22.107692307660002" y="1456.0" type="line"/>
      <point x="371.10583524832" y="1456.0" type="line"/>
      <point x="550.9" y="515.2" type="line" smooth="yes"/>
      <point x="557.5" y="480.5"/>
      <point x="563.8" y="440.2"/>
      <point x="567.1" y="405.79999999999995" type="qcurve"/>
      <point x="575.7" y="405.79999999999995" type="line"/>
      <point x="579.0" y="440.2"/>
      <point x="583.9" y="480.5"/>
      <point x="590.8" y="515.2" type="qcurve" smooth="yes"/>
      <point x="786.35118909442" y="1456.0" type="line"/>
      <point x="1171.3437748782799" y="1456.0" type="line"/>
      <point x="1380.9" y="517.3" type="line" smooth="yes"/>
      <point x="1388.5" y="482.6"/>
      <point x="1393.4" y="440.2"/>
      <point x="1396.7" y="405.79999999999995" type="qcurve"/>
      <point x="1405.0" y="405.79999999999995" type="line"/>
      <point x="1408.3" y="440.2"/>
      <point x="1414.9" y="482.6"/>
      <point x="1420.8" y="517.3" type="qcurve" smooth="yes"/>
      <point x="1587.59210671858" y="1456.0" type="line"/>
      <point x="1887.26207594936" y="1456.0" type="line"/>
      <point x="1573.82902979553" y="-1.8692307692199996" type="line"/>
      <point x="1184.76057565726" y="-1.8692307692199996" type="line"/>
      <point x="979.7" y="937.7" type="line" smooth="yes"/>
      <point x="972.1" y="972.4"/>
      <point x="963.3" y="1026.4"/>
      <point x="960.4" y="1060.8" type="qcurve"/>
      <point x="952.4" y="1060.8" type="line"/>
      <point x="949.5" y="1026.4"/>
      <point x="941.4" y="972.4"/>
      <point x="933.8" y="937.7" type="qcurve" smooth="yes"/>
      <point x="728.98409036028" y="-1.8692307692199996" type="line"/>
    </contour>
  </outline>
</glyph>
<glyph name="X" format="2">
  <advance width="1233"/>
  <unicode hex="0058"/>
  <outline>
    <contour>
      <point x="-5.099999999999998" y="0.0" type="line"/>
      <point x="475.99538461539" y="826.27846153844" type="line"/>
      <point x="556.11253164559" y="826.27846153844" type="line"/>
      <point x="880.4471470302" y="1456.0" type="line"/>
      <point x="1203.47737098345" y="1456.0" type="line"/>
      <point x="760.84352482962" y="659.23076923078" type="line"/>
      <point x="681.11945472247" y="659.23076923078" type="line"/>
      <point x="331.23022395325" y="0.0" type="line"/>
    </contour>
    <contour>
      <point x="15.958461538440005" y="1456.0" type="line"/>
      <point x="423.33737098345" y="1456.0" type="line"/>
      <point x="757.81660175267" y="832.57846153844" type="line"/>
      <point x="758.3342940604" y="832.57846153844" type="line"/>
      <point x="1236.81275559884" y="0.0" type="line"/>
      <point x="822.0407692307799" y="0.0" type="line"/>
      <point x="472.21076923078" y="646.24307692305" type="line"/>
      <point x="471.91384615383004" y="646.24307692305" type="line"/>
    </contour>
  </outline>
</glyph>
<glyph name="Y" format="2">
  <advance width="1255"/>
  <unicode hex="0059"/>
  <outline>
    <contour>
      <point x="452.89767166504" y="0.0" type="line"/>
      <point x="452.89767166504" y="503.93437195714" type="line"/>
      <point x="-19.030769230779995" y="1456.0" type="line"/>
      <point x="376.37907809152" y="1456.0" type="line"/>
      <point x="604.5" y="942.2" type="line" smooth="yes"/>
      <point x="617.0" y="914.3"/>
      <point x="638.4" y="859.4"/>
      <point x="647.3" y="831.7" type="qcurve"/>
      <point x="654.7" y="831.7" type="line"/>
      <point x="663.6" y="859.4"/>
      <point x="685.0" y="912.9"/>
      <point x="698.2" y="942.2" type="qcurve" smooth="yes"/>
      <point x="932.45012424535" y="1456.0" type="line"/>
      <point x="1261.61429795523" y="1456.0" type="line"/>
      <point x="805.88087166504" y="527.4153846153899" type="line"/>
      <point x="805.88087166504" y="0.0" type="line"/>
    </contour>
  </outline>
</glyph>
<glyph name="Z" format="2">
  <advance width="1191"/>
  <unicode hex="005A"/>
  <outline>
    <contour>
      <point x="42.63230769234" y="0.0" type="line"/>
      <point x="42.63230769234" y="219.62769230766" type="line"/>
      <point x="655.62990068159" y="1192.9892307692198" type="line"/>
      <point x="55.58" y="1192.9892307692198" type="line"/>
      <point x="55.58" y="1456.0" type="line"/>
      <point x="1118.9753526777" y="1456.0" type="line"/>
      <point x="1118.9753526777" y="1234.6492307692201" type="line"/>
      <point x="506.40512093479" y="261.28769230766" type="line"/>
      <point x="1152.0091988315298" y="261.28769230766" type="line"/>
      <point x="1152.0091988315298" y="0.0" type="line"/>
    </contour>
  </outline>
</glyph>
<glyph name="bracketleft" format="2">
  <advance width="756"/>
  <unicode hex="005B"/>
  <outline>
    <contour>
      <point x="137.96923076922002" y="-310.0" type="line"/>
      <point x="137.96923076922002" y="1456.0" type="line"/>
      <point x="679.71669328142" y="1456.0" type="line"/>
      <point x="679.71669328142" y="1205.86153846156" type="line"/>
      <point x="474.45592405063996" y="1205.86153846156" type="line"/>
      <point x="474.45592405063996" y="-59.861538461560016" type="line"/>
      <point x="679.71669328142" y="-59.861538461560016" type="line"/>
      <point x="679.71669328142" y="-310.0" type="line"/>
    </contour>
  </outline>
</glyph>
<glyph name="backslash" format="2">
  <advance width="609"/>
  <unicode hex="005C"/>
  <outline>
    <contour>
      <point x="-110.60769230766" y="1456.0" type="line"/>
      <point x="176.3471470302" y="1456.0" type="line"/>
      <point x="717.8471470302" y="-125.0" type="line"/>
      <point x="431.28538461539" y="-125.0" type="line"/>
    </contour>
  </outline>
</glyph>
<glyph name="bracketright" format="2">
  <advance width="756"/>
  <unicode hex="005D"/>
  <outline>
    <contour>
      <point x="617.90850438171" y="-310.0" type="line"/>
      <point x="76.16104186951" y="-310.0" type="line"/>
      <point x="76.16104186951" y="-59.861538461560016" type="line"/>
      <point x="281.42181110029003" y="-59.861538461560016" type="line"/>
      <point x="281.42181110029003" y="1205.86153846156" type="line"/>
      <point x="76.16104186951" y="1205.86153846156" type="line"/>
      <point x="76.16104186951" y="1456.0" type="line"/>
      <point x="617.90850438171" y="1456.0" type="line"/>
    </contour>
  </outline>
</glyph>
<glyph name="asciicircum" format="2">
  <advance width="1194"/>
  <unicode hex="005E"/>
  <outline>
    <contour>
      <point x="-4.723076923049998" y="720.0" type="line"/>
      <point x="423.37692307695" y="1456.0" type="line"/>
      <point x="773.3727555988401" y="1456.0" type="line"/>
      <point x="1200.77275559884" y="720.0" type="line"/>
      <point x="792.77692307695" y="720.0" type="line"/>
      <point x="598.33176241481" y="1138.10538461539" type="line"/>
      <point x="403.27275559884004" y="720.0" type="line"/>
    </contour>
  </outline>
</glyph>
<glyph name="underscore" format="2">
  <advance width="890"/>
  <unicode hex="005F"/>
  <outline>
    <contour>
      <point x="0.0" y="-385.13538461539" type="line"/>
      <point x="0.0" y="-135.76923076922003" type="line"/>
      <point x="889.34153846156" y="-135.76923076922003" type="line"/>
      <point x="889.34153846156" y="-385.13538461539" type="line"/>
    </contour>
  </outline>
</glyph>
<glyph name="grave" format="2">
  <advance width="997"/>
  <unicode hex="0060"/>
  <outline>
    <contour>
      <point x="527.6" y="1173.2" type="line"/>
      <point x="199.9" y="1487.4" type="line"/>
      <point x="452.3" y="1639.3" type="line"/>
      <point x="716.6" y="1303.3" type="line"/>
    </contour>
  </outline>
</glyph>
<glyph name="a" format="2">
  <advance width="1227"/>
  <unicode hex="0061"/>
  <outline>
    <contour>
      <point x="71.8" y="310.7" type="qcurve" smooth="yes"/>
      <point x="71.8" y="494.5"/>
      <point x="351.7" y="670.4"/>
      <point x="562.4" y="671.1" type="qcurve" smooth="yes"/>
      <point x="752.8" y="671.1" type="line"/>
      <point x="752.8" y="725.6" type="line" smooth="yes"/>
      <point x="752.8" y="786.3"/>
      <point x="689.8" y="861.9"/>
      <point x="608.3" y="861.9" type="qcurve" smooth="yes"/>
      <point x="526.8" y="861.9"/>
      <point x="460.2" y="800.0"/>
      <point x="460.2" y="752.5" type="qcurve" smooth="yes"/>
      <point x="460.2" y="732.8" type="line"/>
      <point x="124.0" y="732.8" type="line"/>
      <point x="124.0" y="752.5" type="line" smooth="yes"/>
      <point x="124.0" y="901.3"/>
      <point x="405.1" y="1086.2"/>
      <point x="623.1" y="1086.2" type="qcurve" smooth="yes"/>
      <point x="842.5" y="1086.2"/>
      <point x="1094.2" y="911.2"/>
      <point x="1094.2" y="723.5" type="qcurve" smooth="yes"/>
      <point x="1094.2" y="235.1" type="line" smooth="yes"/>
      <point x="1094.2" y="171.5"/>
      <point x="1119.1" y="55.1"/>
      <point x="1139.2" y="16.0" type="qcurve"/>
      <point x="1139.2" y="0.0" type="line"/>
      <point x="802.4" y="0.0" type="line"/>
      <point x="791.9" y="22.2"/>
      <point x="774.5" y="95.2"/>
      <point x="770.8" y="128.9" type="qcurve"/>
      <point x="743.6" y="71.6"/>
      <point x="566.7" y="-19.3"/>
      <point x="438.1" y="-19.3" type="qcurve" smooth="yes"/>
      <point x="281.8" y="-19.3"/>
      <point x="71.8" y="143.0"/>
    </contour>
    <contour>
      <point x="414.6" y="343.8" type="qcurve" smooth="yes"/>
      <point x="414.6" y="282.5"/>
      <point x="485.0" y="203.6"/>
      <point x="563.5" y="203.6" type="qcurve" smooth="yes"/>
      <point x="651.1" y="203.6"/>
      <point x="752.8" y="309.4"/>
      <point x="752.8" y="391.6" type="qcurve"/>
      <point x="752.8" y="471.9" type="line"/>
      <point x="611.8" y="471.9" type="line" smooth="yes"/>
      <point x="509.6" y="471.9"/>
      <point x="414.6" y="407.2"/>
    </contour>
  </outline>
</glyph>
<glyph name="b" format="2">
  <advance width="1267"/>
  <unicode hex="0062"/>
  <outline>
    <contour>
      <point x="122.8" y="0.0" type="line"/>
      <point x="122.8" y="1529.0" type="line"/>
      <point x="464.2" y="1529.0" type="line"/>
      <point x="464.2" y="954.6" type="line"/>
      <point x="515.1" y="1014.7"/>
      <point x="662.4" y="1077.6"/>
      <point x="754.9" y="1077.6" type="qcurve" smooth="yes"/>
      <point x="961.2" y="1077.6"/>
      <point x="1199.8" y="783.9"/>
      <point x="1199.8" y="545.5" type="qcurve" smooth="yes"/>
      <point x="1199.8" y="513.5" type="line" smooth="yes"/>
      <point x="1199.8" y="273.0"/>
      <point x="959.1" y="-20.0"/>
      <point x="754.2" y="-20.0" type="qcurve" smooth="yes"/>
      <point x="660.3" y="-20.0"/>
      <point x="491.1" y="52.400000000000006"/>
      <point x="460.9" y="111.1" type="qcurve"/>
      <point x="455.6" y="111.1" type="line"/>
      <point x="449.7" y="0.0" type="line"/>
    </contour>
    <contour>
      <point x="464.2" y="374.3" type="line"/>
      <point x="484.0" y="318.3"/>
      <point x="579.9" y="233.5"/>
      <point x="660.3" y="233.5" type="qcurve" smooth="yes"/>
      <point x="755.7" y="233.5"/>
      <point x="850.2" y="373.8"/>
      <point x="850.2" y="492.5" type="qcurve" smooth="yes"/>
      <point x="850.2" y="564.4" type="line" smooth="yes"/>
      <point x="850.2" y="683.1"/>
      <point x="757.1" y="822.7"/>
      <point x="657.5" y="822.7" type="qcurve" smooth="yes"/>
      <point x="581.3" y="822.7"/>
      <point x="484.0" y="737.9"/>
      <point x="464.2" y="682.6" type="qcurve"/>
    </contour>
  </outline>
</glyph>
<glyph name="c" format="2">
  <advance width="1164"/>
  <unicode hex="0063"/>
  <outline>
    <contour>
      <point x="68.2" y="512.8" type="qcurve" smooth="yes"/>
      <point x="68.2" y="544.8" type="line" smooth="yes"/>
      <point x="68.2" y="798.9"/>
      <point x="375.5" y="1086.9"/>
      <point x="624.2" y="1086.9" type="qcurve" smooth="yes"/>
      <point x="861.5" y="1086.9"/>
      <point x="1111.7" y="856.4"/>
      <point x="1123.6" y="692.6" type="qcurve" smooth="yes"/>
      <point x="1125.7" y="669.4" type="line"/>
      <point x="792.4" y="669.4" type="line"/>
      <point x="792.4" y="685.6" type="line" smooth="yes"/>
      <point x="792.4" y="754.5"/>
      <point x="704.5" y="839.0"/>
      <point x="620.7" y="839.0" type="qcurve" smooth="yes"/>
      <point x="521.9" y="839.0"/>
      <point x="417.79999999999995" y="698.0"/>
      <point x="417.79999999999995" y="567.9" type="qcurve" smooth="yes"/>
      <point x="417.79999999999995" y="489.7" type="line" smooth="yes"/>
      <point x="417.79999999999995" y="358.9"/>
      <point x="517.0" y="217.2"/>
      <point x="620.0" y="217.2" type="qcurve" smooth="yes"/>
      <point x="717.1" y="217.2"/>
      <point x="791.7" y="311.5"/>
      <point x="791.7" y="373.4" type="qcurve" smooth="yes"/>
      <point x="791.7" y="386.8" type="line"/>
      <point x="1124.3" y="386.8" type="line"/>
      <point x="1124.3" y="371.3" type="line" smooth="yes"/>
      <point x="1124.3" y="208.2"/>
      <point x="862.2" y="-30.0"/>
      <point x="624.2" y="-30.0" type="qcurve" smooth="yes"/>
      <point x="376.2" y="-30.0"/>
      <point x="68.2" y="258.7"/>
    </contour>
  </outline>
</glyph>
<glyph name="d" format="2">
  <advance width="1267"/>
  <unicode hex="0064"/>
  <outline>
    <contour>
      <point x="68.03846153844" y="512.33024615383" type="qcurve" smooth="yes"/>
      <point x="68.03846153844" y="544.33024615383" type="line" smooth="yes"/>
      <point x="68.2" y="782.5"/>
      <point x="328.6299532619" y="1076.4881846153899"/>
      <point x="533.86565335929" y="1076.4881846153899" type="qcurve" smooth="yes"/>
      <point x="628.2303770204401" y="1076.4881846153899"/>
      <point x="769.07473846156" y="1009.3881846153901"/>
      <point x="805.03112755598" y="955.31895384617" type="qcurve"/>
      <point x="805.03112755598" y="1529.28" type="line"/>
      <point x="1144.93078013629" y="1529.28" type="line"/>
      <point x="1144.93078013629" y="0.0" type="line"/>
      <point x="818.49728140215" y="0.0" type="line"/>
      <point x="812.5003583252" y="115.54769230766001" type="line"/>
      <point x="807.9380506329301" y="115.54769230766001" type="line"/>
      <point x="777.36716377799" y="55.97538461539"/>
      <point x="629.54422317427" y="-20.0"/>
      <point x="535.26565335929" y="-20.0" type="qcurve" smooth="yes"/>
      <point x="314.89918403119" y="-20.0"/>
      <point x="68.2" y="274.4"/>
    </contour>
    <contour>
      <point x="417.1" y="491.8" type="line" smooth="yes"/>
      <point x="417.1" y="373.1"/>
      <point x="520.0" y="233.5"/>
      <point x="616.8" y="233.5" type="qcurve" smooth="yes"/>
      <point x="685.3" y="233.5"/>
      <point x="780.5" y="306.4"/>
      <point x="803.8" y="360.3" type="qcurve"/>
      <point x="803.8" y="696.6" type="line"/>
      <point x="781.9" y="751.2"/>
      <point x="692.3" y="823.4"/>
      <point x="618.2" y="823.4" type="qcurve" smooth="yes"/>
      <point x="522.8" y="823.4"/>
      <point x="417.1" y="683.1"/>
      <point x="417.1" y="564.4" type="qcurve" smooth="yes"/>
    </contour>
  </outline>
</glyph>
<glyph name="e" format="2">
  <advance width="1165"/>
  <unicode hex="0065"/>
  <outline>
    <contour>
      <point x="68.2" y="512.8" type="qcurve" smooth="yes"/>
      <point x="68.2" y="544.8" type="line" smooth="yes"/>
      <point x="68.2" y="791.9"/>
      <point x="376.1" y="1086.9"/>
      <point x="610.7" y="1086.9" type="qcurve" smooth="yes"/>
      <point x="847.4" y="1086.9"/>
      <point x="1122.8" y="809.8"/>
      <point x="1122.8" y="562.1" type="qcurve" smooth="yes"/>
      <point x="1122.8" y="443.4" type="line"/>
      <point x="306.1" y="443.4" type="line"/>
      <point x="306.1" y="650.2" type="line"/>
      <point x="786.0" y="650.2" type="line"/>
      <point x="786.0" y="665.8" type="line" smooth="yes"/>
      <point x="786.7" y="742.7"/>
      <point x="692.4" y="847.4"/>
      <point x="606.8" y="847.4" type="qcurve" smooth="yes"/>
      <point x="509.9" y="847.4"/>
      <point x="405.9" y="704.3"/>
      <point x="405.9" y="567.2" type="qcurve" smooth="yes"/>
      <point x="405.9" y="491.1" type="line" smooth="yes"/>
      <point x="405.9" y="358.9"/>
      <point x="519.3" y="216.5"/>
      <point x="625.3" y="216.5" type="qcurve" smooth="yes"/>
      <point x="703.6" y="216.5"/>
      <point x="819.6" y="298.9"/>
      <point x="855.5" y="351.2" type="qcurve"/>
      <point x="1099.4" y="196.7" type="line"/>
      <point x="1049.4" y="93.0"/>
      <point x="799.1" y="-30.7"/>
      <point x="633.0" y="-30.7" type="qcurve" smooth="yes"/>
      <point x="372.6" y="-30.7"/>
      <point x="68.2" y="265.0"/>
    </contour>
  </outline>
</glyph>
<glyph name="f" format="2">
  <advance width="656"/>
  <unicode hex="0066"/>
  <outline>
    <contour>
      <point x="150.45692307695" y="0.0" type="line"/>
      <point x="150.45692307695" y="1115.89230769234" type="line" smooth="yes"/>
      <point x="150.5" y="1334.8"/>
      <point x="395.8" y="1549.0"/>
      <point x="576.6" y="1549.0" type="qcurve" smooth="yes"/>
      <point x="617.7" y="1549.0"/>
      <point x="690.52426796492" y="1541.0215384615599"/>
      <point x="717.86426796492" y="1532.93538461539" type="qcurve"/>
      <point x="708.9681141188199" y="1288.0907692307799" type="line"/>
      <point x="691.25426796492" y="1291.9184615384402"/>
      <point x="650.73657565726" y="1297.83230769234"/>
      <point x="628.16119104187" y="1297.83230769234" type="qcurve" smooth="yes"/>
      <point x="564.09683022286" y="1297.83230769234"/>
      <point x="490.35657565726" y="1203.03384615383"/>
      <point x="490.35657565726" y="1106.8461538461702" type="qcurve" smooth="yes"/>
      <point x="490.35657565726" y="953.98741538461" type="line"/>
      <point x="491.21811411882" y="933.10741538461" type="line"/>
      <point x="491.21811411882" y="0.0" type="line"/>
    </contour>
    <contour>
      <point x="23.19076923078" y="809.66049230766" type="line"/>
      <point x="23.19076923078" y="1056.4881846153899" type="line"/>
      <point x="281.41982629019" y="1056.4881846153899" type="line"/>
      <point x="317.1244416748" y="1056.4881846153899" type="line"/>
      <point x="663.60580642648" y="1056.4881846153899" type="line"/>
      <point x="663.60580642648" y="809.66049230766" type="line"/>
    </contour>
  </outline>
</glyph>
<glyph name="g" format="2">
  <advance width="1267"/>
  <unicode hex="0067"/>
  <outline>
    <contour>
      <point x="142.2" y="-291.7" type="qcurve"/>
      <point x="248.0" y="-61.400000000000006" type="line"/>
      <point x="299.0" y="-110.30000000000001"/>
      <point x="477.2" y="-190.0"/>
      <point x="576.5" y="-190.0" type="qcurve" smooth="yes"/>
      <point x="676.5" y="-190.0"/>
      <point x="804.5" y="-60.50000000000001"/>
      <point x="804.5" y="76.69999999999999" type="qcurve" smooth="yes"/>
      <point x="804.5" y="103.0" type="line"/>
      <point x="768.3" y="43.6"/>
      <point x="623.1" y="-19.3"/>
      <point x="526.4" y="-19.3" type="qcurve" smooth="yes"/>
      <point x="322.2" y="-19.3"/>
      <point x="68.2" y="267.4"/>
      <point x="68.2" y="512.1" type="qcurve" smooth="yes"/>
      <point x="68.2" y="544.1" type="line" smooth="yes"/>
      <point x="68.2" y="789.5"/>
      <point x="320.8" y="1076.2"/>
      <point x="526.4" y="1076.2" type="qcurve" smooth="yes"/>
      <point x="619.6" y="1076.2"/>
      <point x="775.5" y="1001.7"/>
      <point x="805.7" y="941.6" type="qcurve"/>
      <point x="811.0" y="941.6" type="line"/>
      <point x="816.9" y="1056.2" type="line"/>
      <point x="1144.5" y="1056.2" type="line"/>
      <point x="1144.5" y="87.89999999999999" type="line" smooth="yes"/>
      <point x="1144.5" y="-165.7"/>
      <point x="830.7" y="-437.4"/>
      <point x="596.9" y="-437.4" type="qcurve" smooth="yes"/>
      <point x="455.0" y="-437.4"/>
      <point x="217.5" y="-353.5"/>
    </contour>
    <contour>
      <point x="417.1" y="491.8" type="line" smooth="yes"/>
      <point x="417.1" y="373.1"/>
      <point x="520.0" y="233.5"/>
      <point x="623.1" y="233.5" type="qcurve" smooth="yes"/>
      <point x="689.5" y="233.5"/>
      <point x="784.0" y="314.1"/>
      <point x="803.8" y="365.2" type="qcurve"/>
      <point x="803.8" y="682.6" type="line"/>
      <point x="781.9" y="748.4"/>
      <point x="685.3" y="823.4"/>
      <point x="616.1" y="823.4" type="qcurve" smooth="yes"/>
      <point x="519.3" y="823.4"/>
      <point x="417.1" y="683.1"/>
      <point x="417.1" y="564.4" type="qcurve" smooth="yes"/>
    </contour>
  </outline>
</glyph>
<glyph name="h" format="2">
  <advance width="1240"/>
  <unicode hex="0068"/>
  <outline>
    <contour>
      <point x="122.8" y="0.0" type="line"/>
      <point x="122.8" y="1529.0" type="line"/>
      <point x="463.5" y="1529.0" type="line"/>
      <point x="463.5" y="913.6" type="line"/>
      <point x="506.9" y="984.4"/>
      <point x="657.2" y="1077.6"/>
      <point x="777.4" y="1077.6" type="qcurve" smooth="yes"/>
      <point x="925.8" y="1077.6"/>
      <point x="1120.4" y="885.4"/>
      <point x="1120.4" y="672.7" type="qcurve" smooth="yes"/>
      <point x="1120.4" y="0.0" type="line"/>
      <point x="779.0" y="0.0" type="line"/>
      <point x="779.0" y="648.1" type="line" smooth="yes"/>
      <point x="779.0" y="741.9"/>
      <point x="695.4" y="820.1"/>
      <point x="628.5" y="820.1" type="qcurve" smooth="yes"/>
      <point x="566.8" y="820.1"/>
      <point x="484.7" y="750.7"/>
      <point x="464.2" y="681.0" type="qcurve"/>
      <point x="464.2" y="0.0" type="line"/>
    </contour>
  </outline>
</glyph>
<glyph name="i" format="2">
  <advance width="590"/>
  <unicode hex="0069"/>
  <outline>
    <contour>
      <point x="124.1" y="0.0" type="line"/>
      <point x="124.1" y="1056.2" type="line"/>
      <point x="466.9" y="1056.2" type="line"/>
      <point x="466.9" y="0.0" type="line"/>
    </contour>
    <contour>
      <point x="97.6" y="1338.5" type="qcurve" smooth="yes"/>
      <point x="97.6" y="1414.2"/>
      <point x="200.3" y="1517.4"/>
      <point x="295.5" y="1517.4" type="qcurve" smooth="yes"/>
      <point x="390.7" y="1517.4"/>
      <point x="493.4" y="1414.2"/>
      <point x="493.4" y="1338.5" type="qcurve" smooth="yes"/>
      <point x="493.4" y="1262.1"/>
      <point x="390.7" y="1158.2"/>
      <point x="294.8" y="1158.2" type="qcurve" smooth="yes"/>
      <point x="199.6" y="1158.2"/>
      <point x="97.6" y="1262.1"/>
    </contour>
  </outline>
</glyph>
<glyph name="j" format="2">
  <advance width="595"/>
  <unicode hex="006A"/>
  <outline>
    <contour>
      <point x="-77.2" y="-410.7" type="qcurve"/>
      <point x="-78.6" y="-165.5" type="line"/>
      <point x="-63.5" y="-171.5"/>
      <point x="9.1" y="-185.5"/>
      <point x="39.8" y="-185.5" type="qcurve" smooth="yes"/>
      <point x="89.3" y="-185.5"/>
      <point x="136.0" y="-115.5"/>
      <point x="136.0" y="-32.7" type="qcurve" smooth="yes"/>
      <point x="136.0" y="1056.2" type="line"/>
      <point x="478.1" y="1056.2" type="line"/>
      <point x="478.1" y="-56.400000000000006" type="line" smooth="yes"/>
      <point x="478.1" y="-243.4"/>
      <point x="274.7" y="-436.0"/>
      <point x="97.3" y="-436.0" type="qcurve" smooth="yes"/>
      <point x="61.5" y="-436.0"/>
      <point x="-55.7" y="-420.4"/>
    </contour>
    <contour>
      <point x="108.8" y="1338.5" type="qcurve" smooth="yes"/>
      <point x="108.8" y="1414.2"/>
      <point x="211.5" y="1517.4"/>
      <point x="307.4" y="1517.4" type="qcurve" smooth="yes"/>
      <point x="402.6" y="1517.4"/>
      <point x="504.6" y="1414.2"/>
      <point x="504.6" y="1338.5" type="qcurve" smooth="yes"/>
      <point x="504.6" y="1262.1"/>
      <point x="401.9" y="1158.2"/>
      <point x="306.7" y="1158.2" type="qcurve" smooth="yes"/>
      <point x="211.5" y="1158.2"/>
      <point x="108.8" y="1262.1"/>
    </contour>
  </outline>
</glyph>
<glyph name="k" format="2">
  <advance width="1120"/>
  <unicode hex="006B"/>
  <outline>
    <contour>
      <point x="122.8" y="0.0" type="line"/>
      <point x="122.8" y="1529.0" type="line"/>
      <point x="464.2" y="1529.0" type="line"/>
      <point x="464.2" y="723.4" type="line"/>
      <point x="742.7" y="1056.9" type="line"/>
      <point x="1116.1" y="1056.9" type="line"/>
      <point x="464.2" y="326.2" type="line"/>
      <point x="464.2" y="0.0" type="line"/>
    </contour>
    <contour>
      <point x="753.9" y="0.0" type="line"/>
      <point x="458.7" y="513.2" type="line"/>
      <point x="677.6" y="757.4" type="line"/>
      <point x="1156.7" y="0.0" type="line"/>
    </contour>
  </outline>
</glyph>
<glyph name="l" format="2">
  <advance width="588"/>
  <unicode hex="006C"/>
  <outline>
    <contour>
      <point x="123.11076923078" y="0.0" type="line"/>
      <point x="123.11076923078" y="1529.28" type="line"/>
      <point x="465.16426796492" y="1529.28" type="line"/>
      <point x="465.16426796492" y="0.0" type="line"/>
    </contour>
  </outline>
</glyph>
<glyph name="m" format="2">
  <advance width="1881"/>
  <unicode hex="006D"/>
  <outline>
    <contour>
      <point x="122.8" y="0.0" type="line"/>
      <point x="122.8" y="1056.2" type="line"/>
      <point x="449.7" y="1056.2" type="line"/>
      <point x="455.6" y="941.5" type="line"/>
      <point x="461.6" y="941.5" type="line"/>
      <point x="504.3" y="1008.3"/>
      <point x="661.2" y="1076.9"/>
      <point x="747.0" y="1076.9" type="qcurve" smooth="yes"/>
      <point x="858.6" y="1076.9"/>
      <point x="1025.2" y="981.0"/>
      <point x="1061.7" y="893.3" type="qcurve"/>
      <point x="1064.9" y="893.3" type="line"/>
      <point x="1113.4" y="981.0"/>
      <point x="1309.1" y="1076.9"/>
      <point x="1411.0" y="1076.9" type="qcurve" smooth="yes"/>
      <point x="1568.0" y="1076.9"/>
      <point x="1767.4" y="870.7"/>
      <point x="1767.4" y="629.3" type="qcurve" smooth="yes"/>
      <point x="1767.4" y="0.0" type="line"/>
      <point x="1425.3" y="0.0" type="line"/>
      <point x="1425.3" y="653.7" type="line" smooth="yes"/>
      <point x="1425.3" y="735.6"/>
      <point x="1358.6" y="819.4"/>
      <point x="1290.4" y="820.1" type="qcurve" smooth="yes"/>
      <point x="1230.3" y="820.8"/>
      <point x="1141.2" y="754.9"/>
      <point x="1115.8" y="692.2" type="qcurve"/>
      <point x="1115.8" y="0.0" type="line"/>
      <point x="773.7" y="0.0" type="line"/>
      <point x="773.7" y="649.5" type="line" smooth="yes"/>
      <point x="773.7" y="734.9"/>
      <point x="705.6" y="820.1"/>
      <point x="634.6" y="820.1" type="qcurve" smooth="yes"/>
      <point x="575.2" y="820.1"/>
      <point x="488.9" y="757.7"/>
      <point x="464.2" y="692.2" type="qcurve"/>
      <point x="464.2" y="0.0" type="line"/>
    </contour>
  </outline>
</glyph>
<glyph name="n" format="2">
  <advance width="1240"/>
  <unicode hex="006E"/>
  <outline>
    <contour>
      <point x="122.8" y="0.0" type="line"/>
      <point x="122.8" y="1056.2" type="line"/>
      <point x="450.4" y="1056.2" type="line"/>
      <point x="456.29999999999995" y="944.3" type="line"/>
      <point x="461.6" y="944.3" type="line"/>
      <point x="495.5" y="1000.9"/>
      <point x="655.6" y="1078.3"/>
      <point x="751.4" y="1078.3" type="qcurve" smooth="yes"/>
      <point x="915.3" y="1078.3"/>
      <point x="1127.4" y="892.4"/>
      <point x="1127.4" y="652.4" type="qcurve" smooth="yes"/>
      <point x="1127.4" y="0.0" type="line"/>
      <point x="786.0" y="0.0" type="line"/>
      <point x="786.0" y="664.9" type="line" smooth="yes"/>
      <point x="786.0" y="752.4"/>
      <point x="712.2" y="820.1"/>
      <point x="643.9" y="820.1" type="qcurve" smooth="yes"/>
      <point x="589.9" y="820.1"/>
      <point x="488.9" y="756.3"/>
      <point x="464.2" y="694.3" type="qcurve"/>
      <point x="464.2" y="0.0" type="line"/>
    </contour>
  </outline>
</glyph>
<glyph name="o" format="2">
  <advance width="1260"/>
  <unicode hex="006F"/>
  <outline>
    <contour>
      <point x="68.2" y="512.8" type="qcurve" smooth="yes"/>
      <point x="68.2" y="544.8" type="line" smooth="yes"/>
      <point x="68.2" y="798.2"/>
      <point x="382.3" y="1086.9"/>
      <point x="630.0" y="1086.9" type="qcurve" smooth="yes"/>
      <point x="877.7" y="1086.9"/>
      <point x="1191.8" y="798.21211498141"/>
      <point x="1191.8" y="544.8" type="qcurve" smooth="yes"/>
      <point x="1191.8" y="512.8" type="line" smooth="yes"/>
      <point x="1191.8" y="259.4"/>
      <point x="877.7" y="-30.0"/>
      <point x="630.0" y="-30.0" type="qcurve" smooth="yes"/>
      <point x="382.3" y="-30.0"/>
      <point x="68.2" y="259.4"/>
    </contour>
    <contour>
      <point x="417.79999999999995" y="567.9" type="qcurve" smooth="yes"/>
      <point x="417.79999999999995" y="489.7" type="line" smooth="yes"/>
      <point x="417.79999999999995" y="348.4"/>
      <point x="530.5" y="224.89999999999998"/>
      <point x="630.0" y="224.89999999999998" type="qcurve" smooth="yes"/>
      <point x="729.5" y="224.89999999999998"/>
      <point x="841.5" y="348.4"/>
      <point x="841.5" y="489.7" type="qcurve" smooth="yes"/>
      <point x="841.5" y="567.9" type="line" smooth="yes"/>
      <point x="841.5" y="708.5"/>
      <point x="726.0" y="832.0"/>
      <point x="630.0" y="832.0" type="qcurve" smooth="yes"/>
      <point x="533.3" y="832.0"/>
      <point x="417.79999999999995" y="708.5"/>
    </contour>
  </outline>
</glyph>
<glyph name="p" format="2">
  <advance width="1267"/>
  <unicode hex="0070"/>
  <outline>
    <contour>
      <point x="122.8" y="-416.0" type="line"/>
      <point x="122.8" y="1056.2" type="line"/>
      <point x="444.79999999999995" y="1056.2" type="line"/>
      <point x="450.7" y="944.4" type="line"/>
      <point x="456.0" y="944.4" type="line"/>
      <point x="485.5" y="1003.1"/>
      <point x="647.0" y="1077.6"/>
      <point x="740.9" y="1077.6" type="qcurve" smooth="yes"/>
      <point x="945.8" y="1077.6"/>
      <point x="1199.1" y="792.3"/>
      <point x="1199.1" y="544.8" type="qcurve" smooth="yes"/>
      <point x="1199.1" y="512.8" type="line" smooth="yes"/>
      <point x="1199.1" y="266.7"/>
      <point x="952.1" y="-20.0"/>
      <point x="754.2" y="-20.0" type="qcurve" smooth="yes"/>
      <point x="661.0" y="-20.0"/>
      <point x="499.7" y="40.8"/>
      <point x="464.2" y="98.1" type="qcurve"/>
      <point x="464.2" y="-416.0" type="line"/>
    </contour>
    <contour>
      <point x="464.2" y="366.6" type="line"/>
      <point x="484.0" y="312.0"/>
      <point x="591.1" y="233.5"/>
      <point x="660.3" y="233.5" type="qcurve" smooth="yes"/>
      <point x="755.0" y="233.5"/>
      <point x="850.2" y="359.8"/>
      <point x="850.2" y="489.7" type="qcurve" smooth="yes"/>
      <point x="850.2" y="567.2" type="line" smooth="yes"/>
      <point x="850.2" y="697.1"/>
      <point x="755.0" y="823.4"/>
      <point x="658.2" y="823.4" type="qcurve" smooth="yes"/>
      <point x="584.1" y="823.4"/>
      <point x="487.5" y="748.4"/>
      <point x="464.2" y="696.6" type="qcurve"/>
    </contour>
  </outline>
</glyph>
<glyph name="q" format="2">
  <advance width="1267"/>
  <unicode hex="0071"/>
  <outline>
    <contour>
      <point x="68.03846153844" y="512.12153846156" type="qcurve" smooth="yes"/>
      <point x="68.03846153844" y="544.12153846156" type="line" smooth="yes"/>
      <point x="68.2" y="789.5"/>
      <point x="328.56856864650996" y="1076.68461538461"/>
      <point x="526.68149951312" y="1076.68461538461" type="qcurve" smooth="yes"/>
      <point x="631.21754625122" y="1076.68461538461"/>
      <point x="773.45125608572" y="1002.7015384615601"/>
      <point x="808.17174294059" y="943.63538461539" type="qcurve"/>
      <point x="812.34097370981" y="943.63538461539" type="line"/>
      <point x="818.33789678676" y="1056.68461538461" type="line"/>
      <point x="1144.7097955209001" y="1056.68461538461" type="line"/>
      <point x="1144.7097955209001" y="-416.17230769234" type="line"/>
      <point x="804.69943524832" y="-416.17230769234" type="line"/>
      <point x="804.69943524832" y="103.72971762416" type="line"/>
      <point x="805.04405063293" y="103.66769230766" type="line"/>
      <point x="768.81692307695" y="44.09538461539"/>
      <point x="636.0529308666099" y="-20.0"/>
      <point x="527.3814995131199" y="-20.0" type="qcurve" smooth="yes"/>
      <point x="321.83779941579996" y="-20.0"/>
      <point x="68.2" y="267.4"/>
    </contour>
    <contour>
      <point x="417.1" y="491.8" type="line" smooth="yes"/>
      <point x="417.1" y="365.4"/>
      <point x="515.8" y="233.5"/>
      <point x="609.8" y="233.5" type="qcurve" smooth="yes"/>
      <point x="681.1" y="233.5"/>
      <point x="783.3" y="307.8"/>
      <point x="803.8" y="367.3" type="qcurve"/>
      <point x="803.8" y="696.6" type="line"/>
      <point x="783.3" y="748.4"/>
      <point x="683.2" y="823.4"/>
      <point x="609.8" y="823.4" type="qcurve" smooth="yes"/>
      <point x="515.8" y="823.4"/>
      <point x="417.1" y="690.1"/>
      <point x="417.1" y="564.4" type="qcurve" smooth="yes"/>
    </contour>
  </outline>
</glyph>
<glyph name="r" format="2">
  <advance width="760"/>
  <unicode hex="0072"/>
  <outline>
    <contour>
      <point x="122.8" y="0.0" type="line"/>
      <point x="122.8" y="1056.4881846153899" type="line"/>
      <point x="451.46272950342996" y="1056.4881846153899" type="line"/>
      <point x="457.45965258031" y="949.06818461539" type="line"/>
      <point x="462.72196027265" y="949.06818461539" type="line"/>
      <point x="490.33284839548" y="1004.7825223027301"/>
      <point x="595.1373448880399" y="1084.93741538461"/>
      <point x="656.52349873421" y="1084.93741538461" type="qcurve" smooth="yes"/>
      <point x="676.56349873421" y="1084.93741538461"/>
      <point x="717.01426796492" y="1075.02356923078"/>
      <point x="725.39349873421" y="1071.02356923078" type="qcurve"/>
      <point x="725.39349873421" y="780.05587692305" type="line"/>
      <point x="709.02811411882" y="784.65895384617"/>
      <point x="671.27426796492" y="789.08972307695"/>
      <point x="648.40272950343" y="789.08972307695" type="qcurve" smooth="yes"/>
      <point x="588.95616145604" y="789.08972307695"/>
      <point x="487.57551523219" y="713.5202433521799"/>
      <point x="465.7150371957" y="654.73741538461" type="qcurve"/>
      <point x="465.7150371957" y="0.0" type="line"/>
    </contour>
  </outline>
</glyph>
<glyph name="s" format="2">
  <advance width="1115"/>
  <unicode hex="0073"/>
  <outline>
    <contour>
      <point x="57.6" y="341.5" type="line"/>
      <point x="392.0" y="340.1" type="line"/>
      <point x="392.0" y="319.7" type="line" smooth="yes"/>
      <point x="392.0" y="252.5"/>
      <point x="478.4" y="194.1"/>
      <point x="554.8" y="194.1" type="qcurve" smooth="yes"/>
      <point x="631.9" y="194.1"/>
      <point x="706.4" y="250.6"/>
      <point x="706.4" y="298.2" type="qcurve" smooth="yes"/>
      <point x="706.4" y="347.2"/>
      <point x="617.0" y="390.0"/>
      <point x="442.1" y="425.1" type="qcurve" smooth="yes"/>
      <point x="251.1" y="462.3"/>
      <point x="92.4" y="626.2"/>
      <point x="92.4" y="750.6" type="qcurve" smooth="yes"/>
      <point x="92.4" y="910.0"/>
      <point x="345.2" y="1086.9"/>
      <point x="560.9" y="1086.9" type="qcurve" smooth="yes"/>
      <point x="775.9" y="1086.9"/>
      <point x="1033.0" y="899.8"/>
      <point x="1033.0" y="738.4" type="qcurve" smooth="yes"/>
      <point x="1033.0" y="724.3" type="line"/>
      <point x="699.6" y="724.3" type="line"/>
      <point x="699.6" y="743.8" type="line" smooth="yes"/>
      <point x="699.6" y="798.5"/>
      <point x="631.0" y="860.7"/>
      <point x="559.5" y="860.7" type="qcurve" smooth="yes"/>
      <point x="488.7" y="860.7"/>
      <point x="425.5" y="814.3"/>
      <point x="425.5" y="773.9" type="qcurve" smooth="yes"/>
      <point x="425.5" y="732.8"/>
      <point x="510.7" y="684.5"/>
      <point x="689.1" y="650.1" type="qcurve" smooth="yes"/>
      <point x="878.0" y="613.6"/>
      <point x="1045.5" y="458.0"/>
      <point x="1045.5" y="323.6" type="qcurve" smooth="yes"/>
      <point x="1045.5" y="154.2"/>
      <point x="794.2" y="-30.0"/>
      <point x="556.2" y="-30.0" type="qcurve" smooth="yes"/>
      <point x="320.3" y="-30.0"/>
      <point x="57.6" y="153.0"/>
      <point x="57.6" y="328.1" type="qcurve" smooth="yes"/>
    </contour>
  </outline>
</glyph>
<glyph name="t" format="2">
  <advance width="706"/>
  <unicode hex="0074"/>
  <outline>
    <contour>
      <point x="0.0" y="809.9" type="line"/>
      <point x="0.0" y="1056.2" type="line"/>
      <point x="668.6" y="1056.2" type="line"/>
      <point x="668.6" y="809.9" type="line"/>
    </contour>
    <contour>
      <point x="144.6" y="335.6" type="qcurve" smooth="yes"/>
      <point x="144.6" y="933.1" type="line"/>
      <point x="146.0" y="961.7" type="line"/>
      <point x="146.0" y="1300.1" type="line"/>
      <point x="484.6" y="1300.1" type="line"/>
      <point x="484.6" y="344.0" type="line" smooth="yes"/>
      <point x="484.6" y="271.9"/>
      <point x="537.1" y="219.6"/>
      <point x="579.6" y="219.6" type="qcurve" smooth="yes"/>
      <point x="600.6" y="219.6"/>
      <point x="643.4" y="230.89999999999998"/>
      <point x="662.3" y="238.8" type="qcurve"/>
      <point x="662.3" y="1.4" type="line"/>
      <point x="640.5" y="-10.6"/>
      <point x="555.1" y="-29.3"/>
      <point x="505.8" y="-29.3" type="qcurve" smooth="yes"/>
      <point x="343.2" y="-29.3"/>
      <point x="144.6" y="147.1"/>
    </contour>
  </outline>
</glyph>
<glyph name="u" format="2">
  <advance width="1240"/>
  <unicode hex="0075"/>
  <outline>
    <contour>
      <point x="112.8" y="425.5" type="qcurve" smooth="yes"/>
      <point x="112.8" y="1056.2" type="line"/>
      <point x="454.9" y="1056.2" type="line"/>
      <point x="454.9" y="412.3" type="line" smooth="yes"/>
      <point x="454.9" y="310.1"/>
      <point x="533.6" y="236.1"/>
      <point x="597.7" y="236.1" type="qcurve" smooth="yes"/>
      <point x="658.0" y="236.1"/>
      <point x="754.1" y="309.0"/>
      <point x="776.0" y="361.2" type="qcurve"/>
      <point x="776.0" y="1056.2" type="line"/>
      <point x="1117.4" y="1056.2" type="line"/>
      <point x="1117.4" y="0.0" type="line"/>
      <point x="790.5" y="0.0" type="line"/>
      <point x="783.9" y="111.9" type="line"/>
      <point x="778.6" y="111.9" type="line"/>
      <point x="737.0" y="50.4"/>
      <point x="576.9" y="-20.7"/>
      <point x="477.6" y="-20.7" type="qcurve" smooth="yes"/>
      <point x="320.7" y="-20.7"/>
      <point x="112.8" y="184.8"/>
    </contour>
  </outline>
</glyph>
<glyph name="v" format="2">
  <advance width="1013"/>
  <unicode hex="0076"/>
  <outline>
    <contour>
      <point x="-29.561538461559998" y="1056.4881846153899" type="line"/>
      <point x="319.76861148977997" y="1056.4881846153899" type="line"/>
      <point x="493.5" y="469.7" type="line" smooth="yes"/>
      <point x="504.0" y="432.5"/>
      <point x="516.7" y="373.7"/>
      <point x="520.7" y="341.8" type="qcurve"/>
      <point x="527.4" y="341.8" type="line"/>
      <point x="531.4" y="373.7"/>
      <point x="543.4" y="431.8"/>
      <point x="554.6" y="469.7" type="qcurve" smooth="yes"/>
      <point x="728.2179014605699" y="1056.4881846153899" type="line"/>
      <point x="1032.6336553067401" y="1056.4881846153899" type="line"/>
      <point x="674.7521168451799" y="0.0" type="line"/>
      <point x="322.19925998055004" y="0.0" type="line"/>
    </contour>
  </outline>
</glyph>
<glyph name="w" format="2">
  <advance width="1645"/>
  <unicode hex="0077"/>
  <outline>
    <contour>
      <point x="7.984615384609999" y="1056.4881846153899" type="line"/>
      <point x="353.65974294059" y="1056.4881846153899" type="line"/>
      <point x="464.8" y="506.29999999999995" type="line" smooth="yes"/>
      <point x="472.3" y="467.0"/>
      <point x="484.6" y="395.3"/>
      <point x="488.4" y="356.7" type="qcurve"/>
      <point x="495.1" y="356.7" type="line"/>
      <point x="500.3" y="395.3"/>
      <point x="513.3" y="467.0"/>
      <point x="522.8" y="506.29999999999995" type="qcurve" smooth="yes"/>
      <point x="659.32676377799" y="1056.4881846153899" type="line"/>
      <point x="1026.6453429405901" y="1056.4881846153899" type="line"/>
      <point x="1171.8" y="505.6" type="line" smooth="yes"/>
      <point x="1181.6" y="466.29999999999995"/>
      <point x="1196.0" y="394.6"/>
      <point x="1201.9" y="356.0" type="qcurve"/>
      <point x="1207.9" y="356.0" type="line"/>
      <point x="1213.1" y="394.6"/>
      <point x="1224.8" y="466.29999999999995"/>
      <point x="1232.3" y="505.6" type="qcurve" smooth="yes"/>
      <point x="1346.0539022395499" y="1056.4881846153899" type="line"/>
      <point x="1641.2251022395499" y="1056.4881846153899" type="line"/>
      <point x="1378.72971762416" y="0.0" type="line"/>
      <point x="1004.8984962025601" y="0.0" type="line"/>
      <point x="858.4" y="553.3" type="line" smooth="yes"/>
      <point x="848.9" y="590.5"/>
      <point x="831.5" y="669.8"/>
      <point x="826.4" y="707.0" type="qcurve"/>
      <point x="822.5" y="707.0" type="line"/>
      <point x="817.4" y="669.8"/>
      <point x="798.6" y="589.8"/>
      <point x="790.5" y="553.3" type="qcurve" smooth="yes"/>
      <point x="659.5911022395501" y="0.0" type="line"/>
      <point x="270.22153846156" y="0.0" type="line"/>
    </contour>
  </outline>
</glyph>
<glyph name="x" format="2">
  <advance width="1021"/>
  <unicode hex="0078"/>
  <outline>
    <contour>
      <point x="6.700000000000001" y="0.0" type="line"/>
      <point x="358.4" y="614.2" type="line"/>
      <point x="438.0" y="614.2" type="line"/>
      <point x="677.6" y="1056.2" type="line"/>
      <point x="989.8" y="1056.2" type="line"/>
      <point x="646.9" y="461.6" type="line"/>
      <point x="563.8" y="461.6" type="line"/>
      <point x="318.9" y="0.0" type="line"/>
    </contour>
    <contour>
      <point x="17.6" y="1056.2" type="line"/>
      <point x="406.29999999999995" y="1056.2" type="line"/>
      <point x="641.0" y="616.3" type="line"/>
      <point x="658.1" y="616.3" type="line"/>
      <point x="1018.2" y="0.0" type="line"/>
      <point x="630.2" y="0.0" type="line"/>
      <point x="377.6" y="463.7" type="line"/>
      <point x="360.5" y="463.7" type="line"/>
    </contour>
  </outline>
</glyph>
<glyph name="y" format="2">
  <advance width="1006"/>
  <unicode hex="0079"/>
  <outline>
    <contour>
      <point x="72.50267575465" y="-414.96615384617" type="qcurve"/>
      <point x="77.75806037004" y="-171.30769230766" type="line"/>
      <point x="101.79655267769999" y="-179.35615384617"/>
      <point x="161.35510652387" y="-188.70461538461"/>
      <point x="188.82821421614" y="-188.70461538461" type="qcurve" smooth="yes"/>
      <point x="256.1088580331" y="-188.70461538461"/>
      <point x="376.2" y="-110.80000000000001"/>
      <point x="404.1" y="4.7" type="qcurve"/>
      <point x="340.4" y="5.0" type="line"/>
      <point x="-19.723076923049998" y="1056.4881846153899" type="line"/>
      <point x="329.78278870500003" y="1056.4881846153899" type="line"/>
      <point x="498.5" y="474.8" type="line" smooth="yes"/>
      <point x="509.0" y="437.6"/>
      <point x="521.9" y="376.7"/>
      <point x="527.8" y="341.8" type="qcurve"/>
      <point x="534.5" y="341.8" type="line"/>
      <point x="540.7" y="376.7"/>
      <point x="553.9" y="436.2"/>
      <point x="564.1" y="474.8" type="qcurve" smooth="yes"/>
      <point x="725.50181421614" y="1056.4881846153899" type="line"/>
      <point x="1017.45282960075" y="1056.4881846153899" type="line"/>
      <point x="645.3812911392599" y="-119.66769230766" type="line" smooth="yes"/>
      <point x="595.7954757546499" y="-280.64076923078"/>
      <point x="364.34221421614" y="-436.0"/>
      <point x="215.71221421613998" y="-436.0" type="qcurve" smooth="yes"/>
      <point x="168.75442960075" y="-436.0"/>
      <point x="100.61812190847999" y="-426.53846153844"/>
    </contour>
  </outline>
</glyph>
<glyph name="z" format="2">
  <advance width="1043"/>
  <unicode hex="007A"/>
  <outline>
    <contour>
      <point x="58.1" y="0.0" type="line"/>
      <point x="58.1" y="215.1" type="line"/>
      <point x="510.20000000000005" y="800.6" type="line"/>
      <point x="66.1" y="800.6" type="line"/>
      <point x="66.1" y="1056.2" type="line"/>
      <point x="965.2" y="1056.2" type="line"/>
      <point x="965.2" y="847.6" type="line"/>
      <point x="506.2" y="254.2" type="line"/>
      <point x="997.3" y="254.2" type="line"/>
      <point x="997.3" y="0.0" type="line"/>
    </contour>
  </outline>
</glyph>
<glyph name="braceleft" format="2">
  <advance width="773"/>
  <unicode hex="007B"/>
  <outline>
    <contour>
      <point x="718.76264615383" y="-312.0" type="line"/>
      <point x="467.39443076922" y="-313.72307692305003"/>
      <point x="141.84347692305" y="-107.65384615382999"/>
      <point x="175.51815384616998" y="81.0" type="qcurve" smooth="yes"/>
      <point x="211.87569230766002" y="301.31538461539" type="line" smooth="yes"/>
      <point x="229.80030769234" y="403.18384615383"/>
      <point x="148.64206153844" y="466.87230769234"/>
      <point x="77.50999999999999" y="466.87230769234" type="qcurve"/>
      <point x="77.50999999999999" y="681.12769230766" type="line"/>
      <point x="148.64206153844" y="681.12769230766"/>
      <point x="229.80030769234" y="744.81615384617"/>
      <point x="211.87569230766002" y="846.68461538461" type="qcurve" smooth="yes"/>
      <point x="175.51815384616998" y="1067.0" type="line" smooth="yes"/>
      <point x="142.01578461539" y="1254.87846153844"/>
      <point x="467.39443076922" y="1460.86153846156"/>
      <point x="718.76264615383" y="1460.0" type="qcurve"/>
      <point x="718.76264615383" y="1226.85538461539" type="line"/>
      <point x="646.28812307695" y="1226.85538461539"/>
      <point x="480.66443076921996" y="1154.64769230766"/>
      <point x="499.60510769234" y="1032.59230769234" type="qcurve" smooth="yes"/>
      <point x="536.66264615383" y="814.0" type="line" smooth="yes"/>
      <point x="551.97264615383" y="727.98615384617"/>
      <point x="478.36264615383004" y="610.5"/>
      <point x="377.25572307695" y="574.0" type="qcurve"/>
      <point x="478.36264615383004" y="537.5"/>
      <point x="551.97264615383" y="420.01384615383"/>
      <point x="536.66264615383" y="334.0" type="qcurve" smooth="yes"/>
      <point x="499.60510769234" y="115.40769230766" type="line" smooth="yes"/>
      <point x="480.66443076921996" y="-6.647692307659998"/>
      <point x="646.28812307695" y="-78.85538461539001"/>
      <point x="718.76264615383" y="-78.85538461539001" type="qcurve"/>
    </contour>
  </outline>
</glyph>
<glyph name="bar" format="2">
  <advance width="657"/>
  <unicode hex="007C"/>
  <outline>
    <contour>
      <point x="185.66153846156" y="-416.0" type="line"/>
      <point x="185.66153846156" y="1480.0" type="line"/>
      <point x="472.47704615383" y="1480.0" type="line"/>
      <point x="472.47704615383" y="-416.0" type="line"/>
    </contour>
  </outline>
</glyph>
<glyph name="braceright" format="2">
  <advance width="773"/>
  <unicode hex="007D"/>
  <outline>
    <contour>
      <point x="59.216923076949996" y="-312.17230769234" type="qcurve"/>
      <point x="59.216923076949996" y="-79.02769230766" type="line"/>
      <point x="131.69144615383001" y="-79.02769230766"/>
      <point x="272.81513846156" y="-6.119999999999999"/>
      <point x="249.67446153844003" y="115.23538461539" type="qcurve" smooth="yes"/>
      <point x="206.31692307695" y="333.82769230766" type="line" smooth="yes"/>
      <point x="188.20692307695" y="419.14153846156"/>
      <point x="271.61692307695" y="537.3276923076601"/>
      <point x="372.72384615383" y="573.8276923076601" type="qcurve"/>
      <point x="271.61692307695" y="610.3276923076601"/>
      <point x="188.20692307695" y="728.51384615383"/>
      <point x="206.31692307695" y="813.8276923076601" type="qcurve" smooth="yes"/>
      <point x="249.67446153844003" y="1032.4199999999998" type="line" smooth="yes"/>
      <point x="272.81513846156" y="1153.77538461539"/>
      <point x="131.69144615383001" y="1226.68307692305"/>
      <point x="59.216923076949996" y="1226.68307692305" type="qcurve"/>
      <point x="59.216923076949996" y="1459.82769230766" type="line"/>
      <point x="310.58513846156" y="1461.55076923078"/>
      <point x="613.73609230766" y="1254.7815384615599"/>
      <point x="573.76141538461" y="1066.82769230766" type="qcurve" smooth="yes"/>
      <point x="530.40387692305" y="846.51230769234" type="line" smooth="yes"/>
      <point x="509.67926153843996" y="745.34384615383"/>
      <point x="629.3375076923401" y="680.95538461539"/>
      <point x="700.46956923078" y="680.95538461539" type="qcurve"/>
      <point x="700.46956923078" y="466.7" type="line"/>
      <point x="629.3375076923401" y="466.7"/>
      <point x="509.67926153843996" y="402.31153846155996"/>
      <point x="530.40387692305" y="301.14307692305" type="qcurve" smooth="yes"/>
      <point x="573.76141538461" y="80.82769230766" type="line" smooth="yes"/>
      <point x="613.56378461539" y="-106.35076923078"/>
      <point x="310.58513846156" y="-313.03384615383"/>
    </contour>
  </outline>
</glyph>
<glyph name="asciitilde" format="2">
  <advance width="1217"/>
  <unicode hex="007E"/>
  <outline>
    <contour>
      <point x="113.71846153844" y="451.06923076922" type="qcurve"/>
      <point x="113.71846153844" y="786.00461538461" type="line"/>
      <point x="162.56" y="844.59692307695"/>
      <point x="300.60153846156004" y="908.76923076922"/>
      <point x="370.91076923078003" y="909.68307692305" type="qcurve" smooth="yes"/>
      <point x="436.6" y="910.59692307695"/>
      <point x="559.27076923078" y="862.23384615383"/>
      <point x="626.3415384615599" y="826.6784615384399" type="qcurve" smooth="yes"/>
      <point x="686.8599999999999" y="794.40615384617"/>
      <point x="797.01692307695" y="752.25076923078"/>
      <point x="856.92" y="752.25076923078" type="qcurve" smooth="yes"/>
      <point x="924.72" y="752.25076923078"/>
      <point x="1054.38307692305" y="827.71384615383"/>
      <point x="1104.34461538461" y="894.62769230766" type="qcurve"/>
      <point x="1104.34461538461" y="553.85692307695" type="line"/>
      <point x="1056.53692307695" y="498.28"/>
      <point x="927.8738461538301" y="434.48615384617"/>
      <point x="858.09230769234" y="434.48615384617" type="qcurve" smooth="yes"/>
      <point x="792.58923076922" y="434.48615384617"/>
      <point x="669.06769230766" y="481.82153846156"/>
      <point x="599.98769230766" y="519.17692307695" type="qcurve" smooth="yes"/>
      <point x="539.48615384617" y="551.23230769234"/>
      <point x="428.67384615382997" y="590.88461538461"/>
      <point x="368.92923076922" y="590.88461538461" type="qcurve" smooth="yes"/>
      <point x="297.84461538461" y="590.88461538461"/>
      <point x="161.87076923078" y="516.0876923076601"/>
    </contour>
  </outline>
</glyph>
<glyph name="exclamdown" format="2">
  <advance width="717"/>
  <unicode hex="00A1"/>
  <outline>
    <contour>
      <point x="566.3" y="989.3" type="qcurve" smooth="yes"/>
      <point x="566.3" y="914.4"/>
      <point x="459.6" y="807.3"/>
      <point x="359.0" y="807.3" type="qcurve" smooth="yes"/>
      <point x="258.4" y="807.3"/>
      <point x="150.3" y="914.4"/>
      <point x="150.3" y="989.3" type="qcurve" smooth="yes"/>
      <point x="150.3" y="1064.9"/>
      <point x="257.7" y="1172.0"/>
      <point x="358.3" y="1172.0" type="qcurve" smooth="yes"/>
      <point x="459.6" y="1172.0"/>
      <point x="566.3" y="1064.9"/>
    </contour>
    <contour>
      <point x="508.9" y="665.1" type="line"/>
      <point x="534.4" y="-306.0" type="line"/>
      <point x="182.2" y="-306.0" type="line"/>
      <point x="209.1" y="665.1" type="line"/>
    </contour>
  </outline>
</glyph>
<glyph name="cent" format="2">
  <advance width="1151"/>
  <unicode hex="00A2"/>
  <outline>
    <contour>
      <point x="612.8" y="378.6" type="qcurve" smooth="yes"/>
      <point x="700.6" y="378.6"/>
      <point x="784.5" y="469.6"/>
      <point x="786.6" y="533.3" type="qcurve"/>
      <point x="1118.0" y="533.3" type="line"/>
      <point x="1115.6" y="366.9"/>
      <point x="843.3" y="131.4"/>
      <point x="617.0" y="131.4" type="qcurve" smooth="yes"/>
      <point x="364.2" y="131.4"/>
      <point x="62.2" y="426.7"/>
      <point x="62.2" y="674.2" type="qcurve" smooth="yes"/>
      <point x="62.2" y="709.2" type="line" smooth="yes"/>
      <point x="62.2" y="956.7"/>
      <point x="363.5" y="1251.3"/>
      <point x="617.0" y="1251.3" type="qcurve" smooth="yes"/>
      <point x="848.0" y="1251.3"/>
      <point x="1103.3" y="1021.1"/>
      <point x="1110.3" y="842.5" type="qcurve"/>
      <point x="787.3" y="842.5" type="line"/>
      <point x="785.2" y="915.6"/>
      <point x="691.3" y="1003.4"/>
      <point x="613.5" y="1003.4" type="qcurve" smooth="yes"/>
      <point x="509.29999999999995" y="1003.4"/>
      <point x="410.6" y="855.5"/>
      <point x="410.6" y="732.3" type="qcurve" smooth="yes"/>
      <point x="410.6" y="651.1" type="line" smooth="yes"/>
      <point x="410.6" y="526.6"/>
      <point x="503.79999999999995" y="378.6"/>
    </contour>
    <contour>
      <point x="532.0" y="0.0" type="line"/>
      <point x="532.0" y="237.0" type="line"/>
      <point x="537.0" y="251.0" type="line"/>
      <point x="537.0" y="708.0" type="line"/>
      <point x="677.0" y="708.0" type="line"/>
      <point x="677.0" y="250.0" type="line"/>
      <point x="682.0" y="240.0" type="line"/>
      <point x="682.0" y="0.0" type="line"/>
    </contour>
    <contour>
      <point x="537.0" y="708.0" type="line"/>
      <point x="537.0" y="1182.0" type="line"/>
      <point x="532.0" y="1192.0" type="line"/>
      <point x="532.0" y="1402.0" type="line"/>
      <point x="682.0" y="1402.0" type="line"/>
      <point x="682.0" y="1192.0" type="line"/>
      <point x="677.0" y="1179.0" type="line"/>
      <point x="677.0" y="708.0" type="line"/>
    </contour>
  </outline>
</glyph>
<glyph name="sterling" format="2">
  <advance width="1174"/>
  <unicode hex="00A3"/>
  <outline>
    <contour>
      <point x="1168.0" y="0.0" type="line"/>
      <point x="36.0" y="0.0" type="line"/>
      <point x="36.0" y="243.3" type="line"/>
      <point x="92.0" y="243.3" type="line" smooth="yes"/>
      <point x="184.0" y="243.3"/>
      <point x="257.0" y="400.3"/>
      <point x="246.5" y="509.7" type="qcurve" smooth="yes"/>
      <point x="195.0" y="1039.0" type="line" smooth="yes"/>
      <point x="175.6" y="1243.4"/>
      <point x="412.9" y="1476.0"/>
      <point x="651.0" y="1476.0" type="qcurve" smooth="yes"/>
      <point x="877.4" y="1476.0"/>
      <point x="1124.0" y="1253.2"/>
      <point x="1124.0" y="1054.0" type="qcurve" smooth="yes"/>
      <point x="1124.0" y="1038.0" type="line"/>
      <point x="792.0" y="1038.0" type="line"/>
      <point x="792.0" y="1054.0" type="line" smooth="yes"/>
      <point x="792.0" y="1154.3"/>
      <point x="717.7" y="1253.0"/>
      <point x="653.0" y="1253.0" type="qcurve" smooth="yes"/>
      <point x="584.0" y="1253.0"/>
      <point x="512.5" y="1147.2"/>
      <point x="523.0" y="1039.0" type="qcurve" smooth="yes"/>
      <point x="570.5" y="540.9" type="line" smooth="yes"/>
      <point x="580.7" y="436.4"/>
      <point x="518.0" y="279.1"/>
      <point x="448.0" y="247.89999999999998" type="qcurve"/>
      <point x="1168.0" y="247.89999999999998" type="line"/>
    </contour>
    <contour>
      <point x="925.5" y="592.1" type="line"/>
      <point x="52.0" y="592.1" type="line"/>
      <point x="52.0" y="787.7" type="line"/>
      <point x="925.5" y="787.7" type="line"/>
    </contour>
  </outline>
</glyph>
<glyph name="currency" format="2">
  <advance width="1283"/>
  <unicode hex="00A4"/>
  <guideline x="0" y="901.0" angle="0" identifier="bRYxxRaQQf"/>
  <guideline x="0" y="555.0" angle="0" identifier="917FhrihjR"/>
  <outline>
    <contour>
      <point x="368.8" y="712.0" type="qcurve"/>
      <point x="368.8" y="589.4"/>
      <point x="526.2" y="425.5"/>
      <point x="638.3" y="425.5" type="qcurve" smooth="yes"/>
      <point x="749.4" y="425.5"/>
      <point x="905.8" y="589.4"/>
      <point x="905.8" y="712.0" type="qcurve" smooth="yes"/>
      <point x="905.8" y="832.6"/>
      <point x="749.4" y="996.5"/>
      <point x="638.3" y="996.5" type="qcurve" smooth="yes"/>
      <point x="526.2" y="996.5"/>
      <point x="368.8" y="832.6"/>
    </contour>
    <contour>
      <point x="110.9" y="718.0" type="qcurve"/>
      <point x="110.9" y="946.3"/>
      <point x="424.4" y="1255.8"/>
      <point x="637.3" y="1255.8" type="qcurve" smooth="yes"/>
      <point x="850.2" y="1255.8"/>
      <point x="1163.7" y="946.3"/>
      <point x="1163.7" y="718.0" type="qcurve" smooth="yes"/>
      <point x="1163.7" y="491.4"/>
      <point x="850.2" y="178.2"/>
      <point x="637.3" y="178.2" type="qcurve" smooth="yes"/>
      <point x="424.4" y="178.2"/>
      <point x="110.9" y="491.4"/>
    </contour>
    <contour>
      <point x="1214.9" y="1204.7" type="line"/>
      <point x="1000.3" y="985.4" type="line"/>
      <point x="870.6" y="1120.8" type="line"/>
      <point x="1085.2" y="1340.1" type="line"/>
    </contour>
    <contour>
      <point x="381.9" y="329.5" type="line"/>
      <point x="167.3" y="110.2" type="line"/>
      <point x="38.599999999999994" y="244.6" type="line"/>
      <point x="253.2" y="462.9" type="line"/>
    </contour>
    <contour>
      <point x="1113.3" y="117.9" type="line"/>
      <point x="898.7" y="337.2" type="line"/>
      <point x="1029.4" y="470.9" type="line"/>
      <point x="1244.0" y="253.3" type="line"/>
    </contour>
    <contour>
      <point x="271.6" y="1000.1" type="line"/>
      <point x="57.0" y="1219.4" type="line"/>
      <point x="185.7" y="1353.8" type="line"/>
      <point x="400.3" y="1134.5" type="line"/>
    </contour>
  </outline>
</glyph>
<glyph name="yen" format="2">
  <advance width="1204"/>
  <unicode hex="00A5"/>
  <outline>
    <contour>
      <point x="59.0" y="290.0" type="line"/>
      <point x="59.0" y="470.0" type="line"/>
      <point x="1145.0" y="470.0" type="line"/>
      <point x="1145.0" y="290.0" type="line"/>
    </contour>
    <contour>
      <point x="59.0" y="600.0" type="line"/>
      <point x="59.0" y="775.0" type="line"/>
      <point x="425.0" y="775.0" type="line"/>
      <point x="478.0" y="669.0" type="line"/>
      <point x="727.0" y="669.0" type="line"/>
      <point x="775.0" y="775.0" type="line"/>
      <point x="1145.0" y="775.0" type="line"/>
      <point x="1145.0" y="600.0" type="line"/>
    </contour>
    <contour>
      <point x="436.0" y="0.0" type="line"/>
      <point x="436.0" y="548.0" type="line"/>
      <point x="-19.0" y="1456.0" type="line"/>
      <point x="358.0" y="1456.0" type="line"/>
      <point x="565.4" y="999.5" type="line" smooth="yes"/>
      <point x="579.4" y="969.5"/>
      <point x="612.4" y="866.5"/>
      <point x="619.4" y="829.5" type="qcurve"/>
      <point x="631.0" y="829.5" type="line"/>
      <point x="640.0" y="885.5"/>
      <point x="671.0" y="969.5"/>
      <point x="685.0" y="999.5" type="qcurve" smooth="yes"/>
      <point x="895.7" y="1456.0" type="line"/>
      <point x="1215.0" y="1456.0" type="line"/>
      <point x="760.0" y="548.0" type="line"/>
      <point x="760.0" y="0.0" type="line"/>
    </contour>
  </outline>
</glyph>
<glyph name="section" format="2">
  <advance width="1400"/>
  <unicode hex="00A7"/>
  <guideline x="0" y="1658.0" angle="0" identifier="QzZ5gIiCyn"/>
  <guideline x="0" y="578.0" angle="0" identifier="9Hxjf2sdFw"/>
  <outline>
    <contour>
      <point x="840.8" y="62.30000000000001" type="qcurve"/>
      <point x="840.8" y="331.8" type="line"/>
      <point x="888.5" y="343.0"/>
      <point x="949.8" y="410.3"/>
      <point x="949.8" y="454.6" type="qcurve"/>
      <point x="949.8" y="525.2"/>
      <point x="839.5" y="607.6"/>
      <point x="646.6" y="657.7" type="qcurve" smooth="yes"/>
      <point x="434.7" y="710.7"/>
      <point x="172.9" y="882.5"/>
      <point x="172.2" y="1077.2" type="qcurve" smooth="yes"/>
      <point x="172.2" y="1281.2"/>
      <point x="470.0" y="1500.5"/>
      <point x="693.7" y="1500.8" type="qcurve" smooth="yes"/>
      <point x="913.3" y="1501.1"/>
      <point x="1179.3" y="1274.4"/>
      <point x="1179.0" y="1062.9" type="qcurve"/>
      <point x="872.6" y="1062.9" type="line"/>
      <point x="872.9" y="1141.9"/>
      <point x="781.8" y="1242.5"/>
      <point x="695.1" y="1242.5" type="qcurve" smooth="yes"/>
      <point x="602.0" y="1242.5"/>
      <point x="526.9" y="1173.2"/>
      <point x="526.9" y="1109.2" type="qcurve" smooth="yes"/>
      <point x="526.9" y="1043.4"/>
      <point x="627.5" y="986.2"/>
      <point x="821.2" y="934.8" type="qcurve" smooth="yes"/>
      <point x="1028.3" y="879.6"/>
      <point x="1307.2" y="674.4"/>
      <point x="1307.9" y="475.2" type="qcurve" smooth="yes"/>
      <point x="1307.9" y="288.4"/>
      <point x="1045.7" y="79.80000000000001"/>
    </contour>
    <contour>
      <point x="581.1" y="940.9" type="qcurve"/>
      <point x="580.8" y="681.1" type="line"/>
      <point x="519.5" y="673.4"/>
      <point x="455.7" y="606.3"/>
      <point x="455.7" y="557.9" type="qcurve" smooth="yes"/>
      <point x="455.7" y="496.1"/>
      <point x="563.2" y="434.6"/>
      <point x="753.6" y="380.0" type="qcurve" smooth="yes"/>
      <point x="958.3" y="322.0"/>
      <point x="1227.9" y="112.9"/>
      <point x="1228.6" y="-92.7" type="qcurve" smooth="yes"/>
      <point x="1228.6" y="-312.7"/>
      <point x="913.7" y="-537.0"/>
      <point x="664.1" y="-537.0" type="qcurve" smooth="yes"/>
      <point x="417.3" y="-537.0"/>
      <point x="89.0" y="-318.4"/>
      <point x="89.0" y="-52.400000000000006" type="qcurve"/>
      <point x="441.29999999999995" y="-51.8" type="line"/>
      <point x="441.29999999999995" y="-185.2"/>
      <point x="570.0" y="-280.1"/>
      <point x="663.4" y="-280.1" type="qcurve" smooth="yes"/>
      <point x="759.4" y="-280.1"/>
      <point x="875.6" y="-202.0"/>
      <point x="875.6" y="-131.1" type="qcurve" smooth="yes"/>
      <point x="875.6" y="-58.8"/>
      <point x="772.8" y="26.10000000000001"/>
      <point x="573.6" y="75.60000000000001" type="qcurve" smooth="yes"/>
      <point x="364.1" y="126.80000000000001"/>
      <point x="96.6" y="335.3"/>
      <point x="95.9" y="515.4" type="qcurve" smooth="yes"/>
      <point x="95.9" y="693.4"/>
      <point x="369.4" y="929.0"/>
    </contour>
  </outline>
</glyph>
<glyph name="dieresis" format="2">
  <advance width="1024"/>
  <unicode hex="00A8"/>
  <outline>
    <contour>
      <point x="98.10000000000001" y="1330.6" type="qcurve" smooth="yes"/>
      <point x="98.10000000000001" y="1396.6"/>
      <point x="185.6" y="1485.2"/>
      <point x="267.3" y="1485.2" type="qcurve" smooth="yes"/>
      <point x="348.6" y="1485.2"/>
      <point x="436.8" y="1396.6"/>
      <point x="436.8" y="1330.6" type="qcurve" smooth="yes"/>
      <point x="436.8" y="1265.9"/>
      <point x="348.6" y="1176.9"/>
      <point x="266.6" y="1176.9" type="qcurve" smooth="yes"/>
      <point x="184.9" y="1176.9"/>
      <point x="98.10000000000001" y="1265.9"/>
    </contour>
    <contour>
      <point x="586.5" y="1330.0" type="qcurve" smooth="yes"/>
      <point x="586.5" y="1396.0"/>
      <point x="673.7" y="1484.6"/>
      <point x="755.7" y="1484.6" type="qcurve" smooth="yes"/>
      <point x="837.4" y="1484.6"/>
      <point x="925.9" y="1396.0"/>
      <point x="925.9" y="1330.0" type="qcurve" smooth="yes"/>
      <point x="925.9" y="1265.3"/>
      <point x="837.4" y="1176.3"/>
      <point x="755.0" y="1176.3" type="qcurve" smooth="yes"/>
      <point x="673.0" y="1176.3"/>
      <point x="586.5" y="1265.3"/>
    </contour>
  </outline>
</glyph>
<glyph name="copyright" format="2">
  <advance width="1812"/>
  <unicode hex="00A9"/>
  <guideline x="0" y="901.0" angle="0" identifier="0Pjz0qKr8z"/>
  <guideline x="0" y="555.0" angle="0" identifier="sJo8BlDiJ7"/>
  <outline>
    <contour>
      <point x="1059.4" y="571.2" type="qcurve"/>
      <point x="1356.2" y="571.2" type="line"/>
      <point x="1356.2" y="404.4"/>
      <point x="1103.7" y="204.3"/>
      <point x="913.8" y="204.3" type="qcurve" smooth="yes"/>
      <point x="706.4" y="204.3"/>
      <point x="440.0" y="445.4"/>
      <point x="440.0" y="672.4" type="qcurve" smooth="yes"/>
      <point x="440.0" y="703.7" type="line" smooth="yes"/>
      <point x="440.0" y="930.3"/>
      <point x="706.0" y="1172.8"/>
      <point x="918.9" y="1172.8" type="qcurve" smooth="yes"/>
      <point x="1126.2" y="1172.8"/>
      <point x="1348.1" y="971.1"/>
      <point x="1357.2" y="805.2" type="qcurve"/>
      <point x="1060.4" y="805.2" type="line"/>
      <point x="1060.4" y="875.0"/>
      <point x="986.1" y="948.6"/>
      <point x="915.8" y="948.6" type="qcurve" smooth="yes"/>
      <point x="837.5" y="948.6"/>
      <point x="751.3" y="843.5"/>
      <point x="751.3" y="736.5" type="qcurve" smooth="yes"/>
      <point x="751.3" y="639.2" type="line" smooth="yes"/>
      <point x="751.3" y="531.9"/>
      <point x="836.0" y="426.4"/>
      <point x="917.8" y="426.4" type="qcurve" smooth="yes"/>
      <point x="991.6" y="426.4"/>
      <point x="1059.4" y="497.6"/>
    </contour>
    <contour>
      <point x="237.1" y="687.0" type="qcurve" smooth="yes"/>
      <point x="237.1" y="392.3"/>
      <point x="619.0" y="4.0"/>
      <point x="907.1" y="4.0" type="qcurve" smooth="yes"/>
      <point x="1194.2" y="4.0"/>
      <point x="1576.1" y="392.3"/>
      <point x="1576.1" y="687.0" type="qcurve" smooth="yes"/>
      <point x="1576.1" y="981.3"/>
      <point x="1194.2" y="1367.0"/>
      <point x="907.1" y="1367.0" type="qcurve" smooth="yes"/>
      <point x="619.0" y="1367.0"/>
      <point x="237.1" y="981.3"/>
    </contour>
    <contour>
      <point x="82.1" y="687.0" type="qcurve" smooth="yes"/>
      <point x="82.1" y="1046.7"/>
      <point x="552.1" y="1519.0"/>
      <point x="906.1" y="1519.0" type="qcurve" smooth="yes"/>
      <point x="1259.8" y="1519.0"/>
      <point x="1730.8" y="1046.7"/>
      <point x="1730.8" y="687.0" type="qcurve" smooth="yes"/>
      <point x="1730.8" y="327.2"/>
      <point x="1259.8" y="-147.0"/>
      <point x="906.1" y="-147.0" type="qcurve" smooth="yes"/>
      <point x="552.1" y="-147.0"/>
      <point x="82.1" y="327.2"/>
    </contour>
  </outline>
</glyph>
<glyph name="ordfeminine" format="2">
  <advance width="916"/>
  <unicode hex="00AA"/>
  <guideline x="0" y="1681.0" angle="0" identifier="3CJlALCfkl"/>
  <guideline x="0" y="909.0" angle="0" identifier="Zdl6NZVQAy"/>
  <outline>
    <contour>
      <point x="562.6" y="826.3" type="line"/>
      <point x="562.6" y="798.6"/>
      <point x="585.4" y="726.9"/>
      <point x="601.4" y="706.0" type="qcurve"/>
      <point x="842.1" y="706.0" type="line"/>
      <point x="827.4" y="745.5"/>
      <point x="810.5" y="829.6"/>
      <point x="810.5" y="887.0" type="qcurve" smooth="yes"/>
      <point x="810.5" y="1214.3" type="line" smooth="yes"/>
      <point x="810.5" y="1349.9"/>
      <point x="628.4" y="1477.0"/>
      <point x="473.1" y="1477.0" type="qcurve" smooth="yes"/>
      <point x="320.9" y="1477.0"/>
      <point x="117.4" y="1349.0"/>
      <point x="117.4" y="1242.1" type="qcurve" smooth="yes"/>
      <point x="117.4" y="1220.7" type="line"/>
      <point x="362.7" y="1220.7" type="line"/>
      <point x="362.7" y="1237.9" type="line" smooth="yes"/>
      <point x="362.7" y="1271.0"/>
      <point x="411.1" y="1310.3"/>
      <point x="464.6" y="1310.3" type="qcurve" smooth="yes"/>
      <point x="516.9" y="1310.3"/>
      <point x="562.6" y="1260.6"/>
      <point x="562.6" y="1216.0" type="qcurve" smooth="yes"/>
    </contour>
    <contour>
      <point x="608.4" y="1167.9" type="line"/>
      <point x="439.2" y="1167.9" type="line" smooth="yes"/>
      <point x="281.4" y="1167.9"/>
      <point x="86.4" y="1053.2"/>
      <point x="86.4" y="923.6" type="qcurve" smooth="yes"/>
      <point x="86.4" y="808.3"/>
      <point x="228.8" y="692.7"/>
      <point x="343.6" y="692.7" type="qcurve" smooth="yes"/>
      <point x="434.8" y="692.7"/>
      <point x="562.3" y="761.4"/>
      <point x="596.9" y="801.3" type="qcurve"/>
      <point x="582.4" y="943.4" type="line"/>
      <point x="571.9" y="908.2"/>
      <point x="487.2" y="857.7"/>
      <point x="435.8" y="857.7" type="qcurve" smooth="yes"/>
      <point x="384.4" y="857.7"/>
      <point x="337.2" y="900.0"/>
      <point x="337.2" y="937.4" type="qcurve" smooth="yes"/>
      <point x="337.2" y="977.4"/>
      <point x="401.3" y="1023.1"/>
      <point x="470.3" y="1023.1" type="qcurve" smooth="yes"/>
      <point x="608.4" y="1023.1" type="line"/>
    </contour>
  </outline>
</glyph>
<glyph name="guillemotleft" format="2">
  <advance width="1106"/>
  <unicode hex="00AB"/>
  <guideline x="0" y="901.0" angle="0" identifier="ZftBQarVKw"/>
  <guideline x="0" y="555.0" angle="0" identifier="MVJpdoVRVd"/>
  <outline>
    <contour>
      <point x="59.7" y="493.3" type="line"/>
      <point x="59.7" y="609.7" type="line"/>
      <point x="354.7" y="956.0" type="line"/>
      <point x="593.0" y="956.0" type="line"/>
      <point x="328.7" y="551.0" type="line"/>
      <point x="593.0" y="146.0" type="line"/>
      <point x="354.7" y="146.0" type="line"/>
    </contour>
    <contour>
      <point x="548.0" y="493.3" type="line"/>
      <point x="548.0" y="609.7" type="line"/>
      <point x="843.0" y="956.0" type="line"/>
      <point x="1081.3" y="956.0" type="line"/>
      <point x="817.0" y="551.0" type="line"/>
      <point x="1081.3" y="146.0" type="line"/>
      <point x="843.0" y="146.0" type="line"/>
    </contour>
  </outline>
</glyph>
<glyph name="logicalnot" format="2">
  <advance width="1071"/>
  <unicode hex="00AC"/>
  <outline>
    <contour>
      <point x="993.1" y="822.0" type="line"/>
      <point x="993.1" y="306.0" type="line"/>
      <point x="670.2" y="306.0" type="line"/>
      <point x="670.2" y="560.7" type="line"/>
      <point x="66.4" y="560.7" type="line"/>
      <point x="66.4" y="822.0" type="line"/>
    </contour>
  </outline>
</glyph>
<glyph name="registered" format="2">
  <advance width="1812"/>
  <unicode hex="00AE"/>
  <outline>
    <contour>
      <point x="82.1" y="687.0" type="qcurve" smooth="yes"/>
      <point x="82.1" y="1046.7"/>
      <point x="552.1" y="1519.0"/>
      <point x="906.1" y="1519.0" type="qcurve" smooth="yes"/>
      <point x="1259.8" y="1519.0"/>
      <point x="1730.8" y="1046.7"/>
      <point x="1730.8" y="687.0" type="qcurve" smooth="yes"/>
      <point x="1730.8" y="327.2"/>
      <point x="1259.8" y="-147.0"/>
      <point x="906.1" y="-147.0" type="qcurve" smooth="yes"/>
      <point x="552.1" y="-147.0"/>
      <point x="82.1" y="327.2"/>
    </contour>
    <contour>
      <point x="237.1" y="687.0" type="qcurve" smooth="yes"/>
      <point x="237.1" y="392.3"/>
      <point x="619.0" y="4.0"/>
      <point x="907.1" y="4.0" type="qcurve" smooth="yes"/>
      <point x="1194.2" y="4.0"/>
      <point x="1576.1" y="392.3"/>
      <point x="1576.1" y="687.0" type="qcurve" smooth="yes"/>
      <point x="1576.1" y="981.3"/>
      <point x="1194.2" y="1367.0"/>
      <point x="907.1" y="1367.0" type="qcurve" smooth="yes"/>
      <point x="619.0" y="1367.0"/>
      <point x="237.1" y="981.3"/>
    </contour>
    <contour>
      <point x="891.4" y="574.6" type="line"/>
      <point x="797.0" y="574.6" type="line"/>
      <point x="797.0" y="225.0" type="line"/>
      <point x="558.5" y="225.0" type="line"/>
      <point x="558.5" y="1158.7" type="line"/>
      <point x="918.3" y="1158.7" type="line" smooth="yes"/>
      <point x="1093.8" y="1158.7"/>
      <point x="1297.1" y="1014.5"/>
      <point x="1297.1" y="872.1" type="qcurve" smooth="yes"/>
      <point x="1297.1" y="766.8"/>
      <point x="1181.8" y="621.8"/>
      <point x="1085.4" y="603.3" type="qcurve"/>
      <point x="1101.7" y="591.5"/>
      <point x="1127.4" y="562.5"/>
      <point x="1141.6" y="538.4" type="qcurve" smooth="yes"/>
      <point x="1309.9" y="251.4" type="line"/>
      <point x="1309.9" y="225.0" type="line"/>
      <point x="1057.4" y="225.0" type="line"/>
    </contour>
    <contour>
      <point x="909.5" y="978.3" type="qcurve" smooth="yes"/>
      <point x="797.0" y="978.3" type="line"/>
      <point x="797.0" y="745.7" type="line"/>
      <point x="917.0" y="745.7" type="line" smooth="yes"/>
      <point x="984.4" y="745.7"/>
      <point x="1053.8" y="799.9"/>
      <point x="1053.8" y="859.0" type="qcurve" smooth="yes"/>
      <point x="1054.5" y="922.5"/>
      <point x="990.4" y="978.0"/>
    </contour>
  </outline>
</glyph>
<glyph name="macron" format="2">
  <advance width="1024"/>
  <unicode hex="00AF"/>
  <outline>
    <contour>
      <point x="854.0" y="1500.0" type="line"/>
      <point x="854.0" y="1278.0" type="line"/>
      <point x="170.0" y="1278.0" type="line"/>
      <point x="170.0" y="1500.0" type="line"/>
    </contour>
  </outline>
</glyph>
<glyph name="degree" format="2">
  <advance width="747"/>
  <unicode hex="00B0"/>
  <outline>
    <contour>
      <point x="95.30000000000001" y="1191.1" type="qcurve"/>
      <point x="95.30000000000001" y="1307.6"/>
      <point x="261.7" y="1477.0"/>
      <point x="376.2" y="1477.0" type="qcurve" smooth="yes"/>
      <point x="489.7" y="1477.0"/>
      <point x="652.4" y="1307.59104477611"/>
      <point x="652.4" y="1191.1" type="qcurve" smooth="yes"/>
      <point x="652.4" y="1073.6850746268801"/>
      <point x="489.69552238807" y="908.2"/>
      <point x="376.2" y="908.2" type="qcurve" smooth="yes"/>
      <point x="261.78059701492" y="908.2"/>
      <point x="95.30000000000001" y="1072.9"/>
    </contour>
    <contour>
      <point x="248.7" y="1191.1" type="qcurve"/>
      <point x="248.7" y="1133.9328358209"/>
      <point x="321.58059701492" y="1058.6"/>
      <point x="376.2" y="1058.6" type="qcurve" smooth="yes"/>
      <point x="429.41940298508" y="1058.6"/>
      <point x="499.0" y="1133.9328358209"/>
      <point x="499.0" y="1191.1" type="qcurve" smooth="yes"/>
      <point x="499.0" y="1249.89104477611"/>
      <point x="429.41940298508" y="1326.6"/>
      <point x="376.2" y="1326.6" type="qcurve" smooth="yes"/>
      <point x="321.58059701492" y="1326.6"/>
      <point x="248.7" y="1249.89104477611"/>
    </contour>
  </outline>
</glyph>
<glyph name="plusminus" format="2">
  <advance width="1024"/>
  <unicode hex="00B1"/>
  <outline>
    <contour>
      <point x="52.8" y="557.8" type="line"/>
      <point x="52.8" y="831.7" type="line"/>
      <point x="971.2" y="831.7" type="line"/>
      <point x="971.2" y="557.8" type="line"/>
    </contour>
    <contour>
      <point x="345.0" y="199.7" type="line"/>
      <point x="345.0" y="1194.3" type="line"/>
      <point x="678.3" y="1194.3" type="line"/>
      <point x="678.3" y="199.7" type="line"/>
    </contour>
    <contour>
      <point x="57.0" y="1.0" type="line"/>
      <point x="57.0" y="274.9" type="line"/>
      <point x="967.0" y="274.9" type="line"/>
      <point x="967.0" y="1.0" type="line"/>
    </contour>
  </outline>
</glyph>
<glyph name="twosuperior" format="2">
  <advance width="752"/>
  <unicode hex="00B2"/>
  <outline>
    <contour>
      <point x="63.3" y="697.0" type="line"/>
      <point x="63.3" y="815.5" type="line"/>
      <point x="348.5" y="1104.5" type="line" smooth="yes"/>
      <point x="396.9" y="1152.2"/>
      <point x="444.6" y="1227.2"/>
      <point x="444.6" y="1260.9" type="qcurve" smooth="yes"/>
      <point x="444.6" y="1294.9"/>
      <point x="411.5" y="1330.2"/>
      <point x="369.3" y="1330.2" type="qcurve" smooth="yes"/>
      <point x="324.6" y="1330.2"/>
      <point x="284.4" y="1269.5"/>
      <point x="284.7" y="1195.2" type="qcurve"/>
      <point x="52.3" y="1195.2" type="line"/>
      <point x="52.0" y="1338.8"/>
      <point x="215.6" y="1487.0"/>
      <point x="366.7" y="1487.0" type="qcurve" smooth="yes"/>
      <point x="529.4" y="1487.0"/>
      <point x="681.4" y="1368.8"/>
      <point x="682.1" y="1266.4" type="qcurve" smooth="yes"/>
      <point x="682.1" y="1186.4"/>
      <point x="591.0" y="1070.4"/>
      <point x="521.9" y="1003.2" type="qcurve" smooth="yes"/>
      <point x="372.0" y="859.0" type="line"/>
      <point x="699.8" y="859.0" type="line"/>
      <point x="699.8" y="697.0" type="line"/>
    </contour>
  </outline>
</glyph>
<glyph name="threesuperior" format="2">
  <advance width="751"/>
  <unicode hex="00B3"/>
  <outline>
    <contour>
      <point x="43.400000000000006" y="929.8" type="qcurve"/>
      <point x="270.4" y="929.8" type="line"/>
      <point x="270.4" y="884.8"/>
      <point x="314.7" y="838.7"/>
      <point x="364.6" y="838.7" type="qcurve" smooth="yes"/>
      <point x="415.4" y="838.7"/>
      <point x="457.0" y="886.5"/>
      <point x="457.0" y="934.8" type="qcurve" smooth="yes"/>
      <point x="457.0" y="980.1"/>
      <point x="406.9" y="1024.5"/>
      <point x="347.2" y="1024.8" type="qcurve" smooth="yes"/>
      <point x="260.4" y="1024.8" type="line"/>
      <point x="260.4" y="1167.8" type="line"/>
      <point x="343.7" y="1167.8" type="line" smooth="yes"/>
      <point x="393.3" y="1167.8"/>
      <point x="437.7" y="1214.0"/>
      <point x="437.7" y="1255.0" type="qcurve" smooth="yes"/>
      <point x="437.7" y="1292.0"/>
      <point x="404.0" y="1332.9"/>
      <point x="358.1" y="1332.9" type="qcurve" smooth="yes"/>
      <point x="317.2" y="1332.9"/>
      <point x="278.6" y="1292.0"/>
      <point x="278.6" y="1246.2" type="qcurve"/>
      <point x="52.3" y="1246.2" type="line"/>
      <point x="52.3" y="1352.1"/>
      <point x="215.1" y="1486.3"/>
      <point x="363.5" y="1486.3" type="qcurve" smooth="yes"/>
      <point x="522.9" y="1486.3"/>
      <point x="671.4" y="1367.1"/>
      <point x="671.4" y="1262.3" type="qcurve" smooth="yes"/>
      <point x="671.4" y="1212.7"/>
      <point x="605.6" y="1124.2"/>
      <point x="537.2" y="1103.6" type="qcurve"/>
      <point x="612.9" y="1086.2"/>
      <point x="692.2" y="992.8"/>
      <point x="692.2" y="922.6" type="qcurve" smooth="yes"/>
      <point x="692.2" y="812.6"/>
      <point x="521.8" y="686.0"/>
      <point x="359.6" y="686.0" type="qcurve" smooth="yes"/>
      <point x="201.4" y="686.0"/>
      <point x="43.400000000000006" y="812.5"/>
    </contour>
  </outline>
</glyph>
<glyph name="acute" format="2">
  <advance width="1024"/>
  <unicode hex="00B4"/>
  <outline>
    <contour>
      <point x="273.1" y="1336.2" type="line"/>
      <point x="534.4" y="1670.1" type="line"/>
      <point x="786.8" y="1518.2" type="line"/>
      <point x="459.1" y="1204.0" type="line"/>
    </contour>
  </outline>
</glyph>
<glyph name="micro" format="2">
  <advance width="1255"/>
  <unicode hex="00B5"/>
  <outline>
    <contour>
      <point x="201.4" y="1052.0" type="line"/>
      <point x="543.5" y="1052.0" type="line"/>
      <point x="411.5" y="371.0" type="line" smooth="yes"/>
      <point x="397.0" y="298.9"/>
      <point x="453.3" y="236.1"/>
      <point x="523.7" y="236.1" type="qcurve" smooth="yes"/>
      <point x="586.1" y="236.1"/>
      <point x="688.6" y="299.9"/>
      <point x="730.4" y="361.2" type="qcurve"/>
      <point x="864.6" y="1052.0" type="line"/>
      <point x="1206.0" y="1052.0" type="line"/>
      <point x="1002.0" y="0.0" type="line"/>
      <point x="678.6" y="0.0" type="line"/>
      <point x="693.8" y="121.0" type="line"/>
      <point x="687.8" y="121.0" type="line"/>
      <point x="635.7" y="49.7"/>
      <point x="517.7" y="-20.0"/>
      <point x="447.1" y="-20.0" type="qcurve" smooth="yes"/>
      <point x="409.5" y="-20.0"/>
      <point x="359.7" y="4.5"/>
      <point x="344.7" y="28.0" type="qcurve"/>
      <point x="259.5" y="-416.0" type="line"/>
      <point x="-82.6" y="-416.0" type="line"/>
    </contour>
  </outline>
</glyph>
<glyph name="paragraph" format="2">
  <advance width="1325"/>
  <unicode hex="00B6"/>
  <guideline x="0" y="901.0" angle="0" identifier="27539Lsr1A"/>
  <guideline x="0" y="555.0" angle="0" identifier="e34wUdCmXR"/>
  <outline>
    <contour>
      <point x="859.7" y="-146.0" type="line"/>
      <point x="596.7" y="-146.0" type="line"/>
      <point x="596.7" y="612.0" type="line"/>
      <point x="499.9" y="612.0" type="line" smooth="yes"/>
      <point x="283.9" y="612.0"/>
      <point x="51.8" y="851.8"/>
      <point x="51.8" y="1034.0" type="qcurve" smooth="yes"/>
      <point x="51.8" y="1214.2"/>
      <point x="283.9" y="1456.0"/>
      <point x="499.9" y="1456.0" type="qcurve" smooth="yes"/>
      <point x="859.7" y="1456.0" type="line"/>
    </contour>
    <contour>
      <point x="1001.7" y="1459.0" type="line"/>
      <point x="1187.7" y="1459.0" type="line"/>
      <point x="1187.7" y="-146.0" type="line"/>
      <point x="1001.7" y="-146.0" type="line"/>
    </contour>
  </outline>
</glyph>
<glyph name="periodcentered" format="2">
  <advance width="689"/>
  <unicode hex="00B7"/>
  <outline>
    <contour>
      <point x="128.4" y="748.3" type="qcurve" smooth="yes"/>
      <point x="128.4" y="829.5"/>
      <point x="236.5" y="943.6"/>
      <point x="337.1" y="943.6" type="qcurve" smooth="yes"/>
      <point x="439.1" y="943.6"/>
      <point x="546.5" y="829.5"/>
      <point x="546.5" y="748.3" type="qcurve" smooth="yes"/>
      <point x="546.5" y="667.1"/>
      <point x="439.1" y="553.0"/>
      <point x="337.1" y="553.0" type="qcurve" smooth="yes"/>
      <point x="236.5" y="553.0"/>
      <point x="128.4" y="667.8"/>
    </contour>
  </outline>
</glyph>
<glyph name="cedilla" format="2">
  <advance width="1024"/>
  <unicode hex="00B8"/>
  <outline>
    <contour>
      <point x="421.8" y="42.0" type="line"/>
      <point x="592.1" y="42.0" type="line"/>
      <point x="561.3" y="-60.7" type="line"/>
      <point x="644.9" y="-72.1"/>
      <point x="777.2" y="-154.4"/>
      <point x="777.2" y="-248.4" type="qcurve" smooth="yes"/>
      <point x="777.2" y="-349.1"/>
      <point x="566.1" y="-476.3"/>
      <point x="320.7" y="-474.9" type="qcurve"/>
      <point x="311.6" y="-344.1" type="line"/>
      <point x="444.8" y="-344.1"/>
      <point x="533.6" y="-300.6"/>
      <point x="533.6" y="-250.4" type="qcurve" smooth="yes"/>
      <point x="533.6" y="-204.9"/>
      <point x="462.7" y="-170.7"/>
      <point x="375.2" y="-163.7" type="qcurve"/>
    </contour>
  </outline>
</glyph>
<glyph name="onesuperior" format="2">
  <advance width="751"/>
  <unicode hex="00B9"/>
  <outline>
    <contour>
      <point x="102.0" y="1184.4" type="line"/>
      <point x="102.0" y="1374.2" type="line"/>
      <point x="402.4" y="1486.0" type="line"/>
      <point x="526.2" y="1486.0" type="line"/>
      <point x="526.2" y="697.0" type="line"/>
      <point x="311.0" y="697.0" type="line"/>
      <point x="311.0" y="1258.6" type="line"/>
    </contour>
  </outline>
</glyph>
<glyph name="ordmasculine" format="2">
  <advance width="932"/>
  <unicode hex="00BA"/>
  <guideline x="0" y="1975.0" angle="0" identifier="Jnt0R9CyOf"/>
  <outline>
    <contour>
      <point x="72.6" y="1064.0" type="qcurve"/>
      <point x="72.6" y="1104.4" type="line"/>
      <point x="72.6" y="1278.7"/>
      <point x="291.9" y="1477.7"/>
      <point x="465.7" y="1477.7" type="qcurve" smooth="yes"/>
      <point x="639.1" y="1477.7"/>
      <point x="858.1" y="1278.7"/>
      <point x="858.8" y="1104.4" type="qcurve"/>
      <point x="858.8" y="1064.0" type="line"/>
      <point x="858.1" y="890.4"/>
      <point x="639.4" y="691.0"/>
      <point x="466.3" y="691.0" type="qcurve" smooth="yes"/>
      <point x="292.2" y="691.0"/>
      <point x="72.6" y="890.4"/>
    </contour>
    <contour>
      <point x="327.3" y="1120.5" type="qcurve"/>
      <point x="327.3" y="1047.9" type="line"/>
      <point x="327.3" y="955.5"/>
      <point x="400.2" y="879.7"/>
      <point x="466.3" y="879.7" type="qcurve" smooth="yes"/>
      <point x="530.8" y="879.7"/>
      <point x="603.7" y="955.5"/>
      <point x="603.7" y="1047.9" type="qcurve"/>
      <point x="603.7" y="1120.5" type="line"/>
      <point x="603.7" y="1211.6"/>
      <point x="527.7" y="1287.7"/>
      <point x="465.0" y="1287.7" type="qcurve" smooth="yes"/>
      <point x="402.3" y="1287.7"/>
      <point x="327.3" y="1211.6"/>
    </contour>
  </outline>
</glyph>
<glyph name="guillemotright" format="2">
  <advance width="1106"/>
  <unicode hex="00BB"/>
  <guideline x="0" y="98.0" angle="0" identifier="MTEldNnfdj"/>
  <guideline x="0" y="443.0" angle="0" identifier="G9bQni2n1K"/>
  <outline>
    <contour>
      <point x="24.700000000000003" y="146.0" type="line"/>
      <point x="289.0" y="551.0" type="line"/>
      <point x="24.700000000000003" y="956.0" type="line"/>
      <point x="263.0" y="956.0" type="line"/>
      <point x="558.0" y="609.0" type="line"/>
      <point x="558.0" y="492.6" type="line"/>
      <point x="263.0" y="146.0" type="line"/>
    </contour>
    <contour>
      <point x="513.0" y="146.0" type="line"/>
      <point x="777.3" y="551.0" type="line"/>
      <point x="513.0" y="956.0" type="line"/>
      <point x="751.3" y="956.0" type="line"/>
      <point x="1046.3" y="609.0" type="line"/>
      <point x="1046.3" y="492.6" type="line"/>
      <point x="751.3" y="146.0" type="line"/>
    </contour>
  </outline>
</glyph>
<glyph name="questiondown" format="2">
  <advance width="1175"/>
  <unicode hex="00BF"/>
  <guideline x="0" y="-181.0" angle="0" identifier="apukwP5ffL"/>
  <guideline x="0" y="921.0" angle="0" identifier="5ZPZZL8Rim"/>
  <outline>
    <contour>
      <point x="829.3" y="987.3" type="qcurve" smooth="yes"/>
      <point x="829.3" y="912.4"/>
      <point x="721.2" y="805.3"/>
      <point x="620.6" y="805.3" type="qcurve" smooth="yes"/>
      <point x="519.3" y="805.3"/>
      <point x="411.9" y="912.4"/>
      <point x="411.9" y="987.3" type="qcurve" smooth="yes"/>
      <point x="411.9" y="1062.9"/>
      <point x="519.3" y="1170.0"/>
      <point x="620.6" y="1170.0" type="qcurve" smooth="yes"/>
      <point x="721.2" y="1170.0"/>
      <point x="829.3" y="1062.9"/>
    </contour>
    <contour>
      <point x="1076.7" y="116.69999999999999" type="line"/>
      <point x="1076.7" y="75.0" type="line" smooth="yes"/>
      <point x="1076.7" y="-122.2"/>
      <point x="806.3" y="-328.0"/>
      <point x="591.8" y="-328.0" type="qcurve" smooth="yes"/>
      <point x="373.8" y="-328.0"/>
      <point x="96.8" y="-117.1"/>
      <point x="96.8" y="79.5" type="qcurve" smooth="yes"/>
      <point x="96.8" y="218.4"/>
      <point x="235.0" y="400.5"/>
      <point x="327.3" y="463.1" type="qcurve" smooth="yes"/>
      <point x="405.3" y="514.2"/>
      <point x="447.0" y="644.0"/>
      <point x="447.0" y="700.7" type="qcurve" smooth="yes"/>
      <point x="447.0" y="713.5" type="line"/>
      <point x="801.7" y="713.5" type="line"/>
      <point x="801.7" y="698.6" type="line" smooth="yes"/>
      <point x="801.7" y="581.3"/>
      <point x="733.5" y="403.0"/>
      <point x="627.7" y="321.6" type="qcurve" smooth="yes"/>
      <point x="541.5" y="254.6"/>
      <point x="457.1" y="169.0"/>
      <point x="457.1" y="88.6" type="qcurve" smooth="yes"/>
      <point x="457.1" y="-0.20000000000000284"/>
      <point x="520.3" y="-77.80000000000001"/>
      <point x="594.6" y="-77.80000000000001" type="qcurve" smooth="yes"/>
      <point x="662.6" y="-77.80000000000001"/>
      <point x="727.9" y="0.9999999999999929"/>
      <point x="727.9" y="82.69999999999999" type="qcurve" smooth="yes"/>
      <point x="727.2" y="116.69999999999999" type="line"/>
    </contour>
  </outline>
</glyph>
<glyph name="AE" format="2">
  <advance width="1951"/>
  <unicode hex="00C6"/>
  <outline>
    <contour>
      <point x="269.1" y="289.3" type="line"/>
      <point x="357.2" y="549.7" type="line"/>
      <point x="1017.5" y="549.7" type="line"/>
      <point x="1017.5" y="289.3" type="line"/>
    </contour>
    <contour>
      <point x="-29.0" y="0.0" type="line"/>
      <point x="803.0" y="1456.0" type="line"/>
      <point x="1877.3" y="1456.0" type="line"/>
      <point x="1877.3" y="1193.0" type="line"/>
      <point x="1222.1" y="1193.0" type="line"/>
      <point x="1222.1" y="877.6" type="line"/>
      <point x="1786.7" y="877.6" type="line"/>
      <point x="1786.7" y="619.5" type="line"/>
      <point x="1222.1" y="619.5" type="line"/>
      <point x="1222.1" y="261.6" type="line"/>
      <point x="1888.0" y="261.6" type="line"/>
      <point x="1888.0" y="0.0" type="line"/>
      <point x="872.6" y="0.0" type="line"/>
      <point x="872.6" y="1035.0" type="line"/>
      <point x="304.4" y="0.0" type="line"/>
    </contour>
  </outline>
</glyph>
<glyph name="multiply" format="2">
  <advance width="1091"/>
  <unicode hex="00D7"/>
  <outline>
    <contour>
      <point x="249.5" y="181.0" type="line"/>
      <point x="58.2" y="373.5" type="line"/>
      <point x="836.8" y="1155.1" type="line"/>
      <point x="1028.1" y="962.3" type="line"/>
    </contour>
    <contour>
      <point x="833.0" y="181.0" type="line"/>
      <point x="59.8" y="959.7" type="line"/>
      <point x="254.4" y="1155.8" type="line"/>
      <point x="1027.6" y="376.8" type="line"/>
    </contour>
  </outline>
</glyph>
<glyph name="Thorn" format="2">
  <advance width="1311"/>
  <unicode hex="00DE"/>
  <guideline x="0" y="901.0" angle="0" identifier="i9jYwjBDP4"/>
  <guideline x="0" y="555.0" angle="0" identifier="T8KKW8oxop"/>
  <outline>
    <contour>
      <point x="149.0" y="1456.0" type="line"/>
      <point x="498.5" y="1456.0" type="line"/>
      <point x="498.5" y="1214.1" type="line"/>
      <point x="727.5" y="1214.1" type="line" smooth="yes"/>
      <point x="985.6" y="1214.1"/>
      <point x="1263.5" y="972.8"/>
      <point x="1263.5" y="736.6" type="qcurve" smooth="yes"/>
      <point x="1263.5" y="501.1"/>
      <point x="986.3" y="257.3"/>
      <point x="726.8" y="257.3" type="qcurve" smooth="yes"/>
      <point x="499.2" y="257.3" type="line"/>
      <point x="499.2" y="0.0" type="line"/>
      <point x="149.0" y="0.0" type="line"/>
    </contour>
    <contour>
      <point x="688.3" y="957.4" type="qcurve" smooth="yes"/>
      <point x="499.2" y="957.4" type="line"/>
      <point x="499.2" y="511.9" type="line"/>
      <point x="688.3" y="511.9" type="line" smooth="yes"/>
      <point x="814.7" y="511.9"/>
      <point x="914.0" y="618.7"/>
      <point x="914.0" y="735.3" type="qcurve" smooth="yes"/>
      <point x="914.0" y="850.5"/>
      <point x="814.7" y="957.4"/>
    </contour>
  </outline>
</glyph>
<glyph name="germandbls" format="2">
  <advance width="1477"/>
  <unicode hex="00DF"/>
  <outline>
    <contour>
      <point x="457.3" y="1092.0" type="qcurve" name="hr00"/>
      <point x="457.3" y="0.0" type="line"/>
      <point x="122.8" y="0.0" type="line"/>
      <point x="122.8" y="1092.0" type="line" smooth="yes"/>
      <point x="122.8" y="1302.0"/>
      <point x="388.9" y="1534.0"/>
      <point x="638.3" y="1534.0" type="qcurve" smooth="yes"/>
      <point x="858.3" y="1534.0"/>
      <point x="1101.8" y="1366.6"/>
      <point x="1101.8" y="1215.0" type="qcurve" smooth="yes"/>
      <point x="1101.8" y="1145.9"/>
      <point x="1052.5" y="1030.0"/>
      <point x="1002.9" y="968.1" type="qcurve" smooth="yes"/>
      <point x="973.0" y="930.8"/>
      <point x="934.3" y="870.2"/>
      <point x="934.3" y="839.8" type="qcurve" smooth="yes"/>
      <point x="934.3" y="803.0"/>
      <point x="1014.1" y="732.8"/>
      <point x="1165.8" y="670.8" type="qcurve" smooth="yes"/>
      <point x="1321.5" y="608.3"/>
      <point x="1471.2" y="452.3"/>
      <point x="1471.2" y="321.2" type="qcurve" smooth="yes"/>
      <point x="1471.2" y="156.3"/>
      <point x="1217.5" y="-27.0"/>
      <point x="992.4" y="-27.0" type="qcurve" smooth="yes"/>
      <point x="770.3" y="-27.0"/>
      <point x="514.5" y="145.8"/>
      <point x="514.5" y="320.0" type="qcurve" smooth="yes"/>
      <point x="514.5" y="339.7" type="line"/>
      <point x="842.0" y="338.3" type="line"/>
      <point x="842.0" y="316.7" type="line" smooth="yes"/>
      <point x="842.0" y="251.6"/>
      <point x="919.7" y="196.8"/>
      <point x="991.6" y="196.8" type="qcurve" smooth="yes"/>
      <point x="1066.0" y="196.8"/>
      <point x="1134.5" y="253.0"/>
      <point x="1134.5" y="304.8" type="qcurve" smooth="yes"/>
      <point x="1134.5" y="353.5"/>
      <point x="1041.1" y="407.2"/>
      <point x="905.0" y="460.2" type="qcurve" smooth="yes"/>
      <point x="743.4" y="523.5"/>
      <point x="592.4" y="683.6"/>
      <point x="592.4" y="781.6" type="qcurve" smooth="yes"/>
      <point x="592.4" y="840.2"/>
      <point x="658.6" y="958.9"/>
      <point x="723.5" y="1051.2" type="qcurve" smooth="yes"/>
      <point x="746.9" y="1084.2"/>
      <point x="770.7" y="1141.3"/>
      <point x="770.7" y="1173.2" type="qcurve" smooth="yes"/>
      <point x="770.7" y="1239.8"/>
      <point x="696.7" y="1309.5"/>
      <point x="634.3" y="1309.5" type="qcurve" smooth="yes"/>
      <point x="549.5" y="1309.5"/>
      <point x="457.3" y="1199.7"/>
    </contour>
  </outline>
</glyph>
<glyph name="ae" format="2">
  <advance width="1847"/>
  <unicode hex="00E6"/>
  <outline>
    <contour>
      <point x="414.6" y="343.8" type="qcurve" smooth="yes"/>
      <point x="414.6" y="282.5"/>
      <point x="485.0" y="203.6"/>
      <point x="563.5" y="203.6" type="qcurve" smooth="yes"/>
      <point x="651.1" y="203.6"/>
      <point x="752.8" y="309.4"/>
      <point x="752.8" y="391.6" type="qcurve"/>
      <point x="752.8" y="464.9" type="line"/>
      <point x="611.8" y="464.9" type="line" smooth="yes"/>
      <point x="509.6" y="464.9"/>
      <point x="414.6" y="407.2"/>
    </contour>
    <contour>
      <point x="71.8" y="307.7" type="qcurve" smooth="yes"/>
      <point x="71.8" y="494.5"/>
      <point x="351.7" y="664.1"/>
      <point x="562.4" y="664.1" type="qcurve" smooth="yes"/>
      <point x="752.8" y="664.1" type="line"/>
      <point x="752.8" y="725.6" type="line" smooth="yes"/>
      <point x="752.8" y="786.3"/>
      <point x="689.8" y="861.9"/>
      <point x="608.3" y="861.9" type="qcurve" smooth="yes"/>
      <point x="526.8" y="861.9"/>
      <point x="460.2" y="800.0"/>
      <point x="460.2" y="752.5" type="qcurve" smooth="yes"/>
      <point x="460.2" y="732.8" type="line"/>
      <point x="124.0" y="732.8" type="line"/>
      <point x="124.0" y="752.5" type="line" smooth="yes"/>
      <point x="124.0" y="901.3"/>
      <point x="405.1" y="1086.2"/>
      <point x="623.1" y="1086.2" type="qcurve" smooth="yes"/>
      <point x="750.0" y="1086.2"/>
      <point x="924.1" y="1019.7"/>
      <point x="969.1" y="954.6" type="qcurve"/>
      <point x="1022.0" y="1018.6"/>
      <point x="1185.1" y="1086.9"/>
      <point x="1291.2" y="1086.9" type="qcurve" smooth="yes"/>
      <point x="1527.9" y="1086.9"/>
      <point x="1803.3" y="809.8"/>
      <point x="1803.3" y="562.1" type="qcurve" smooth="yes"/>
      <point x="1803.3" y="443.4" type="line"/>
      <point x="986.6" y="443.4" type="line"/>
      <point x="986.6" y="650.2" type="line"/>
      <point x="1466.2" y="650.2" type="line"/>
      <point x="1466.5" y="667.9" type="line"/>
      <point x="1466.2" y="744.1"/>
      <point x="1372.2" y="847.4"/>
      <point x="1284.0" y="847.4" type="qcurve" smooth="yes"/>
      <point x="1190.4" y="847.4"/>
      <point x="1086.4" y="704.3"/>
      <point x="1086.4" y="567.2" type="qcurve" smooth="yes"/>
      <point x="1086.4" y="491.1" type="line" smooth="yes"/>
      <point x="1086.4" y="358.9"/>
      <point x="1199.8" y="216.5"/>
      <point x="1305.8" y="216.5" type="qcurve" smooth="yes"/>
      <point x="1384.1" y="216.5"/>
      <point x="1500.1" y="298.9"/>
      <point x="1536.0" y="351.2" type="qcurve"/>
      <point x="1779.9" y="196.7" type="line"/>
      <point x="1729.9" y="93.0"/>
      <point x="1479.6" y="-30.7"/>
      <point x="1313.5" y="-30.7" type="qcurve" smooth="yes"/>
      <point x="1175.9" y="-30.7"/>
      <point x="952.3" y="59.2"/>
      <point x="882.2" y="145.8" type="qcurve"/>
      <point x="828.6" y="66.1"/>
      <point x="625.1" y="-19.3"/>
      <point x="478.0" y="-19.3" type="qcurve" smooth="yes"/>
      <point x="281.8" y="-19.3"/>
      <point x="71.8" y="143.0"/>
    </contour>
  </outline>
</glyph>
<glyph name="eth" format="2">
  <advance width="1241"/>
  <unicode hex="00F0"/>
  <outline>
    <contour>
      <point x="179.0" y="1376.2" type="qcurve"/>
      <point x="266.1" y="1605.5" type="line"/>
      <point x="664.0" y="1522.8"/>
      <point x="1173.2" y="985.6"/>
      <point x="1173.2" y="633.0" type="qcurve"/>
      <point x="1173.2" y="535.0" type="line"/>
      <point x="1173.2" y="291.8"/>
      <point x="880.6" y="-20.0"/>
      <point x="621.9" y="-20.0" type="qcurve" smooth="yes"/>
      <point x="379.7" y="-20.0"/>
      <point x="68.2" y="258.0"/>
      <point x="68.2" y="468.0" type="qcurve" smooth="yes"/>
      <point x="68.2" y="715.5"/>
      <point x="342.8" y="992.0"/>
      <point x="571.5" y="992.0" type="qcurve" smooth="yes"/>
      <point x="731.4" y="992.0"/>
      <point x="903.6" y="783.7"/>
      <point x="903.6" y="613.0" type="qcurve"/>
      <point x="836.0" y="562.2" type="line"/>
      <point x="836.0" y="636.6"/>
      <point x="730.5" y="738.5"/>
      <point x="629.5" y="738.5" type="qcurve" smooth="yes"/>
      <point x="515.7" y="738.5"/>
      <point x="415.2" y="611.7"/>
      <point x="415.2" y="472.9" type="qcurve" smooth="yes"/>
      <point x="415.2" y="357.6"/>
      <point x="519.2" y="227.89999999999998"/>
      <point x="625.9" y="227.89999999999998" type="qcurve" smooth="yes"/>
      <point x="721.7" y="227.89999999999998"/>
      <point x="828.3" y="379.1"/>
      <point x="828.3" y="507.0" type="qcurve" smooth="yes"/>
      <point x="828.3" y="635.0" type="line" smooth="yes"/>
      <point x="828.3" y="908.4"/>
      <point x="456.1" y="1304.6"/>
    </contour>
    <contour>
      <point x="1081.2" y="1427.0" type="line"/>
      <point x="386.7" y="1030.2" type="line"/>
      <point x="303.7" y="1150.2" type="line"/>
      <point x="998.2" y="1546.0" type="line"/>
    </contour>
  </outline>
</glyph>
<glyph name="thorn" format="2">
  <advance width="1267"/>
  <unicode hex="00FE"/>
  <outline>
    <contour>
      <point x="122.8" y="-416.0" type="line"/>
      <point x="122.8" y="1536.0" type="line"/>
      <point x="453.7" y="1536.0" type="line"/>
      <point x="453.7" y="948.3" type="line"/>
      <point x="488.5" y="1007.0"/>
      <point x="647.0" y="1077.6"/>
      <point x="740.9" y="1077.6" type="qcurve" smooth="yes"/>
      <point x="945.8" y="1077.6"/>
      <point x="1199.1" y="792.3"/>
      <point x="1199.1" y="544.8" type="qcurve" smooth="yes"/>
      <point x="1199.1" y="512.8" type="line" smooth="yes"/>
      <point x="1199.1" y="266.7"/>
      <point x="952.1" y="-20.0"/>
      <point x="754.2" y="-20.0" type="qcurve" smooth="yes"/>
      <point x="661.0" y="-20.0"/>
      <point x="501.2" y="40.2"/>
      <point x="467.5" y="96.0" type="qcurve"/>
      <point x="462.1" y="96.0" type="line"/>
      <point x="459.7" y="-416.0" type="line"/>
    </contour>
    <contour>
      <point x="464.2" y="366.6" type="line"/>
      <point x="484.0" y="312.0"/>
      <point x="591.1" y="233.5"/>
      <point x="660.3" y="233.5" type="qcurve" smooth="yes"/>
      <point x="755.0" y="233.5"/>
      <point x="850.2" y="359.8"/>
      <point x="850.2" y="489.7" type="qcurve" smooth="yes"/>
      <point x="850.2" y="567.2" type="line" smooth="yes"/>
      <point x="850.2" y="697.1"/>
      <point x="755.0" y="823.4"/>
      <point x="658.2" y="823.4" type="qcurve" smooth="yes"/>
      <point x="584.1" y="823.4"/>
      <point x="487.5" y="748.4"/>
      <point x="464.2" y="696.6" type="qcurve"/>
    </contour>
  </outline>
</glyph>
<glyph name="kgreenlandic" format="2">
  <advance width="1133"/>
  <unicode hex="0138"/>
  <outline>
    <contour>
      <point x="466.0" y="1082.0" type="line"/>
      <point x="466.0" y="0.0" type="line"/>
      <point x="124.9" y="0.0" type="line"/>
      <point x="124.9" y="1082.0" type="line"/>
    </contour>
    <contour>
      <point x="1133.2" y="1065.9" type="line"/>
      <point x="689.2" y="399.0" type="line"/>
      <point x="250.0" y="399.0" type="line"/>
      <point x="250.0" y="687.0" type="line"/>
      <point x="516.0" y="687.0" type="line"/>
      <point x="772.0" y="1065.9" type="line"/>
    </contour>
    <contour>
      <point x="792.4" y="0.0" type="line"/>
      <point x="453.8" y="497.0" type="line"/>
      <point x="680.6" y="743.0" type="line"/>
      <point x="1200.0" y="0.0" type="line"/>
    </contour>
  </outline>
</glyph>
<glyph name="OE" format="2">
  <advance width="2012"/>
  <unicode hex="0152"/>
  <outline>
    <contour>
      <point x="755.0" y="1482.6" type="qcurve" smooth="yes"/>
      <point x="805.5" y="1482.6"/>
      <point x="983.8" y="1466.8"/>
      <point x="1056.4" y="1456.0" type="qcurve"/>
      <point x="1938.2" y="1456.0" type="line"/>
      <point x="1938.2" y="1193.0" type="line"/>
      <point x="1280.6" y="1193.0" type="line"/>
      <point x="1280.6" y="877.6" type="line"/>
      <point x="1847.6" y="877.6" type="line"/>
      <point x="1847.6" y="619.8" type="line"/>
      <point x="1280.6" y="619.8" type="line"/>
      <point x="1280.6" y="261.3" type="line"/>
      <point x="1948.9" y="261.3" type="line"/>
      <point x="1948.9" y="0.0" type="line"/>
      <point x="1058.5" y="0.0" type="line"/>
      <point x="985.9" y="-10.5"/>
      <point x="806.8" y="-26.6"/>
      <point x="742.7" y="-26.6" type="qcurve" smooth="yes"/>
      <point x="465.0" y="-26.6"/>
      <point x="93.3" y="328.1"/>
      <point x="93.3" y="682.7" type="qcurve" smooth="yes"/>
      <point x="93.3" y="772.7" type="line" smooth="yes"/>
      <point x="93.3" y="1124.6"/>
      <point x="464.1" y="1482.6"/>
    </contour>
    <contour>
      <point x="456.29999999999995" y="643.5" type="line" smooth="yes"/>
      <point x="456.29999999999995" y="426.4"/>
      <point x="620.7" y="233.0"/>
      <point x="755.6" y="233.0" type="qcurve" smooth="yes"/>
      <point x="790.4" y="233.0"/>
      <point x="885.8" y="240.6"/>
      <point x="930.8" y="247.3" type="qcurve"/>
      <point x="930.8" y="1205.7" type="line"/>
      <point x="881.6" y="1213.4"/>
      <point x="783.1" y="1221.4"/>
      <point x="756.2" y="1221.4" type="qcurve" smooth="yes"/>
      <point x="619.8" y="1221.4"/>
      <point x="456.29999999999995" y="1027.2"/>
      <point x="456.29999999999995" y="811.8" type="qcurve" smooth="yes"/>
    </contour>
  </outline>
</glyph>
<glyph name="oe" format="2">
  <advance width="1939"/>
  <unicode hex="0153"/>
  <outline>
    <contour>
      <point x="417.79999999999995" y="567.9" type="qcurve" smooth="yes"/>
      <point x="417.79999999999995" y="489.7" type="line" smooth="yes"/>
      <point x="417.79999999999995" y="348.4"/>
      <point x="530.5" y="224.89999999999998"/>
      <point x="630.0" y="224.89999999999998" type="qcurve" smooth="yes"/>
      <point x="729.5" y="224.89999999999998"/>
      <point x="841.5" y="348.1"/>
      <point x="841.5" y="489.7" type="qcurve" smooth="yes"/>
      <point x="841.5" y="567.9" type="line" smooth="yes"/>
      <point x="841.5" y="708.8"/>
      <point x="726.0" y="832.0"/>
      <point x="630.0" y="832.0" type="qcurve" smooth="yes"/>
      <point x="533.3" y="832.0"/>
      <point x="417.79999999999995" y="708.5"/>
    </contour>
    <contour>
      <point x="1016.2" y="932.5" type="qcurve"/>
      <point x="1072.6" y="1000.9"/>
      <point x="1266.6" y="1086.9"/>
      <point x="1392.8" y="1086.9" type="qcurve" smooth="yes"/>
      <point x="1621.1" y="1086.9"/>
      <point x="1896.5" y="809.8"/>
      <point x="1896.5" y="562.1" type="qcurve" smooth="yes"/>
      <point x="1896.5" y="443.4" type="line"/>
      <point x="1079.8" y="443.4" type="line"/>
      <point x="1079.8" y="650.2" type="line"/>
      <point x="1559.4" y="650.2" type="line"/>
      <point x="1559.7" y="665.8" type="line"/>
      <point x="1560.1" y="742.7"/>
      <point x="1466.1" y="847.4"/>
      <point x="1380.5" y="847.4" type="qcurve" smooth="yes"/>
      <point x="1283.6" y="847.4"/>
      <point x="1179.6" y="704.6"/>
      <point x="1179.6" y="567.2" type="qcurve" smooth="yes"/>
      <point x="1179.6" y="491.1" type="line" smooth="yes"/>
      <point x="1179.6" y="358.6"/>
      <point x="1290.0" y="216.5"/>
      <point x="1396.0" y="216.5" type="qcurve" smooth="yes"/>
      <point x="1474.3" y="216.5"/>
      <point x="1593.3" y="298.9"/>
      <point x="1629.2" y="351.2" type="qcurve"/>
      <point x="1873.1" y="196.7" type="line"/>
      <point x="1823.1" y="93.0"/>
      <point x="1572.8" y="-30.7"/>
      <point x="1413.0" y="-30.7" type="qcurve" smooth="yes"/>
      <point x="1274.1" y="-30.7"/>
      <point x="1076.2" y="50.50000000000001"/>
      <point x="1015.4" y="123.4" type="qcurve"/>
      <point x="953.9" y="50.800000000000004"/>
      <point x="757.2" y="-30.0"/>
      <point x="621.0" y="-30.0" type="qcurve" smooth="yes"/>
      <point x="382.3" y="-30.0"/>
      <point x="68.2" y="259.4"/>
      <point x="68.2" y="512.8" type="qcurve" smooth="yes"/>
      <point x="68.2" y="544.8" type="line" smooth="yes"/>
      <point x="68.2" y="798.2"/>
      <point x="382.0" y="1086.6"/>
      <point x="626.4" y="1086.6" type="qcurve" smooth="yes"/>
      <point x="760.6" y="1086.6"/>
      <point x="957.7" y="1000.1"/>
    </contour>
  </outline>
</glyph>
<glyph name="Schwa" format="2">
  <advance width="1446"/>
  <unicode hex="018F"/>
  <outline>
    <contour>
      <point x="15.0" y="1199.0" type="line"/>
      <point x="113.0" y="1356.0"/>
      <point x="445.0" y="1519.0"/>
      <point x="662.0" y="1519.0" type="qcurve" smooth="yes"/>
      <point x="1030.7" y="1519.0"/>
      <point x="1429.7" y="1126.9"/>
      <point x="1429.7" y="789.0" type="qcurve" smooth="yes"/>
      <point x="1429.7" y="409.3"/>
      <point x="1033.1" y="-30.0"/>
      <point x="685.0" y="-30.0" type="qcurve" smooth="yes"/>
      <point x="387.3" y="-30.0"/>
      <point x="53.7" y="292.2"/>
      <point x="46.0" y="594.8" type="qcurve" smooth="yes"/>
      <point x="46.0" y="807.8" type="line"/>
      <point x="1121.6" y="807.8" type="line"/>
      <point x="1121.6" y="589.7" type="line"/>
      <point x="728.7" y="597.0" type="line"/>
      <point x="398.1" y="591.7" type="line"/>
      <point x="398.1" y="531.4" type="line" smooth="yes"/>
      <point x="398.1" y="390.6"/>
      <point x="555.5" y="227.9"/>
      <point x="704.8" y="227.9" type="qcurve" smooth="yes"/>
      <point x="879.1" y="227.9"/>
      <point x="1079.0" y="504.7"/>
      <point x="1078.4" y="746.2" type="qcurve" smooth="yes"/>
      <point x="1077.8" y="987.5"/>
      <point x="840.4" y="1249.0"/>
      <point x="644.0" y="1249.0" type="qcurve" smooth="yes"/>
      <point x="488.6" y="1249.0"/>
      <point x="250.2" y="1135.3"/>
      <point x="197.6" y="1049.0" type="qcurve"/>
    </contour>
  </outline>
</glyph>
<glyph name="florin" format="2">
  <advance width="1134"/>
  <unicode hex="0192"/>
  <outline>
    <contour>
      <point x="921.2" y="907.2" type="line"/>
      <point x="921.2" y="660.9" type="line"/>
      <point x="652.3" y="660.9" type="line"/>
      <point x="652.3" y="38.900000000000006" type="line" smooth="yes"/>
      <point x="652.3" y="-189.8"/>
      <point x="437.2" y="-436.3"/>
      <point x="180.7" y="-436.3" type="qcurve" smooth="yes"/>
      <point x="141.3" y="-436.3"/>
      <point x="14.100000000000001" y="-423.7"/>
      <point x="-11.8" y="-413.7" type="qcurve"/>
      <point x="25.299999999999997" y="-175.8" type="line"/>
      <point x="40.3" y="-180.4"/>
      <point x="91.1" y="-186.7"/>
      <point x="123.3" y="-186.7" type="qcurve" smooth="yes"/>
      <point x="225.4" y="-186.7"/>
      <point x="312.6" y="-75.1"/>
      <point x="312.6" y="74.6" type="qcurve" smooth="yes"/>
      <point x="312.6" y="660.9" type="line"/>
      <point x="164.0" y="660.9" type="line"/>
      <point x="164.0" y="907.2" type="line"/>
      <point x="312.6" y="907.2" type="line"/>
      <point x="312.6" y="1093.8" type="line" smooth="yes"/>
      <point x="312.6" y="1312.9"/>
      <point x="562.2" y="1528.3"/>
      <point x="731.8" y="1528.3" type="qcurve" smooth="yes"/>
      <point x="831.8" y="1528.3"/>
      <point x="992.3" y="1478.8"/>
      <point x="1040.0" y="1448.8" type="qcurve"/>
      <point x="926.8" y="1229.6" type="line"/>
      <point x="894.8" y="1251.5"/>
      <point x="821.3" y="1273.8"/>
      <point x="782.7" y="1273.8" type="qcurve" smooth="yes"/>
      <point x="717.6" y="1273.8"/>
      <point x="652.3" y="1183.4"/>
      <point x="652.3" y="1084.7" type="qcurve" smooth="yes"/>
      <point x="652.3" y="907.2" type="line"/>
    </contour>
  </outline>
</glyph>
<glyph name="schwa" format="2">
  <advance width="1165"/>
  <unicode hex="0259"/>
  <outline>
    <contour>
      <point x="1096.8" y="543.4" type="qcurve" smooth="yes"/>
      <point x="1096.8" y="511.4" type="line" smooth="yes"/>
      <point x="1096.8" y="264.3"/>
      <point x="788.9" y="-30.7"/>
      <point x="554.3" y="-30.7" type="qcurve" smooth="yes"/>
      <point x="317.6" y="-30.7"/>
      <point x="42.2" y="246.4"/>
      <point x="42.2" y="494.1" type="qcurve" smooth="yes"/>
      <point x="42.2" y="612.8" type="line"/>
      <point x="858.9" y="612.8" type="line"/>
      <point x="858.9" y="406.0" type="line"/>
      <point x="379.29999999999995" y="406.0" type="line"/>
      <point x="379.0" y="390.4" type="line"/>
      <point x="378.6" y="313.5"/>
      <point x="472.6" y="208.8"/>
      <point x="558.2" y="208.8" type="qcurve" smooth="yes"/>
      <point x="655.1" y="208.8"/>
      <point x="759.1" y="351.9"/>
      <point x="759.1" y="489.0" type="qcurve" smooth="yes"/>
      <point x="759.1" y="565.1" type="line" smooth="yes"/>
      <point x="759.1" y="697.3"/>
      <point x="645.7" y="839.7"/>
      <point x="539.7" y="839.7" type="qcurve" smooth="yes"/>
      <point x="461.4" y="839.7"/>
      <point x="345.4" y="757.3"/>
      <point x="309.5" y="705.0" type="qcurve"/>
      <point x="65.6" y="859.5" type="line"/>
      <point x="115.6" y="963.2"/>
      <point x="365.9" y="1086.9"/>
      <point x="532.0" y="1086.9" type="qcurve" smooth="yes"/>
      <point x="792.4" y="1086.9"/>
      <point x="1096.8" y="791.2"/>
    </contour>
  </outline>
</glyph>
<glyph name="primemod" format="2">
  <advance width="599"/>
  <unicode hex="02B9"/>
  <outline>
    <contour>
      <point x="175.0" y="1502.0" type="line"/>
      <point x="507.5" y="1502.0" type="line"/>
      <point x="373.1" y="924.5" type="line"/>
      <point x="116.0" y="930.2" type="line"/>
    </contour>
  </outline>
</glyph>
<glyph name="doubleprimemod" format="2">
  <advance width="1026"/>
  <unicode hex="02BA"/>
  <outline>
    <contour>
      <point x="175.0" y="1502.0" type="line"/>
      <point x="507.5" y="1502.0" type="line"/>
      <point x="373.4" y="928.4" type="line"/>
      <point x="116.30000000000001" y="934.1" type="line"/>
    </contour>
    <contour>
      <point x="636.0" y="1502.0" type="line"/>
      <point x="968.5" y="1502.0" type="line"/>
      <point x="834.4" y="928.4" type="line"/>
      <point x="577.3" y="934.1" type="line"/>
    </contour>
  </outline>
</glyph>
<glyph name="apostrophemod" format="2">
  <advance width="608"/>
  <unicode hex="02BC"/>
  <outline>
    <contour>
      <point x="118.6" y="1028.4" type="line"/>
      <point x="160.0" y="1057.0"/>
      <point x="268.9" y="1163.1"/>
      <point x="283.9" y="1231.5" type="qcurve"/>
      <point x="206.6" y="1231.5"/>
      <point x="126.6" y="1322.6"/>
      <point x="126.6" y="1393.5" type="qcurve" smooth="yes"/>
      <point x="126.6" y="1463.4"/>
      <point x="230.0" y="1556.5"/>
      <point x="309.1" y="1556.5" type="qcurve" smooth="yes"/>
      <point x="384.2" y="1556.5"/>
      <point x="506.1" y="1440.9"/>
      <point x="506.1" y="1347.8" type="qcurve" smooth="yes"/>
      <point x="506.1" y="1199.9"/>
      <point x="305.1" y="993.0"/>
      <point x="178.4" y="936.0" type="qcurve"/>
    </contour>
  </outline>
</glyph>
<glyph name="circumflex" format="2">
  <advance width="1024"/>
  <unicode hex="02C6"/>
  <outline>
    <contour>
      <point x="590.4" y="1594.4" type="line"/>
      <point x="900.7" y="1203.0" type="line"/>
      <point x="659.2" y="1203.0" type="line"/>
      <point x="511.3" y="1359.9" type="line"/>
      <point x="365.1" y="1203.0" type="line"/>
      <point x="125.60000000000001" y="1203.0" type="line"/>
      <point x="432.2" y="1594.4" type="line"/>
    </contour>
  </outline>
</glyph>
<glyph name="caron" format="2">
  <advance width="1024"/>
  <unicode hex="02C7"/>
  <outline>
    <contour>
      <point x="435.9" y="1183.0" type="line"/>
      <point x="125.60000000000001" y="1574.4" type="line"/>
      <point x="367.1" y="1574.4" type="line"/>
      <point x="515.0" y="1417.5" type="line"/>
      <point x="661.2" y="1574.4" type="line"/>
      <point x="900.7" y="1574.4" type="line"/>
      <point x="594.1" y="1183.0" type="line"/>
    </contour>
  </outline>
</glyph>
<glyph name="breve" format="2">
  <advance width="1022"/>
  <unicode hex="02D8"/>
  <outline>
    <contour>
      <point x="738.6" y="1576.8" type="qcurve"/>
      <point x="900.1" y="1490.6" type="line"/>
      <point x="868.6" y="1395.1"/>
      <point x="661.4" y="1198.0"/>
      <point x="513.7" y="1198.0" type="qcurve" smooth="yes"/>
      <point x="379.7" y="1198.0"/>
      <point x="165.8" y="1378.3"/>
      <point x="125.2" y="1490.9" type="qcurve"/>
      <point x="285.9" y="1576.8" type="line"/>
      <point x="319.5" y="1522.6"/>
      <point x="438.5" y="1429.9"/>
      <point x="514.0" y="1429.9" type="qcurve" smooth="yes"/>
      <point x="593.8" y="1429.9"/>
      <point x="704.0" y="1519.3"/>
    </contour>
  </outline>
</glyph>
<glyph name="dotaccent" format="2">
  <advance width="1024"/>
  <unicode hex="02D9"/>
  <outline>
    <contour>
      <point x="340.2" y="1383.0" type="qcurve" smooth="yes"/>
      <point x="340.2" y="1448.7"/>
      <point x="430.7" y="1540.3"/>
      <point x="512.7" y="1540.3" type="qcurve" smooth="yes"/>
      <point x="593.7" y="1540.3"/>
      <point x="685.2" y="1448.7"/>
      <point x="685.2" y="1383.0" type="qcurve" smooth="yes"/>
      <point x="685.2" y="1318.0"/>
      <point x="593.7" y="1226.0"/>
      <point x="512.0" y="1226.0" type="qcurve" smooth="yes"/>
      <point x="430.0" y="1226.0"/>
      <point x="340.2" y="1318.0"/>
    </contour>
  </outline>
</glyph>
<glyph name="ring" format="2">
  <advance width="1024"/>
  <unicode hex="02DA"/>
  <outline>
    <contour>
      <point x="246.8" y="1389.0" type="qcurve"/>
      <point x="246.8" y="1495.1"/>
      <point x="399.2" y="1644.8"/>
      <point x="512.0" y="1644.8" type="qcurve" smooth="yes"/>
      <point x="622.1" y="1644.8"/>
      <point x="777.2" y="1495.1"/>
      <point x="777.2" y="1389.0" type="qcurve" smooth="yes"/>
      <point x="777.2" y="1282.6"/>
      <point x="622.1" y="1137.9"/>
      <point x="512.0" y="1137.9" type="qcurve" smooth="yes"/>
      <point x="399.2" y="1137.9"/>
      <point x="246.8" y="1282.6"/>
    </contour>
    <contour>
      <point x="406.5" y="1389.0" type="qcurve"/>
      <point x="406.5" y="1349.2"/>
      <point x="465.9" y="1284.5"/>
      <point x="512.0" y="1284.5" type="qcurve" smooth="yes"/>
      <point x="558.1" y="1284.5"/>
      <point x="618.2" y="1347.2"/>
      <point x="618.2" y="1389.0" type="qcurve" smooth="yes"/>
      <point x="618.2" y="1431.5"/>
      <point x="558.1" y="1497.2"/>
      <point x="512.0" y="1497.2" type="qcurve" smooth="yes"/>
      <point x="465.9" y="1497.2"/>
      <point x="406.5" y="1431.5"/>
    </contour>
  </outline>
</glyph>
<glyph name="ogonek" format="2">
  <advance width="1024"/>
  <unicode hex="02DB"/>
  <outline>
    <contour>
      <point x="520.4" y="57.7" type="qcurve"/>
      <point x="605.6" y="-6.3" type="line"/>
      <point x="545.8" y="-54.3"/>
      <point x="445.8" y="-163.3"/>
      <point x="445.8" y="-224.1" type="qcurve" smooth="yes"/>
      <point x="445.8" y="-257.1"/>
      <point x="490.6" y="-295.0"/>
      <point x="535.0" y="-295.0" type="qcurve" smooth="yes"/>
      <point x="569.4" y="-295.0"/>
      <point x="620.7" y="-276.7"/>
      <point x="637.1" y="-269.4" type="qcurve"/>
      <point x="660.9" y="-443.2" type="line"/>
      <point x="628.9" y="-459.6"/>
      <point x="533.7" y="-492.1"/>
      <point x="460.7" y="-492.1" type="qcurve" smooth="yes"/>
      <point x="360.8" y="-492.1"/>
      <point x="235.1" y="-382.9"/>
      <point x="235.1" y="-278.7" type="qcurve" smooth="yes"/>
      <point x="235.1" y="-188.9"/>
      <point x="373.2" y="-17.2"/>
    </contour>
  </outline>
</glyph>
<glyph name="tilde" format="2">
  <advance width="1024"/>
  <unicode hex="02DC"/>
  <outline>
    <contour>
      <point x="115.4" y="1326.8" type="line"/>
      <point x="152.6" y="1409.4"/>
      <point x="308.1" y="1536.8"/>
      <point x="383.5" y="1536.8" type="qcurve" smooth="yes"/>
      <point x="430.1" y="1536.8"/>
      <point x="514.2" y="1510.4"/>
      <point x="556.1" y="1482.2" type="qcurve" smooth="yes"/>
      <point x="593.6" y="1458.1"/>
      <point x="682.8" y="1409.2"/>
      <point x="725.7" y="1409.2" type="qcurve" smooth="yes"/>
      <point x="771.3" y="1409.2"/>
      <point x="849.0" y="1468.5"/>
      <point x="874.8" y="1509.4" type="qcurve"/>
      <point x="967.0" y="1375.0" type="line"/>
      <point x="924.1" y="1283.0"/>
      <point x="774.3" y="1190.0"/>
      <point x="709.6" y="1190.0" type="qcurve" smooth="yes"/>
      <point x="654.3" y="1190.0"/>
      <point x="548.4" y="1238.6"/>
      <point x="513.2" y="1259.1" type="qcurve" smooth="yes"/>
      <point x="474.3" y="1279.5"/>
      <point x="398.6" y="1319.1"/>
      <point x="365.4" y="1319.1" type="qcurve" smooth="yes"/>
      <point x="312.8" y="1319.1"/>
      <point x="221.3" y="1236.6"/>
      <point x="199.8" y="1205.4" type="qcurve"/>
    </contour>
  </outline>
</glyph>
<glyph name="hungarumlaut" format="2">
  <advance width="1024"/>
  <unicode hex="02DD"/>
  <outline>
    <contour>
      <point x="138.60000000000002" y="1313.1" type="line"/>
      <point x="399.9" y="1647.0" type="line"/>
      <point x="631.1" y="1502.8" type="line"/>
      <point x="303.4" y="1188.6" type="line"/>
    </contour>
    <contour>
      <point x="560.6" y="1313.1" type="line"/>
      <point x="821.9" y="1647.0" type="line"/>
      <point x="1053.1" y="1502.8" type="line"/>
      <point x="725.4" y="1188.6" type="line"/>
    </contour>
  </outline>
</glyph>
<glyph name="hookabovecomb" format="2">
  <advance width="1024"/>
  <unicode hex="0309"/>
  <outline>
    <contour>
      <point x="426.0" y="1135.1" type="line"/>
      <point x="426.0" y="1176.2" type="line" smooth="yes"/>
      <point x="426.0" y="1247.8"/>
      <point x="495.5" y="1326.2"/>
      <point x="566.6" y="1334.4" type="qcurve" smooth="yes"/>
      <point x="609.3" y="1339.6"/>
      <point x="641.6" y="1366.0"/>
      <point x="641.6" y="1397.9" type="qcurve" smooth="yes"/>
      <point x="641.6" y="1428.5"/>
      <point x="594.5" y="1456.8"/>
      <point x="552.4" y="1456.8" type="qcurve" smooth="yes"/>
      <point x="502.4" y="1456.8"/>
      <point x="382.7" y="1421.7"/>
      <point x="371.3" y="1413.0" type="qcurve"/>
      <point x="303.3" y="1567.4" type="line"/>
      <point x="341.1" y="1587.8"/>
      <point x="508.4" y="1630.9"/>
      <point x="596.7" y="1630.9" type="qcurve" smooth="yes"/>
      <point x="726.5" y="1630.9"/>
      <point x="862.0" y="1511.3"/>
      <point x="862.0" y="1410.4" type="qcurve" smooth="yes"/>
      <point x="862.0" y="1304.5"/>
      <point x="723.5" y="1179.2"/>
      <point x="583.3" y="1168.2" type="qcurve"/>
      <point x="583.3" y="1135.1" type="line"/>
    </contour>
  </outline>
</glyph>
<glyph name="breveinvertedcomb" format="2">
  <advance width="1024"/>
  <unicode hex="030F"/>
  <outline>
    <contour>
      <point x="286.7" y="1197.3" type="qcurve"/>
      <point x="125.2" y="1283.5" type="line"/>
      <point x="156.7" y="1379.0"/>
      <point x="363.9" y="1576.1"/>
      <point x="511.6" y="1576.1" type="qcurve" smooth="yes"/>
      <point x="645.6" y="1576.1"/>
      <point x="859.5" y="1395.8"/>
      <point x="900.1" y="1283.2" type="qcurve"/>
      <point x="739.4" y="1197.3" type="line"/>
      <point x="705.8" y="1251.5"/>
      <point x="586.8" y="1344.2"/>
      <point x="511.3" y="1344.2" type="qcurve" smooth="yes"/>
      <point x="431.5" y="1344.2"/>
      <point x="321.3" y="1254.8"/>
    </contour>
  </outline>
</glyph>
<glyph name="horncomb" format="2">
  <advance width="1024"/>
  <unicode hex="031B"/>
  <outline>
    <contour>
      <point x="0.0" y="998.0" type="line"/>
      <point x="87.5" y="998.0" type="line" smooth="yes"/>
      <point x="138.3" y="998.0"/>
      <point x="213.1" y="1036.2"/>
      <point x="213.1" y="1093.8" type="qcurve" smooth="yes"/>
      <point x="213.1" y="1145.4"/>
      <point x="200.1" y="1226.8"/>
      <point x="189.4" y="1267.0" type="qcurve"/>
      <point x="373.9" y="1267.0" type="line"/>
      <point x="396.7" y="1227.0"/>
      <point x="434.6" y="1100.9"/>
      <point x="434.6" y="1022.9" type="qcurve" smooth="yes"/>
      <point x="434.6" y="915.3"/>
      <point x="274.3" y="811.4"/>
      <point x="164.3" y="811.4" type="qcurve" smooth="yes"/>
      <point x="112.0" y="811.4"/>
      <point x="29.5" y="826.2"/>
      <point x="0.0" y="837.3" type="qcurve"/>
    </contour>
  </outline>
</glyph>
<glyph name="dotbelowcomb" format="2">
  <advance width="1024"/>
  <unicode hex="0323"/>
  <outline>
    <contour>
      <point x="340.8" y="-321.0" type="qcurve" smooth="yes"/>
      <point x="340.8" y="-252.0"/>
      <point x="429.5" y="-164.0"/>
      <point x="512.7" y="-164.0" type="qcurve" smooth="yes"/>
      <point x="594.0" y="-164.0"/>
      <point x="684.6" y="-253.2"/>
      <point x="684.6" y="-321.0" type="qcurve" smooth="yes"/>
      <point x="684.6" y="-389.6"/>
      <point x="595.2" y="-478.3"/>
      <point x="512.0" y="-478.3" type="qcurve" smooth="yes"/>
      <point x="430.0" y="-478.3"/>
      <point x="340.8" y="-388.4"/>
    </contour>
  </outline>
</glyph>
<glyph name="dieresisbelowcomb" format="2">
  <advance width="1024"/>
  <unicode hex="0324"/>
  <outline>
    <contour>
      <point x="91.80000000000001" y="-370.7" type="qcurve" smooth="yes"/>
      <point x="91.80000000000001" y="-301.7"/>
      <point x="180.5" y="-214.0"/>
      <point x="263.1" y="-214.0" type="qcurve" smooth="yes"/>
      <point x="344.1" y="-214.0"/>
      <point x="434.4" y="-302.9"/>
      <point x="434.4" y="-370.7" type="qcurve" smooth="yes"/>
      <point x="434.4" y="-438.7"/>
      <point x="345.3" y="-527.1"/>
      <point x="262.4" y="-527.1" type="qcurve" smooth="yes"/>
      <point x="180.7" y="-527.1"/>
      <point x="91.80000000000001" y="-437.8"/>
    </contour>
    <contour>
      <point x="588.9" y="-370.7" type="qcurve" smooth="yes"/>
      <point x="588.9" y="-301.7"/>
      <point x="677.6" y="-214.0"/>
      <point x="760.2" y="-214.0" type="qcurve" smooth="yes"/>
      <point x="841.9" y="-214.0"/>
      <point x="932.2" y="-302.9"/>
      <point x="932.2" y="-370.7" type="qcurve" smooth="yes"/>
      <point x="932.2" y="-438.7"/>
      <point x="843.1" y="-527.1"/>
      <point x="759.5" y="-527.1" type="qcurve" smooth="yes"/>
      <point x="677.8" y="-527.1"/>
      <point x="588.9" y="-437.8"/>
    </contour>
  </outline>
</glyph>
<glyph name="commaaccentcomb" format="2">
  <advance width="1024"/>
  <unicode hex="0326"/>
  <outline>
    <contour>
      <point x="307.1" y="-543.4" type="line"/>
      <point x="339.6" y="-426.8"/>
      <point x="379.8" y="-270.7"/>
      <point x="404.9" y="-128.0" type="qcurve"/>
      <point x="742.7" y="-125.3" type="line"/>
      <point x="601.7" y="-546.4" type="line"/>
    </contour>
  </outline>
</glyph>
<glyph name="brevebelowcomb" format="2">
  <advance width="1024"/>
  <unicode hex="032E"/>
  <outline>
    <contour>
      <point x="753.3" y="-79.4" type="qcurve"/>
      <point x="914.2" y="-170.4" type="line"/>
      <point x="881.5" y="-265.9"/>
      <point x="666.5" y="-463.0"/>
      <point x="513.4" y="-463.0" type="qcurve" smooth="yes"/>
      <point x="374.9" y="-463.0"/>
      <point x="153.2" y="-282.7"/>
      <point x="110.8" y="-170.1" type="qcurve"/>
      <point x="270.3" y="-79.4" type="line"/>
      <point x="306.3" y="-135.4"/>
      <point x="433.1" y="-229.60000000000002"/>
      <point x="513.4" y="-229.60000000000002" type="qcurve" smooth="yes"/>
      <point x="598.6" y="-229.60000000000002"/>
      <point x="716.6" y="-139.0"/>
    </contour>
  </outline>
</glyph>
<glyph name="macronbelowcomb" format="2">
  <advance width="1024"/>
  <unicode hex="0331"/>
  <outline>
    <contour>
      <point x="671.0" y="-149.8" type="line"/>
      <point x="671.0" y="-279.4" type="line"/>
      <point x="353.00000000000006" y="-279.4" type="line"/>
      <point x="353.00000000000006" y="-149.8" type="line"/>
    </contour>
  </outline>
</glyph>
<glyph name="numeralsign" format="2">
  <advance width="798"/>
  <unicode hex="0374"/>
  <outline>
    <contour>
      <point x="383.6" y="1063.9" type="line"/>
      <point x="190.6" y="1105.1" type="line"/>
      <point x="295.7" y="1591.0" type="line"/>
      <point x="586.4" y="1542.6" type="line"/>
    </contour>
  </outline>
</glyph>
<glyph name="tonos" format="2">
  <advance width="889"/>
  <unicode hex="0384"/>
  <outline>
    <contour>
      <point x="466.1" y="1218.0" type="line"/>
      <point x="273.1" y="1259.2" type="line"/>
      <point x="360.8" y="1680.2" type="line"/>
      <point x="651.5" y="1631.8" type="line"/>
    </contour>
  </outline>
</glyph>
<glyph name="dieresistonos" format="2">
  <advance width="1150"/>
  <unicode hex="0385"/>
  <outline>
    <contour>
      <point x="249.1" y="1218.3" type="qcurve" smooth="yes"/>
      <point x="175.8" y="1218.3"/>
      <point x="98.10000000000001" y="1298.2"/>
      <point x="98.10000000000001" y="1355.9" type="qcurve" smooth="yes"/>
      <point x="98.10000000000001" y="1414.9"/>
      <point x="176.5" y="1494.4"/>
      <point x="249.8" y="1494.4" type="qcurve" smooth="yes"/>
      <point x="322.0" y="1494.4"/>
      <point x="401.1" y="1414.9"/>
      <point x="401.1" y="1355.9" type="qcurve" smooth="yes"/>
      <point x="401.1" y="1298.2"/>
      <point x="322.0" y="1218.3"/>
    </contour>
    <contour>
      <point x="636.6" y="1214.5" type="line"/>
      <point x="463.9" y="1228.8" type="line"/>
      <point x="483.0" y="1660.6" type="line"/>
      <point x="755.8" y="1660.6" type="line"/>
    </contour>
    <contour>
      <point x="898.9" y="1217.7" type="qcurve" smooth="yes"/>
      <point x="826.0" y="1217.7"/>
      <point x="748.6" y="1297.6"/>
      <point x="748.6" y="1355.3" type="qcurve" smooth="yes"/>
      <point x="748.6" y="1414.3"/>
      <point x="826.7" y="1493.8"/>
      <point x="899.6" y="1493.8" type="qcurve" smooth="yes"/>
      <point x="972.9" y="1493.8"/>
      <point x="1051.6" y="1414.3"/>
      <point x="1051.6" y="1355.3" type="qcurve" smooth="yes"/>
      <point x="1051.6" y="1297.6"/>
      <point x="972.9" y="1217.7"/>
    </contour>
  </outline>
</glyph>
<glyph name="Delta" format="2">
  <advance width="1308"/>
  <unicode hex="0394"/>
  <outline>
    <contour>
      <point x="15.700000000000001" y="0.0" type="line"/>
      <point x="15.700000000000001" y="166.5" type="line"/>
      <point x="464.4" y="1461.8" type="line"/>
      <point x="847.1" y="1461.8" type="line"/>
      <point x="1302.4" y="166.5" type="line"/>
      <point x="1302.4" y="0.0" type="line"/>
    </contour>
    <contour>
      <point x="355.5" y="256.0" type="line"/>
      <point x="904.2" y="256.0" type="line"/>
      <point x="669.5" y="987.3" type="line" smooth="yes"/>
      <point x="658.6" y="1021.0"/>
      <point x="641.6" y="1083.0"/>
      <point x="636.0" y="1113.9" type="qcurve"/>
      <point x="628.1" y="1113.9" type="line"/>
      <point x="623.2" y="1083.0"/>
      <point x="603.8" y="1021.0"/>
      <point x="593.9" y="987.3" type="qcurve" smooth="yes"/>
    </contour>
  </outline>
</glyph>
<glyph name="Theta" format="2">
  <advance width="1568"/>
  <unicode hex="0398"/>
  <outline>
    <contour>
      <point x="781.8" y="-29.3" type="qcurve" smooth="yes"/>
      <point x="487.3" y="-29.3"/>
      <point x="115.0" y="329.9"/>
      <point x="115.0" y="682.7" type="qcurve" smooth="yes"/>
      <point x="115.0" y="773.3" type="line" smooth="yes"/>
      <point x="115.0" y="1126.1"/>
      <point x="487.3" y="1485.3"/>
      <point x="781.8" y="1485.3" type="qcurve" smooth="yes"/>
      <point x="1075.6" y="1485.3"/>
      <point x="1452.8" y="1126.1"/>
      <point x="1452.8" y="773.3" type="qcurve" smooth="yes"/>
      <point x="1452.8" y="682.7" type="line" smooth="yes"/>
      <point x="1452.8" y="329.9"/>
      <point x="1075.6" y="-29.3"/>
    </contour>
    <contour>
      <point x="781.8" y="234.8" type="qcurve" smooth="yes"/>
      <point x="936.8" y="234.8"/>
      <point x="1104.8" y="428.8"/>
      <point x="1104.8" y="643.5" type="qcurve" smooth="yes"/>
      <point x="1104.8" y="811.8" type="line" smooth="yes"/>
      <point x="1104.8" y="1027.2"/>
      <point x="936.8" y="1220.5"/>
      <point x="781.8" y="1220.5" type="qcurve" smooth="yes"/>
      <point x="627.5" y="1220.5"/>
      <point x="463.7" y="1027.2"/>
      <point x="463.7" y="811.8" type="qcurve" smooth="yes"/>
      <point x="463.7" y="643.5" type="line" smooth="yes"/>
      <point x="463.7" y="428.8"/>
      <point x="627.5" y="234.8"/>
    </contour>
    <contour>
      <point x="574.4" y="596.0" type="line"/>
      <point x="574.4" y="869.0" type="line"/>
      <point x="994.1" y="869.0" type="line"/>
      <point x="994.1" y="596.0" type="line"/>
    </contour>
  </outline>
</glyph>
<glyph name="Lambda" format="2">
  <advance width="1255"/>
  <unicode hex="039B"/>
  <outline>
    <contour>
      <point x="-24.5" y="0.0" type="line"/>
      <point x="438.1" y="1461.8" type="line"/>
      <point x="820.8" y="1461.8" type="line"/>
      <point x="1290.4" y="0.0" type="line"/>
      <point x="908.4" y="0.0" type="line"/>
      <point x="642.5" y="987.3" type="line" smooth="yes"/>
      <point x="633.6" y="1021.0"/>
      <point x="617.4" y="1083.0"/>
      <point x="609.7" y="1113.9" type="qcurve"/>
      <point x="601.8" y="1113.9" type="line"/>
      <point x="594.8" y="1083.0"/>
      <point x="578.2" y="1021.0"/>
      <point x="569.0" y="987.3" type="qcurve" smooth="yes"/>
      <point x="298.4" y="0.0" type="line"/>
    </contour>
  </outline>
</glyph>
<glyph name="Xi" format="2">
  <advance width="1232"/>
  <unicode hex="039E"/>
  <outline>
    <contour>
      <point x="62.4" y="0.0" type="line"/>
      <point x="62.4" y="282.3" type="line"/>
      <point x="1168.6" y="282.3" type="line"/>
      <point x="1168.6" y="0.0" type="line"/>
    </contour>
    <contour>
      <point x="164.4" y="610.2" type="line"/>
      <point x="164.4" y="889.0" type="line"/>
      <point x="1066.6" y="889.0" type="line"/>
      <point x="1066.6" y="610.2" type="line"/>
    </contour>
    <contour>
      <point x="62.4" y="1173.0" type="line"/>
      <point x="62.4" y="1456.0" type="line"/>
      <point x="1168.6" y="1456.0" type="line"/>
      <point x="1168.6" y="1173.0" type="line"/>
    </contour>
  </outline>
</glyph>
